<?xml version="1.0" encoding="utf-8" standalone="no"?>
<!DOCTYPE svg PUBLIC "-//W3C//DTD SVG 1.1//EN"
  "http://www.w3.org/Graphics/SVG/1.1/DTD/svg11.dtd">
<!-- Created with matplotlib (https://matplotlib.org/) -->
<svg height="1157.107148pt" version="1.1" viewBox="0 0 2016.05875 1157.107148" width="2016.05875pt" xmlns="http://www.w3.org/2000/svg" xmlns:xlink="http://www.w3.org/1999/xlink">
 <metadata>
  <rdf:RDF xmlns:cc="http://creativecommons.org/ns#" xmlns:dc="http://purl.org/dc/elements/1.1/" xmlns:rdf="http://www.w3.org/1999/02/22-rdf-syntax-ns#">
   <cc:Work>
    <dc:type rdf:resource="http://purl.org/dc/dcmitype/StillImage"/>
    <dc:date>2025-05-13T23:51:33.029201</dc:date>
    <dc:format>image/svg+xml</dc:format>
    <dc:creator>
     <cc:Agent>
      <dc:title>Matplotlib v3.3.2, https://matplotlib.org/</dc:title>
     </cc:Agent>
    </dc:creator>
   </cc:Work>
  </rdf:RDF>
 </metadata>
 <defs>
  <style type="text/css">*{stroke-linecap:butt;stroke-linejoin:round;}</style>
 </defs>
 <g id="figure_1">
  <g id="patch_1">
   <path d="M 0 1157.107148 
L 2016.05875 1157.107148 
L 2016.05875 0 
L 0 0 
z
" style="fill:#ffffff;"/>
  </g>
  <g id="axes_1">
   <g id="patch_2">
    <path d="M 433.91875 994.413398 
L 2008.85875 994.413398 
L 2008.85875 25.235217 
L 433.91875 25.235217 
z
" style="fill:#ffffff;"/>
   </g>
   <g id="matplotlib.axis_1">
    <g id="xtick_1">
     <g id="line2d_1">
      <defs>
       <path d="M 0 5 
L 0 -5 
" id="m881e9b6c99" style="stroke:#000000;stroke-width:3;"/>
      </defs>
      <g>
       <use style="stroke:#000000;stroke-width:3;" x="505.506932" xlink:href="#m881e9b6c99" y="994.413398"/>
      </g>
     </g>
     <g id="text_1">
      <!-- 0 -->
      <g transform="translate(460.969432 1120.791523)scale(1.4 -1.4)">
       <defs>
        <path d="M 31.78125 66.40625 
Q 24.171875 66.40625 20.328125 58.90625 
Q 16.5 51.421875 16.5 36.375 
Q 16.5 21.390625 20.328125 13.890625 
Q 24.171875 6.390625 31.78125 6.390625 
Q 39.453125 6.390625 43.28125 13.890625 
Q 47.125 21.390625 47.125 36.375 
Q 47.125 51.421875 43.28125 58.90625 
Q 39.453125 66.40625 31.78125 66.40625 
z
M 31.78125 74.21875 
Q 44.046875 74.21875 50.515625 64.515625 
Q 56.984375 54.828125 56.984375 36.375 
Q 56.984375 17.96875 50.515625 8.265625 
Q 44.046875 -1.421875 31.78125 -1.421875 
Q 19.53125 -1.421875 13.0625 8.265625 
Q 6.59375 17.96875 6.59375 36.375 
Q 6.59375 54.828125 13.0625 64.515625 
Q 19.53125 74.21875 31.78125 74.21875 
z
" id="DejaVuSans-48"/>
       </defs>
       <use xlink:href="#DejaVuSans-48"/>
      </g>
     </g>
    </g>
    <g id="xtick_2">
     <g id="line2d_2">
      <g>
       <use style="stroke:#000000;stroke-width:3;" x="948.092291" xlink:href="#m881e9b6c99" y="994.413398"/>
      </g>
     </g>
     <g id="text_2">
      <!-- 200 -->
      <g transform="translate(814.479791 1120.791523)scale(1.4 -1.4)">
       <defs>
        <path d="M 19.1875 8.296875 
L 53.609375 8.296875 
L 53.609375 0 
L 7.328125 0 
L 7.328125 8.296875 
Q 12.9375 14.109375 22.625 23.890625 
Q 32.328125 33.6875 34.8125 36.53125 
Q 39.546875 41.84375 41.421875 45.53125 
Q 43.3125 49.21875 43.3125 52.78125 
Q 43.3125 58.59375 39.234375 62.25 
Q 35.15625 65.921875 28.609375 65.921875 
Q 23.96875 65.921875 18.8125 64.3125 
Q 13.671875 62.703125 7.8125 59.421875 
L 7.8125 69.390625 
Q 13.765625 71.78125 18.9375 73 
Q 24.125 74.21875 28.421875 74.21875 
Q 39.75 74.21875 46.484375 68.546875 
Q 53.21875 62.890625 53.21875 53.421875 
Q 53.21875 48.921875 51.53125 44.890625 
Q 49.859375 40.875 45.40625 35.40625 
Q 44.1875 33.984375 37.640625 27.21875 
Q 31.109375 20.453125 19.1875 8.296875 
z
" id="DejaVuSans-50"/>
       </defs>
       <use xlink:href="#DejaVuSans-50"/>
       <use x="63.623047" xlink:href="#DejaVuSans-48"/>
       <use x="127.246094" xlink:href="#DejaVuSans-48"/>
      </g>
     </g>
    </g>
    <g id="xtick_3">
     <g id="line2d_3">
      <g>
       <use style="stroke:#000000;stroke-width:3;" x="1390.67765" xlink:href="#m881e9b6c99" y="994.413398"/>
      </g>
     </g>
     <g id="text_3">
      <!-- 400 -->
      <g transform="translate(1257.06515 1120.791523)scale(1.4 -1.4)">
       <defs>
        <path d="M 37.796875 64.3125 
L 12.890625 25.390625 
L 37.796875 25.390625 
z
M 35.203125 72.90625 
L 47.609375 72.90625 
L 47.609375 25.390625 
L 58.015625 25.390625 
L 58.015625 17.1875 
L 47.609375 17.1875 
L 47.609375 0 
L 37.796875 0 
L 37.796875 17.1875 
L 4.890625 17.1875 
L 4.890625 26.703125 
z
" id="DejaVuSans-52"/>
       </defs>
       <use xlink:href="#DejaVuSans-52"/>
       <use x="63.623047" xlink:href="#DejaVuSans-48"/>
       <use x="127.246094" xlink:href="#DejaVuSans-48"/>
      </g>
     </g>
    </g>
    <g id="xtick_4">
     <g id="line2d_4">
      <g>
       <use style="stroke:#000000;stroke-width:3;" x="1833.263009" xlink:href="#m881e9b6c99" y="994.413398"/>
      </g>
     </g>
     <g id="text_4">
      <!-- 600 -->
      <g transform="translate(1699.650509 1120.791523)scale(1.4 -1.4)">
       <defs>
        <path d="M 33.015625 40.375 
Q 26.375 40.375 22.484375 35.828125 
Q 18.609375 31.296875 18.609375 23.390625 
Q 18.609375 15.53125 22.484375 10.953125 
Q 26.375 6.390625 33.015625 6.390625 
Q 39.65625 6.390625 43.53125 10.953125 
Q 47.40625 15.53125 47.40625 23.390625 
Q 47.40625 31.296875 43.53125 35.828125 
Q 39.65625 40.375 33.015625 40.375 
z
M 52.59375 71.296875 
L 52.59375 62.3125 
Q 48.875 64.0625 45.09375 64.984375 
Q 41.3125 65.921875 37.59375 65.921875 
Q 27.828125 65.921875 22.671875 59.328125 
Q 17.53125 52.734375 16.796875 39.40625 
Q 19.671875 43.65625 24.015625 45.921875 
Q 28.375 48.1875 33.59375 48.1875 
Q 44.578125 48.1875 50.953125 41.515625 
Q 57.328125 34.859375 57.328125 23.390625 
Q 57.328125 12.15625 50.6875 5.359375 
Q 44.046875 -1.421875 33.015625 -1.421875 
Q 20.359375 -1.421875 13.671875 8.265625 
Q 6.984375 17.96875 6.984375 36.375 
Q 6.984375 53.65625 15.1875 63.9375 
Q 23.390625 74.21875 37.203125 74.21875 
Q 40.921875 74.21875 44.703125 73.484375 
Q 48.484375 72.75 52.59375 71.296875 
z
" id="DejaVuSans-54"/>
       </defs>
       <use xlink:href="#DejaVuSans-54"/>
       <use x="63.623047" xlink:href="#DejaVuSans-48"/>
       <use x="127.246094" xlink:href="#DejaVuSans-48"/>
      </g>
     </g>
    </g>
   </g>
   <g id="matplotlib.axis_2">
    <g id="ytick_1">
     <g id="line2d_5">
      <path clip-path="url(#pd88f8e5013)" d="M 433.91875 950.359845 
L 2008.85875 950.359845 
" style="fill:none;stroke:#b0b0b0;stroke-linecap:square;stroke-width:0.8;"/>
     </g>
     <g id="line2d_6">
      <defs>
       <path d="M 5 0 
L -5 -0 
" id="m4f5ee2106f" style="stroke:#000000;stroke-width:3;"/>
      </defs>
      <g>
       <use style="stroke:#000000;stroke-width:3;" x="433.91875" xlink:href="#m4f5ee2106f" y="950.359845"/>
      </g>
     </g>
     <g id="text_5">
      <!-- 0 -->
      <g transform="translate(324.84375 1003.548907)scale(1.4 -1.4)">
       <use xlink:href="#DejaVuSans-48"/>
      </g>
     </g>
    </g>
    <g id="ytick_2">
     <g id="line2d_7">
      <path clip-path="url(#pd88f8e5013)" d="M 433.91875 505.374454 
L 2008.85875 505.374454 
" style="fill:none;stroke:#b0b0b0;stroke-linecap:square;stroke-width:0.8;"/>
     </g>
     <g id="line2d_8">
      <g>
       <use style="stroke:#000000;stroke-width:3;" x="433.91875" xlink:href="#m4f5ee2106f" y="505.374454"/>
      </g>
     </g>
     <g id="text_6">
      <!-- 50 -->
      <g transform="translate(235.76875 558.563516)scale(1.4 -1.4)">
       <defs>
        <path d="M 10.796875 72.90625 
L 49.515625 72.90625 
L 49.515625 64.59375 
L 19.828125 64.59375 
L 19.828125 46.734375 
Q 21.96875 47.46875 24.109375 47.828125 
Q 26.265625 48.1875 28.421875 48.1875 
Q 40.625 48.1875 47.75 41.5 
Q 54.890625 34.8125 54.890625 23.390625 
Q 54.890625 11.625 47.5625 5.09375 
Q 40.234375 -1.421875 26.90625 -1.421875 
Q 22.3125 -1.421875 17.546875 -0.640625 
Q 12.796875 0.140625 7.71875 1.703125 
L 7.71875 11.625 
Q 12.109375 9.234375 16.796875 8.0625 
Q 21.484375 6.890625 26.703125 6.890625 
Q 35.15625 6.890625 40.078125 11.328125 
Q 45.015625 15.765625 45.015625 23.390625 
Q 45.015625 31 40.078125 35.4375 
Q 35.15625 39.890625 26.703125 39.890625 
Q 22.75 39.890625 18.8125 39.015625 
Q 14.890625 38.140625 10.796875 36.28125 
z
" id="DejaVuSans-53"/>
       </defs>
       <use xlink:href="#DejaVuSans-53"/>
       <use x="63.623047" xlink:href="#DejaVuSans-48"/>
      </g>
     </g>
    </g>
    <g id="ytick_3">
     <g id="line2d_9">
      <path clip-path="url(#pd88f8e5013)" d="M 433.91875 60.389063 
L 2008.85875 60.389063 
" style="fill:none;stroke:#b0b0b0;stroke-linecap:square;stroke-width:0.8;"/>
     </g>
     <g id="line2d_10">
      <g>
       <use style="stroke:#000000;stroke-width:3;" x="433.91875" xlink:href="#m4f5ee2106f" y="60.389063"/>
      </g>
     </g>
     <g id="text_7">
      <!-- 100 -->
      <g transform="translate(146.69375 113.578125)scale(1.4 -1.4)">
       <defs>
        <path d="M 12.40625 8.296875 
L 28.515625 8.296875 
L 28.515625 63.921875 
L 10.984375 60.40625 
L 10.984375 69.390625 
L 28.421875 72.90625 
L 38.28125 72.90625 
L 38.28125 8.296875 
L 54.390625 8.296875 
L 54.390625 0 
L 12.40625 0 
z
" id="DejaVuSans-49"/>
       </defs>
       <use xlink:href="#DejaVuSans-49"/>
       <use x="63.623047" xlink:href="#DejaVuSans-48"/>
       <use x="127.246094" xlink:href="#DejaVuSans-48"/>
      </g>
     </g>
    </g>
    <g id="text_8">
     <!-- Usage (%) -->
     <g transform="translate(113.578125 871.308683)rotate(-90)scale(1.4 -1.4)">
      <defs>
       <path d="M 8.6875 72.90625 
L 18.609375 72.90625 
L 18.609375 28.609375 
Q 18.609375 16.890625 22.84375 11.734375 
Q 27.09375 6.59375 36.625 6.59375 
Q 46.09375 6.59375 50.34375 11.734375 
Q 54.59375 16.890625 54.59375 28.609375 
L 54.59375 72.90625 
L 64.5 72.90625 
L 64.5 27.390625 
Q 64.5 13.140625 57.4375 5.859375 
Q 50.390625 -1.421875 36.625 -1.421875 
Q 22.796875 -1.421875 15.734375 5.859375 
Q 8.6875 13.140625 8.6875 27.390625 
z
" id="DejaVuSans-85"/>
       <path d="M 44.28125 53.078125 
L 44.28125 44.578125 
Q 40.484375 46.53125 36.375 47.5 
Q 32.28125 48.484375 27.875 48.484375 
Q 21.1875 48.484375 17.84375 46.4375 
Q 14.5 44.390625 14.5 40.28125 
Q 14.5 37.15625 16.890625 35.375 
Q 19.28125 33.59375 26.515625 31.984375 
L 29.59375 31.296875 
Q 39.15625 29.25 43.1875 25.515625 
Q 47.21875 21.78125 47.21875 15.09375 
Q 47.21875 7.46875 41.1875 3.015625 
Q 35.15625 -1.421875 24.609375 -1.421875 
Q 20.21875 -1.421875 15.453125 -0.5625 
Q 10.6875 0.296875 5.421875 2 
L 5.421875 11.28125 
Q 10.40625 8.6875 15.234375 7.390625 
Q 20.0625 6.109375 24.8125 6.109375 
Q 31.15625 6.109375 34.5625 8.28125 
Q 37.984375 10.453125 37.984375 14.40625 
Q 37.984375 18.0625 35.515625 20.015625 
Q 33.0625 21.96875 24.703125 23.78125 
L 21.578125 24.515625 
Q 13.234375 26.265625 9.515625 29.90625 
Q 5.8125 33.546875 5.8125 39.890625 
Q 5.8125 47.609375 11.28125 51.796875 
Q 16.75 56 26.8125 56 
Q 31.78125 56 36.171875 55.265625 
Q 40.578125 54.546875 44.28125 53.078125 
z
" id="DejaVuSans-115"/>
       <path d="M 34.28125 27.484375 
Q 23.390625 27.484375 19.1875 25 
Q 14.984375 22.515625 14.984375 16.5 
Q 14.984375 11.71875 18.140625 8.90625 
Q 21.296875 6.109375 26.703125 6.109375 
Q 34.1875 6.109375 38.703125 11.40625 
Q 43.21875 16.703125 43.21875 25.484375 
L 43.21875 27.484375 
z
M 52.203125 31.203125 
L 52.203125 0 
L 43.21875 0 
L 43.21875 8.296875 
Q 40.140625 3.328125 35.546875 0.953125 
Q 30.953125 -1.421875 24.3125 -1.421875 
Q 15.921875 -1.421875 10.953125 3.296875 
Q 6 8.015625 6 15.921875 
Q 6 25.140625 12.171875 29.828125 
Q 18.359375 34.515625 30.609375 34.515625 
L 43.21875 34.515625 
L 43.21875 35.40625 
Q 43.21875 41.609375 39.140625 45 
Q 35.0625 48.390625 27.6875 48.390625 
Q 23 48.390625 18.546875 47.265625 
Q 14.109375 46.140625 10.015625 43.890625 
L 10.015625 52.203125 
Q 14.9375 54.109375 19.578125 55.046875 
Q 24.21875 56 28.609375 56 
Q 40.484375 56 46.34375 49.84375 
Q 52.203125 43.703125 52.203125 31.203125 
z
" id="DejaVuSans-97"/>
       <path d="M 45.40625 27.984375 
Q 45.40625 37.75 41.375 43.109375 
Q 37.359375 48.484375 30.078125 48.484375 
Q 22.859375 48.484375 18.828125 43.109375 
Q 14.796875 37.75 14.796875 27.984375 
Q 14.796875 18.265625 18.828125 12.890625 
Q 22.859375 7.515625 30.078125 7.515625 
Q 37.359375 7.515625 41.375 12.890625 
Q 45.40625 18.265625 45.40625 27.984375 
z
M 54.390625 6.78125 
Q 54.390625 -7.171875 48.1875 -13.984375 
Q 42 -20.796875 29.203125 -20.796875 
Q 24.46875 -20.796875 20.265625 -20.09375 
Q 16.0625 -19.390625 12.109375 -17.921875 
L 12.109375 -9.1875 
Q 16.0625 -11.328125 19.921875 -12.34375 
Q 23.78125 -13.375 27.78125 -13.375 
Q 36.625 -13.375 41.015625 -8.765625 
Q 45.40625 -4.15625 45.40625 5.171875 
L 45.40625 9.625 
Q 42.625 4.78125 38.28125 2.390625 
Q 33.9375 0 27.875 0 
Q 17.828125 0 11.671875 7.65625 
Q 5.515625 15.328125 5.515625 27.984375 
Q 5.515625 40.671875 11.671875 48.328125 
Q 17.828125 56 27.875 56 
Q 33.9375 56 38.28125 53.609375 
Q 42.625 51.21875 45.40625 46.390625 
L 45.40625 54.6875 
L 54.390625 54.6875 
z
" id="DejaVuSans-103"/>
       <path d="M 56.203125 29.59375 
L 56.203125 25.203125 
L 14.890625 25.203125 
Q 15.484375 15.921875 20.484375 11.0625 
Q 25.484375 6.203125 34.421875 6.203125 
Q 39.59375 6.203125 44.453125 7.46875 
Q 49.3125 8.734375 54.109375 11.28125 
L 54.109375 2.78125 
Q 49.265625 0.734375 44.1875 -0.34375 
Q 39.109375 -1.421875 33.890625 -1.421875 
Q 20.796875 -1.421875 13.15625 6.1875 
Q 5.515625 13.8125 5.515625 26.8125 
Q 5.515625 40.234375 12.765625 48.109375 
Q 20.015625 56 32.328125 56 
Q 43.359375 56 49.78125 48.890625 
Q 56.203125 41.796875 56.203125 29.59375 
z
M 47.21875 32.234375 
Q 47.125 39.59375 43.09375 43.984375 
Q 39.0625 48.390625 32.421875 48.390625 
Q 24.90625 48.390625 20.390625 44.140625 
Q 15.875 39.890625 15.1875 32.171875 
z
" id="DejaVuSans-101"/>
       <path id="DejaVuSans-32"/>
       <path d="M 31 75.875 
Q 24.46875 64.65625 21.28125 53.65625 
Q 18.109375 42.671875 18.109375 31.390625 
Q 18.109375 20.125 21.3125 9.0625 
Q 24.515625 -2 31 -13.1875 
L 23.1875 -13.1875 
Q 15.875 -1.703125 12.234375 9.375 
Q 8.59375 20.453125 8.59375 31.390625 
Q 8.59375 42.28125 12.203125 53.3125 
Q 15.828125 64.359375 23.1875 75.875 
z
" id="DejaVuSans-40"/>
       <path d="M 72.703125 32.078125 
Q 68.453125 32.078125 66.03125 28.46875 
Q 63.625 24.859375 63.625 18.40625 
Q 63.625 12.0625 66.03125 8.421875 
Q 68.453125 4.78125 72.703125 4.78125 
Q 76.859375 4.78125 79.265625 8.421875 
Q 81.6875 12.0625 81.6875 18.40625 
Q 81.6875 24.8125 79.265625 28.4375 
Q 76.859375 32.078125 72.703125 32.078125 
z
M 72.703125 38.28125 
Q 80.421875 38.28125 84.953125 32.90625 
Q 89.5 27.546875 89.5 18.40625 
Q 89.5 9.28125 84.9375 3.921875 
Q 80.375 -1.421875 72.703125 -1.421875 
Q 64.890625 -1.421875 60.34375 3.921875 
Q 55.8125 9.28125 55.8125 18.40625 
Q 55.8125 27.59375 60.375 32.9375 
Q 64.9375 38.28125 72.703125 38.28125 
z
M 22.3125 68.015625 
Q 18.109375 68.015625 15.6875 64.375 
Q 13.28125 60.75 13.28125 54.390625 
Q 13.28125 47.953125 15.671875 44.328125 
Q 18.0625 40.71875 22.3125 40.71875 
Q 26.5625 40.71875 28.96875 44.328125 
Q 31.390625 47.953125 31.390625 54.390625 
Q 31.390625 60.6875 28.953125 64.34375 
Q 26.515625 68.015625 22.3125 68.015625 
z
M 66.40625 74.21875 
L 74.21875 74.21875 
L 28.609375 -1.421875 
L 20.796875 -1.421875 
z
M 22.3125 74.21875 
Q 30.03125 74.21875 34.609375 68.875 
Q 39.203125 63.53125 39.203125 54.390625 
Q 39.203125 45.171875 34.640625 39.84375 
Q 30.078125 34.515625 22.3125 34.515625 
Q 14.546875 34.515625 10.03125 39.859375 
Q 5.515625 45.21875 5.515625 54.390625 
Q 5.515625 63.484375 10.046875 68.84375 
Q 14.59375 74.21875 22.3125 74.21875 
z
" id="DejaVuSans-37"/>
       <path d="M 8.015625 75.875 
L 15.828125 75.875 
Q 23.140625 64.359375 26.78125 53.3125 
Q 30.421875 42.28125 30.421875 31.390625 
Q 30.421875 20.453125 26.78125 9.375 
Q 23.140625 -1.703125 15.828125 -13.1875 
L 8.015625 -13.1875 
Q 14.5 -2 17.703125 9.0625 
Q 20.90625 20.125 20.90625 31.390625 
Q 20.90625 42.671875 17.703125 53.65625 
Q 14.5 64.65625 8.015625 75.875 
z
" id="DejaVuSans-41"/>
      </defs>
      <use xlink:href="#DejaVuSans-85"/>
      <use x="73.193359" xlink:href="#DejaVuSans-115"/>
      <use x="125.292969" xlink:href="#DejaVuSans-97"/>
      <use x="186.572266" xlink:href="#DejaVuSans-103"/>
      <use x="250.048828" xlink:href="#DejaVuSans-101"/>
      <use x="311.572266" xlink:href="#DejaVuSans-32"/>
      <use x="343.359375" xlink:href="#DejaVuSans-40"/>
      <use x="382.373047" xlink:href="#DejaVuSans-37"/>
      <use x="477.392578" xlink:href="#DejaVuSans-41"/>
     </g>
    </g>
   </g>
   <g id="line2d_11">
    <path clip-path="url(#pd88f8e5013)" d="M 505.506932 949.469874 
L 514.358639 949.469874 
L 525.423273 949.469874 
L 534.27498 949.469874 
L 545.339614 941.460137 
L 554.191321 949.469874 
L 567.468882 860.472796 
L 578.533516 694.93823 
L 589.59815 677.138815 
L 600.662784 884.502007 
L 609.514491 584.581853 
L 625.004979 581.911941 
L 640.495466 593.481561 
L 651.5601 548.093051 
L 664.837661 571.232291 
L 680.328149 875.602299 
L 691.392783 571.232291 
L 702.457417 615.730831 
L 717.947904 581.02197 
L 733.438392 603.27124 
L 748.928879 514.274161 
L 762.20644 711.847675 
L 773.271074 532.073577 
L 786.548635 570.342321 
L 797.613269 577.462087 
L 813.103756 600.601327 
L 828.594244 655.779516 
L 844.084731 663.789253 
L 855.149365 758.126156 
L 870.639853 857.802883 
L 881.704487 854.243 
L 892.769121 658.449428 
L 906.046682 612.170947 
L 917.111316 746.556536 
L 934.81473 592.59159 
L 945.879364 568.562379 
L 961.369852 624.630538 
L 976.860339 586.361795 
L 990.1379 797.28487 
L 1001.202534 750.116419 
L 1014.480095 584.581853 
L 1025.544729 587.251766 
L 1041.035216 564.112525 
L 1056.525704 656.669487 
L 1072.016191 832.883701 
L 1087.506679 606.831123 
L 1098.571313 548.093051 
L 1114.0618 629.970363 
L 1127.339361 562.332584 
L 1138.403995 623.740568 
L 1149.468629 754.566273 
L 1164.959117 775.035601 
L 1176.023751 846.233263 
L 1187.088385 644.209896 
L 1198.153019 601.491298 
L 1209.217653 570.342321 
L 1222.495213 659.339399 
L 1233.559847 818.644169 
L 1249.050335 581.02197 
L 1260.114969 589.921678 
L 1275.605456 598.821386 
L 1286.67009 666.459165 
L 1302.160578 554.322847 
L 1315.438139 823.094023 
L 1326.502773 615.730831 
L 1337.567407 622.850597 
L 1350.844968 626.41048 
L 1361.909601 650.439691 
L 1392.890577 802.624695 
L 1401.742284 613.950889 
L 1412.806918 585.471824 
L 1428.297405 546.31311 
L 1443.787893 662.899282 
L 1461.491307 807.074549 
L 1476.981795 847.123234 
L 1488.046429 856.022942 
L 1499.111063 633.530246 
L 1510.175697 710.067734 
L 1523.453258 572.122262 
L 1536.730818 598.821386 
L 1550.008379 844.453322 
L 1563.28594 699.388084 
L 1563.28594 699.388084 
L 1574.350574 599.711357 
L 1587.628135 567.672408 
L 1603.118622 610.391006 
L 1614.183256 585.471824 
L 1627.460817 827.543877 
L 1638.525451 633.530246 
L 1649.590085 635.310188 
L 1660.654719 576.572116 
L 1676.145206 639.760042 
L 1687.20984 559.662671 
L 1700.487401 639.760042 
L 1713.764962 653.109603 
L 1724.829596 573.012233 
L 1753.597644 669.129078 
L 1766.875205 770.585747 
L 1780.152766 831.10376 
L 1793.430327 856.912913 
L 1802.282034 661.11934 
L 1815.559594 606.831123 
L 1826.624228 626.41048 
L 1839.901789 554.322847 
L 1855.392277 586.361795 
L 1866.456911 847.123234 
L 1875.308618 583.691882 
L 1886.373252 640.650012 
L 1901.863739 623.740568 
L 1912.928373 587.251766 
L 1937.270568 569.45235 
" style="fill:none;stroke:#1f77b4;stroke-linecap:square;stroke-width:10;"/>
    <defs>
     <path d="M 0 7.5 
C 1.989023 7.5 3.896849 6.709753 5.303301 5.303301 
C 6.709753 3.896849 7.5 1.989023 7.5 0 
C 7.5 -1.989023 6.709753 -3.896849 5.303301 -5.303301 
C 3.896849 -6.709753 1.989023 -7.5 0 -7.5 
C -1.989023 -7.5 -3.896849 -6.709753 -5.303301 -5.303301 
C -6.709753 -3.896849 -7.5 -1.989023 -7.5 0 
C -7.5 1.989023 -6.709753 3.896849 -5.303301 5.303301 
C -3.896849 6.709753 -1.989023 7.5 0 7.5 
z
" id="mabcc6f4b3e" style="stroke:#1f77b4;"/>
    </defs>
    <g clip-path="url(#pd88f8e5013)">
     <use style="fill:#1f77b4;stroke:#1f77b4;" x="505.506932" xlink:href="#mabcc6f4b3e" y="949.469874"/>
     <use style="fill:#1f77b4;stroke:#1f77b4;" x="514.358639" xlink:href="#mabcc6f4b3e" y="949.469874"/>
     <use style="fill:#1f77b4;stroke:#1f77b4;" x="525.423273" xlink:href="#mabcc6f4b3e" y="949.469874"/>
     <use style="fill:#1f77b4;stroke:#1f77b4;" x="534.27498" xlink:href="#mabcc6f4b3e" y="949.469874"/>
     <use style="fill:#1f77b4;stroke:#1f77b4;" x="545.339614" xlink:href="#mabcc6f4b3e" y="941.460137"/>
     <use style="fill:#1f77b4;stroke:#1f77b4;" x="554.191321" xlink:href="#mabcc6f4b3e" y="949.469874"/>
     <use style="fill:#1f77b4;stroke:#1f77b4;" x="567.468882" xlink:href="#mabcc6f4b3e" y="860.472796"/>
     <use style="fill:#1f77b4;stroke:#1f77b4;" x="578.533516" xlink:href="#mabcc6f4b3e" y="694.93823"/>
     <use style="fill:#1f77b4;stroke:#1f77b4;" x="589.59815" xlink:href="#mabcc6f4b3e" y="677.138815"/>
     <use style="fill:#1f77b4;stroke:#1f77b4;" x="600.662784" xlink:href="#mabcc6f4b3e" y="884.502007"/>
     <use style="fill:#1f77b4;stroke:#1f77b4;" x="609.514491" xlink:href="#mabcc6f4b3e" y="584.581853"/>
     <use style="fill:#1f77b4;stroke:#1f77b4;" x="625.004979" xlink:href="#mabcc6f4b3e" y="581.911941"/>
     <use style="fill:#1f77b4;stroke:#1f77b4;" x="640.495466" xlink:href="#mabcc6f4b3e" y="593.481561"/>
     <use style="fill:#1f77b4;stroke:#1f77b4;" x="651.5601" xlink:href="#mabcc6f4b3e" y="548.093051"/>
     <use style="fill:#1f77b4;stroke:#1f77b4;" x="664.837661" xlink:href="#mabcc6f4b3e" y="571.232291"/>
     <use style="fill:#1f77b4;stroke:#1f77b4;" x="680.328149" xlink:href="#mabcc6f4b3e" y="875.602299"/>
     <use style="fill:#1f77b4;stroke:#1f77b4;" x="691.392783" xlink:href="#mabcc6f4b3e" y="571.232291"/>
     <use style="fill:#1f77b4;stroke:#1f77b4;" x="702.457417" xlink:href="#mabcc6f4b3e" y="615.730831"/>
     <use style="fill:#1f77b4;stroke:#1f77b4;" x="717.947904" xlink:href="#mabcc6f4b3e" y="581.02197"/>
     <use style="fill:#1f77b4;stroke:#1f77b4;" x="733.438392" xlink:href="#mabcc6f4b3e" y="603.27124"/>
     <use style="fill:#1f77b4;stroke:#1f77b4;" x="748.928879" xlink:href="#mabcc6f4b3e" y="514.274161"/>
     <use style="fill:#1f77b4;stroke:#1f77b4;" x="762.20644" xlink:href="#mabcc6f4b3e" y="711.847675"/>
     <use style="fill:#1f77b4;stroke:#1f77b4;" x="773.271074" xlink:href="#mabcc6f4b3e" y="532.073577"/>
     <use style="fill:#1f77b4;stroke:#1f77b4;" x="786.548635" xlink:href="#mabcc6f4b3e" y="570.342321"/>
     <use style="fill:#1f77b4;stroke:#1f77b4;" x="797.613269" xlink:href="#mabcc6f4b3e" y="577.462087"/>
     <use style="fill:#1f77b4;stroke:#1f77b4;" x="813.103756" xlink:href="#mabcc6f4b3e" y="600.601327"/>
     <use style="fill:#1f77b4;stroke:#1f77b4;" x="828.594244" xlink:href="#mabcc6f4b3e" y="655.779516"/>
     <use style="fill:#1f77b4;stroke:#1f77b4;" x="844.084731" xlink:href="#mabcc6f4b3e" y="663.789253"/>
     <use style="fill:#1f77b4;stroke:#1f77b4;" x="855.149365" xlink:href="#mabcc6f4b3e" y="758.126156"/>
     <use style="fill:#1f77b4;stroke:#1f77b4;" x="870.639853" xlink:href="#mabcc6f4b3e" y="857.802883"/>
     <use style="fill:#1f77b4;stroke:#1f77b4;" x="881.704487" xlink:href="#mabcc6f4b3e" y="854.243"/>
     <use style="fill:#1f77b4;stroke:#1f77b4;" x="892.769121" xlink:href="#mabcc6f4b3e" y="658.449428"/>
     <use style="fill:#1f77b4;stroke:#1f77b4;" x="906.046682" xlink:href="#mabcc6f4b3e" y="612.170947"/>
     <use style="fill:#1f77b4;stroke:#1f77b4;" x="917.111316" xlink:href="#mabcc6f4b3e" y="746.556536"/>
     <use style="fill:#1f77b4;stroke:#1f77b4;" x="934.81473" xlink:href="#mabcc6f4b3e" y="592.59159"/>
     <use style="fill:#1f77b4;stroke:#1f77b4;" x="945.879364" xlink:href="#mabcc6f4b3e" y="568.562379"/>
     <use style="fill:#1f77b4;stroke:#1f77b4;" x="961.369852" xlink:href="#mabcc6f4b3e" y="624.630538"/>
     <use style="fill:#1f77b4;stroke:#1f77b4;" x="976.860339" xlink:href="#mabcc6f4b3e" y="586.361795"/>
     <use style="fill:#1f77b4;stroke:#1f77b4;" x="990.1379" xlink:href="#mabcc6f4b3e" y="797.28487"/>
     <use style="fill:#1f77b4;stroke:#1f77b4;" x="1001.202534" xlink:href="#mabcc6f4b3e" y="750.116419"/>
     <use style="fill:#1f77b4;stroke:#1f77b4;" x="1014.480095" xlink:href="#mabcc6f4b3e" y="584.581853"/>
     <use style="fill:#1f77b4;stroke:#1f77b4;" x="1025.544729" xlink:href="#mabcc6f4b3e" y="587.251766"/>
     <use style="fill:#1f77b4;stroke:#1f77b4;" x="1041.035216" xlink:href="#mabcc6f4b3e" y="564.112525"/>
     <use style="fill:#1f77b4;stroke:#1f77b4;" x="1056.525704" xlink:href="#mabcc6f4b3e" y="656.669487"/>
     <use style="fill:#1f77b4;stroke:#1f77b4;" x="1072.016191" xlink:href="#mabcc6f4b3e" y="832.883701"/>
     <use style="fill:#1f77b4;stroke:#1f77b4;" x="1087.506679" xlink:href="#mabcc6f4b3e" y="606.831123"/>
     <use style="fill:#1f77b4;stroke:#1f77b4;" x="1098.571313" xlink:href="#mabcc6f4b3e" y="548.093051"/>
     <use style="fill:#1f77b4;stroke:#1f77b4;" x="1114.0618" xlink:href="#mabcc6f4b3e" y="629.970363"/>
     <use style="fill:#1f77b4;stroke:#1f77b4;" x="1127.339361" xlink:href="#mabcc6f4b3e" y="562.332584"/>
     <use style="fill:#1f77b4;stroke:#1f77b4;" x="1138.403995" xlink:href="#mabcc6f4b3e" y="623.740568"/>
     <use style="fill:#1f77b4;stroke:#1f77b4;" x="1149.468629" xlink:href="#mabcc6f4b3e" y="754.566273"/>
     <use style="fill:#1f77b4;stroke:#1f77b4;" x="1164.959117" xlink:href="#mabcc6f4b3e" y="775.035601"/>
     <use style="fill:#1f77b4;stroke:#1f77b4;" x="1176.023751" xlink:href="#mabcc6f4b3e" y="846.233263"/>
     <use style="fill:#1f77b4;stroke:#1f77b4;" x="1187.088385" xlink:href="#mabcc6f4b3e" y="644.209896"/>
     <use style="fill:#1f77b4;stroke:#1f77b4;" x="1198.153019" xlink:href="#mabcc6f4b3e" y="601.491298"/>
     <use style="fill:#1f77b4;stroke:#1f77b4;" x="1209.217653" xlink:href="#mabcc6f4b3e" y="570.342321"/>
     <use style="fill:#1f77b4;stroke:#1f77b4;" x="1222.495213" xlink:href="#mabcc6f4b3e" y="659.339399"/>
     <use style="fill:#1f77b4;stroke:#1f77b4;" x="1233.559847" xlink:href="#mabcc6f4b3e" y="818.644169"/>
     <use style="fill:#1f77b4;stroke:#1f77b4;" x="1249.050335" xlink:href="#mabcc6f4b3e" y="581.02197"/>
     <use style="fill:#1f77b4;stroke:#1f77b4;" x="1260.114969" xlink:href="#mabcc6f4b3e" y="589.921678"/>
     <use style="fill:#1f77b4;stroke:#1f77b4;" x="1275.605456" xlink:href="#mabcc6f4b3e" y="598.821386"/>
     <use style="fill:#1f77b4;stroke:#1f77b4;" x="1286.67009" xlink:href="#mabcc6f4b3e" y="666.459165"/>
     <use style="fill:#1f77b4;stroke:#1f77b4;" x="1302.160578" xlink:href="#mabcc6f4b3e" y="554.322847"/>
     <use style="fill:#1f77b4;stroke:#1f77b4;" x="1315.438139" xlink:href="#mabcc6f4b3e" y="823.094023"/>
     <use style="fill:#1f77b4;stroke:#1f77b4;" x="1326.502773" xlink:href="#mabcc6f4b3e" y="615.730831"/>
     <use style="fill:#1f77b4;stroke:#1f77b4;" x="1337.567407" xlink:href="#mabcc6f4b3e" y="622.850597"/>
     <use style="fill:#1f77b4;stroke:#1f77b4;" x="1350.844968" xlink:href="#mabcc6f4b3e" y="626.41048"/>
     <use style="fill:#1f77b4;stroke:#1f77b4;" x="1361.909601" xlink:href="#mabcc6f4b3e" y="650.439691"/>
     <use style="fill:#1f77b4;stroke:#1f77b4;" x="1392.890577" xlink:href="#mabcc6f4b3e" y="802.624695"/>
     <use style="fill:#1f77b4;stroke:#1f77b4;" x="1401.742284" xlink:href="#mabcc6f4b3e" y="613.950889"/>
     <use style="fill:#1f77b4;stroke:#1f77b4;" x="1412.806918" xlink:href="#mabcc6f4b3e" y="585.471824"/>
     <use style="fill:#1f77b4;stroke:#1f77b4;" x="1428.297405" xlink:href="#mabcc6f4b3e" y="546.31311"/>
     <use style="fill:#1f77b4;stroke:#1f77b4;" x="1443.787893" xlink:href="#mabcc6f4b3e" y="662.899282"/>
     <use style="fill:#1f77b4;stroke:#1f77b4;" x="1461.491307" xlink:href="#mabcc6f4b3e" y="807.074549"/>
     <use style="fill:#1f77b4;stroke:#1f77b4;" x="1476.981795" xlink:href="#mabcc6f4b3e" y="847.123234"/>
     <use style="fill:#1f77b4;stroke:#1f77b4;" x="1488.046429" xlink:href="#mabcc6f4b3e" y="856.022942"/>
     <use style="fill:#1f77b4;stroke:#1f77b4;" x="1499.111063" xlink:href="#mabcc6f4b3e" y="633.530246"/>
     <use style="fill:#1f77b4;stroke:#1f77b4;" x="1510.175697" xlink:href="#mabcc6f4b3e" y="710.067734"/>
     <use style="fill:#1f77b4;stroke:#1f77b4;" x="1523.453258" xlink:href="#mabcc6f4b3e" y="572.122262"/>
     <use style="fill:#1f77b4;stroke:#1f77b4;" x="1536.730818" xlink:href="#mabcc6f4b3e" y="598.821386"/>
     <use style="fill:#1f77b4;stroke:#1f77b4;" x="1550.008379" xlink:href="#mabcc6f4b3e" y="844.453322"/>
     <use style="fill:#1f77b4;stroke:#1f77b4;" x="1563.28594" xlink:href="#mabcc6f4b3e" y="699.388084"/>
     <use style="fill:#1f77b4;stroke:#1f77b4;" x="1563.28594" xlink:href="#mabcc6f4b3e" y="699.388084"/>
     <use style="fill:#1f77b4;stroke:#1f77b4;" x="1574.350574" xlink:href="#mabcc6f4b3e" y="599.711357"/>
     <use style="fill:#1f77b4;stroke:#1f77b4;" x="1587.628135" xlink:href="#mabcc6f4b3e" y="567.672408"/>
     <use style="fill:#1f77b4;stroke:#1f77b4;" x="1603.118622" xlink:href="#mabcc6f4b3e" y="610.391006"/>
     <use style="fill:#1f77b4;stroke:#1f77b4;" x="1614.183256" xlink:href="#mabcc6f4b3e" y="585.471824"/>
     <use style="fill:#1f77b4;stroke:#1f77b4;" x="1627.460817" xlink:href="#mabcc6f4b3e" y="827.543877"/>
     <use style="fill:#1f77b4;stroke:#1f77b4;" x="1638.525451" xlink:href="#mabcc6f4b3e" y="633.530246"/>
     <use style="fill:#1f77b4;stroke:#1f77b4;" x="1649.590085" xlink:href="#mabcc6f4b3e" y="635.310188"/>
     <use style="fill:#1f77b4;stroke:#1f77b4;" x="1660.654719" xlink:href="#mabcc6f4b3e" y="576.572116"/>
     <use style="fill:#1f77b4;stroke:#1f77b4;" x="1676.145206" xlink:href="#mabcc6f4b3e" y="639.760042"/>
     <use style="fill:#1f77b4;stroke:#1f77b4;" x="1687.20984" xlink:href="#mabcc6f4b3e" y="559.662671"/>
     <use style="fill:#1f77b4;stroke:#1f77b4;" x="1700.487401" xlink:href="#mabcc6f4b3e" y="639.760042"/>
     <use style="fill:#1f77b4;stroke:#1f77b4;" x="1713.764962" xlink:href="#mabcc6f4b3e" y="653.109603"/>
     <use style="fill:#1f77b4;stroke:#1f77b4;" x="1724.829596" xlink:href="#mabcc6f4b3e" y="573.012233"/>
     <use style="fill:#1f77b4;stroke:#1f77b4;" x="1753.597644" xlink:href="#mabcc6f4b3e" y="669.129078"/>
     <use style="fill:#1f77b4;stroke:#1f77b4;" x="1766.875205" xlink:href="#mabcc6f4b3e" y="770.585747"/>
     <use style="fill:#1f77b4;stroke:#1f77b4;" x="1780.152766" xlink:href="#mabcc6f4b3e" y="831.10376"/>
     <use style="fill:#1f77b4;stroke:#1f77b4;" x="1793.430327" xlink:href="#mabcc6f4b3e" y="856.912913"/>
     <use style="fill:#1f77b4;stroke:#1f77b4;" x="1802.282034" xlink:href="#mabcc6f4b3e" y="661.11934"/>
     <use style="fill:#1f77b4;stroke:#1f77b4;" x="1815.559594" xlink:href="#mabcc6f4b3e" y="606.831123"/>
     <use style="fill:#1f77b4;stroke:#1f77b4;" x="1826.624228" xlink:href="#mabcc6f4b3e" y="626.41048"/>
     <use style="fill:#1f77b4;stroke:#1f77b4;" x="1839.901789" xlink:href="#mabcc6f4b3e" y="554.322847"/>
     <use style="fill:#1f77b4;stroke:#1f77b4;" x="1855.392277" xlink:href="#mabcc6f4b3e" y="586.361795"/>
     <use style="fill:#1f77b4;stroke:#1f77b4;" x="1866.456911" xlink:href="#mabcc6f4b3e" y="847.123234"/>
     <use style="fill:#1f77b4;stroke:#1f77b4;" x="1875.308618" xlink:href="#mabcc6f4b3e" y="583.691882"/>
     <use style="fill:#1f77b4;stroke:#1f77b4;" x="1886.373252" xlink:href="#mabcc6f4b3e" y="640.650012"/>
     <use style="fill:#1f77b4;stroke:#1f77b4;" x="1901.863739" xlink:href="#mabcc6f4b3e" y="623.740568"/>
     <use style="fill:#1f77b4;stroke:#1f77b4;" x="1912.928373" xlink:href="#mabcc6f4b3e" y="587.251766"/>
     <use style="fill:#1f77b4;stroke:#1f77b4;" x="1937.270568" xlink:href="#mabcc6f4b3e" y="569.45235"/>
    </g>
   </g>
   <g id="line2d_12">
    <path clip-path="url(#pd88f8e5013)" d="M 505.506932 950.359845 
L 514.358639 950.359845 
L 525.423273 950.359845 
L 534.27498 950.359845 
L 545.339614 950.359845 
L 554.191321 950.359845 
L 567.468882 950.359845 
L 578.533516 950.359845 
L 589.59815 781.265396 
L 600.662784 888.06189 
L 609.514491 113.787309 
L 625.004979 87.088186 
L 640.495466 950.359845 
L 651.5601 140.486433 
L 664.837661 273.98205 
L 680.328149 888.06189 
L 691.392783 950.359845 
L 702.457417 87.088186 
L 717.947904 87.088186 
L 733.438392 87.088186 
L 748.928879 104.887602 
L 762.20644 950.359845 
L 773.271074 665.569194 
L 786.548635 852.463059 
L 797.613269 95.987894 
L 813.103756 78.188478 
L 828.594244 122.687017 
L 844.084731 950.359845 
L 855.149365 78.188478 
L 870.639853 78.188478 
L 881.704487 167.185556 
L 892.769121 950.359845 
L 906.046682 629.970363 
L 917.111316 87.088186 
L 934.81473 701.168026 
L 945.879364 78.188478 
L 961.369852 247.282927 
L 976.860339 140.486433 
L 990.1379 941.460137 
L 1001.202534 273.98205 
L 1014.480095 950.359845 
L 1025.544729 78.188478 
L 1041.035216 78.188478 
L 1056.525704 78.188478 
L 1072.016191 78.188478 
L 1087.506679 950.359845 
L 1098.571313 78.188478 
L 1114.0618 78.188478 
L 1127.339361 69.28877 
L 1138.403995 78.188478 
L 1149.468629 78.188478 
L 1164.959117 870.262474 
L 1176.023751 78.188478 
L 1187.088385 950.359845 
L 1198.153019 763.46598 
L 1209.217653 78.188478 
L 1222.495213 825.763935 
L 1233.559847 131.586725 
L 1249.050335 825.763935 
L 1260.114969 122.687017 
L 1275.605456 950.359845 
L 1286.67009 78.188478 
L 1302.160578 78.188478 
L 1315.438139 950.359845 
L 1326.502773 78.188478 
L 1337.567407 78.188478 
L 1350.844968 950.359845 
L 1361.909601 78.188478 
L 1392.890577 184.984972 
L 1401.742284 950.359845 
L 1412.806918 629.970363 
L 1428.297405 78.188478 
L 1443.787893 78.188478 
L 1461.491307 78.188478 
L 1476.981795 78.188478 
L 1488.046429 905.861306 
L 1499.111063 950.359845 
L 1510.175697 425.277083 
L 1523.453258 78.188478 
L 1536.730818 576.572116 
L 1550.008379 78.188478 
L 1563.28594 532.073577 
L 1563.28594 532.073577 
L 1574.350574 78.188478 
L 1587.628135 78.188478 
L 1603.118622 888.06189 
L 1614.183256 104.887602 
L 1627.460817 950.359845 
L 1638.525451 78.188478 
L 1649.590085 950.359845 
L 1660.654719 78.188478 
L 1676.145206 950.359845 
L 1687.20984 78.188478 
L 1700.487401 78.188478 
L 1713.764962 950.359845 
L 1724.829596 78.188478 
L 1753.597644 87.088186 
L 1766.875205 78.188478 
L 1780.152766 78.188478 
L 1793.430327 950.359845 
L 1802.282034 718.967441 
L 1815.559594 701.168026 
L 1826.624228 122.687017 
L 1839.901789 104.887602 
L 1855.392277 843.563351 
L 1866.456911 193.88468 
L 1875.308618 932.560429 
L 1886.373252 87.088186 
L 1901.863739 69.28877 
L 1912.928373 905.861306 
L 1937.270568 78.188478 
" style="fill:none;stroke:#ff7f0e;stroke-linecap:square;stroke-width:10;"/>
    <defs>
     <path d="M 0 7.5 
C 1.989023 7.5 3.896849 6.709753 5.303301 5.303301 
C 6.709753 3.896849 7.5 1.989023 7.5 0 
C 7.5 -1.989023 6.709753 -3.896849 5.303301 -5.303301 
C 3.896849 -6.709753 1.989023 -7.5 0 -7.5 
C -1.989023 -7.5 -3.896849 -6.709753 -5.303301 -5.303301 
C -6.709753 -3.896849 -7.5 -1.989023 -7.5 0 
C -7.5 1.989023 -6.709753 3.896849 -5.303301 5.303301 
C -3.896849 6.709753 -1.989023 7.5 0 7.5 
z
" id="m33d78ab4ac" style="stroke:#ff7f0e;"/>
    </defs>
    <g clip-path="url(#pd88f8e5013)">
     <use style="fill:#ff7f0e;stroke:#ff7f0e;" x="505.506932" xlink:href="#m33d78ab4ac" y="950.359845"/>
     <use style="fill:#ff7f0e;stroke:#ff7f0e;" x="514.358639" xlink:href="#m33d78ab4ac" y="950.359845"/>
     <use style="fill:#ff7f0e;stroke:#ff7f0e;" x="525.423273" xlink:href="#m33d78ab4ac" y="950.359845"/>
     <use style="fill:#ff7f0e;stroke:#ff7f0e;" x="534.27498" xlink:href="#m33d78ab4ac" y="950.359845"/>
     <use style="fill:#ff7f0e;stroke:#ff7f0e;" x="545.339614" xlink:href="#m33d78ab4ac" y="950.359845"/>
     <use style="fill:#ff7f0e;stroke:#ff7f0e;" x="554.191321" xlink:href="#m33d78ab4ac" y="950.359845"/>
     <use style="fill:#ff7f0e;stroke:#ff7f0e;" x="567.468882" xlink:href="#m33d78ab4ac" y="950.359845"/>
     <use style="fill:#ff7f0e;stroke:#ff7f0e;" x="578.533516" xlink:href="#m33d78ab4ac" y="950.359845"/>
     <use style="fill:#ff7f0e;stroke:#ff7f0e;" x="589.59815" xlink:href="#m33d78ab4ac" y="781.265396"/>
     <use style="fill:#ff7f0e;stroke:#ff7f0e;" x="600.662784" xlink:href="#m33d78ab4ac" y="888.06189"/>
     <use style="fill:#ff7f0e;stroke:#ff7f0e;" x="609.514491" xlink:href="#m33d78ab4ac" y="113.787309"/>
     <use style="fill:#ff7f0e;stroke:#ff7f0e;" x="625.004979" xlink:href="#m33d78ab4ac" y="87.088186"/>
     <use style="fill:#ff7f0e;stroke:#ff7f0e;" x="640.495466" xlink:href="#m33d78ab4ac" y="950.359845"/>
     <use style="fill:#ff7f0e;stroke:#ff7f0e;" x="651.5601" xlink:href="#m33d78ab4ac" y="140.486433"/>
     <use style="fill:#ff7f0e;stroke:#ff7f0e;" x="664.837661" xlink:href="#m33d78ab4ac" y="273.98205"/>
     <use style="fill:#ff7f0e;stroke:#ff7f0e;" x="680.328149" xlink:href="#m33d78ab4ac" y="888.06189"/>
     <use style="fill:#ff7f0e;stroke:#ff7f0e;" x="691.392783" xlink:href="#m33d78ab4ac" y="950.359845"/>
     <use style="fill:#ff7f0e;stroke:#ff7f0e;" x="702.457417" xlink:href="#m33d78ab4ac" y="87.088186"/>
     <use style="fill:#ff7f0e;stroke:#ff7f0e;" x="717.947904" xlink:href="#m33d78ab4ac" y="87.088186"/>
     <use style="fill:#ff7f0e;stroke:#ff7f0e;" x="733.438392" xlink:href="#m33d78ab4ac" y="87.088186"/>
     <use style="fill:#ff7f0e;stroke:#ff7f0e;" x="748.928879" xlink:href="#m33d78ab4ac" y="104.887602"/>
     <use style="fill:#ff7f0e;stroke:#ff7f0e;" x="762.20644" xlink:href="#m33d78ab4ac" y="950.359845"/>
     <use style="fill:#ff7f0e;stroke:#ff7f0e;" x="773.271074" xlink:href="#m33d78ab4ac" y="665.569194"/>
     <use style="fill:#ff7f0e;stroke:#ff7f0e;" x="786.548635" xlink:href="#m33d78ab4ac" y="852.463059"/>
     <use style="fill:#ff7f0e;stroke:#ff7f0e;" x="797.613269" xlink:href="#m33d78ab4ac" y="95.987894"/>
     <use style="fill:#ff7f0e;stroke:#ff7f0e;" x="813.103756" xlink:href="#m33d78ab4ac" y="78.188478"/>
     <use style="fill:#ff7f0e;stroke:#ff7f0e;" x="828.594244" xlink:href="#m33d78ab4ac" y="122.687017"/>
     <use style="fill:#ff7f0e;stroke:#ff7f0e;" x="844.084731" xlink:href="#m33d78ab4ac" y="950.359845"/>
     <use style="fill:#ff7f0e;stroke:#ff7f0e;" x="855.149365" xlink:href="#m33d78ab4ac" y="78.188478"/>
     <use style="fill:#ff7f0e;stroke:#ff7f0e;" x="870.639853" xlink:href="#m33d78ab4ac" y="78.188478"/>
     <use style="fill:#ff7f0e;stroke:#ff7f0e;" x="881.704487" xlink:href="#m33d78ab4ac" y="167.185556"/>
     <use style="fill:#ff7f0e;stroke:#ff7f0e;" x="892.769121" xlink:href="#m33d78ab4ac" y="950.359845"/>
     <use style="fill:#ff7f0e;stroke:#ff7f0e;" x="906.046682" xlink:href="#m33d78ab4ac" y="629.970363"/>
     <use style="fill:#ff7f0e;stroke:#ff7f0e;" x="917.111316" xlink:href="#m33d78ab4ac" y="87.088186"/>
     <use style="fill:#ff7f0e;stroke:#ff7f0e;" x="934.81473" xlink:href="#m33d78ab4ac" y="701.168026"/>
     <use style="fill:#ff7f0e;stroke:#ff7f0e;" x="945.879364" xlink:href="#m33d78ab4ac" y="78.188478"/>
     <use style="fill:#ff7f0e;stroke:#ff7f0e;" x="961.369852" xlink:href="#m33d78ab4ac" y="247.282927"/>
     <use style="fill:#ff7f0e;stroke:#ff7f0e;" x="976.860339" xlink:href="#m33d78ab4ac" y="140.486433"/>
     <use style="fill:#ff7f0e;stroke:#ff7f0e;" x="990.1379" xlink:href="#m33d78ab4ac" y="941.460137"/>
     <use style="fill:#ff7f0e;stroke:#ff7f0e;" x="1001.202534" xlink:href="#m33d78ab4ac" y="273.98205"/>
     <use style="fill:#ff7f0e;stroke:#ff7f0e;" x="1014.480095" xlink:href="#m33d78ab4ac" y="950.359845"/>
     <use style="fill:#ff7f0e;stroke:#ff7f0e;" x="1025.544729" xlink:href="#m33d78ab4ac" y="78.188478"/>
     <use style="fill:#ff7f0e;stroke:#ff7f0e;" x="1041.035216" xlink:href="#m33d78ab4ac" y="78.188478"/>
     <use style="fill:#ff7f0e;stroke:#ff7f0e;" x="1056.525704" xlink:href="#m33d78ab4ac" y="78.188478"/>
     <use style="fill:#ff7f0e;stroke:#ff7f0e;" x="1072.016191" xlink:href="#m33d78ab4ac" y="78.188478"/>
     <use style="fill:#ff7f0e;stroke:#ff7f0e;" x="1087.506679" xlink:href="#m33d78ab4ac" y="950.359845"/>
     <use style="fill:#ff7f0e;stroke:#ff7f0e;" x="1098.571313" xlink:href="#m33d78ab4ac" y="78.188478"/>
     <use style="fill:#ff7f0e;stroke:#ff7f0e;" x="1114.0618" xlink:href="#m33d78ab4ac" y="78.188478"/>
     <use style="fill:#ff7f0e;stroke:#ff7f0e;" x="1127.339361" xlink:href="#m33d78ab4ac" y="69.28877"/>
     <use style="fill:#ff7f0e;stroke:#ff7f0e;" x="1138.403995" xlink:href="#m33d78ab4ac" y="78.188478"/>
     <use style="fill:#ff7f0e;stroke:#ff7f0e;" x="1149.468629" xlink:href="#m33d78ab4ac" y="78.188478"/>
     <use style="fill:#ff7f0e;stroke:#ff7f0e;" x="1164.959117" xlink:href="#m33d78ab4ac" y="870.262474"/>
     <use style="fill:#ff7f0e;stroke:#ff7f0e;" x="1176.023751" xlink:href="#m33d78ab4ac" y="78.188478"/>
     <use style="fill:#ff7f0e;stroke:#ff7f0e;" x="1187.088385" xlink:href="#m33d78ab4ac" y="950.359845"/>
     <use style="fill:#ff7f0e;stroke:#ff7f0e;" x="1198.153019" xlink:href="#m33d78ab4ac" y="763.46598"/>
     <use style="fill:#ff7f0e;stroke:#ff7f0e;" x="1209.217653" xlink:href="#m33d78ab4ac" y="78.188478"/>
     <use style="fill:#ff7f0e;stroke:#ff7f0e;" x="1222.495213" xlink:href="#m33d78ab4ac" y="825.763935"/>
     <use style="fill:#ff7f0e;stroke:#ff7f0e;" x="1233.559847" xlink:href="#m33d78ab4ac" y="131.586725"/>
     <use style="fill:#ff7f0e;stroke:#ff7f0e;" x="1249.050335" xlink:href="#m33d78ab4ac" y="825.763935"/>
     <use style="fill:#ff7f0e;stroke:#ff7f0e;" x="1260.114969" xlink:href="#m33d78ab4ac" y="122.687017"/>
     <use style="fill:#ff7f0e;stroke:#ff7f0e;" x="1275.605456" xlink:href="#m33d78ab4ac" y="950.359845"/>
     <use style="fill:#ff7f0e;stroke:#ff7f0e;" x="1286.67009" xlink:href="#m33d78ab4ac" y="78.188478"/>
     <use style="fill:#ff7f0e;stroke:#ff7f0e;" x="1302.160578" xlink:href="#m33d78ab4ac" y="78.188478"/>
     <use style="fill:#ff7f0e;stroke:#ff7f0e;" x="1315.438139" xlink:href="#m33d78ab4ac" y="950.359845"/>
     <use style="fill:#ff7f0e;stroke:#ff7f0e;" x="1326.502773" xlink:href="#m33d78ab4ac" y="78.188478"/>
     <use style="fill:#ff7f0e;stroke:#ff7f0e;" x="1337.567407" xlink:href="#m33d78ab4ac" y="78.188478"/>
     <use style="fill:#ff7f0e;stroke:#ff7f0e;" x="1350.844968" xlink:href="#m33d78ab4ac" y="950.359845"/>
     <use style="fill:#ff7f0e;stroke:#ff7f0e;" x="1361.909601" xlink:href="#m33d78ab4ac" y="78.188478"/>
     <use style="fill:#ff7f0e;stroke:#ff7f0e;" x="1392.890577" xlink:href="#m33d78ab4ac" y="184.984972"/>
     <use style="fill:#ff7f0e;stroke:#ff7f0e;" x="1401.742284" xlink:href="#m33d78ab4ac" y="950.359845"/>
     <use style="fill:#ff7f0e;stroke:#ff7f0e;" x="1412.806918" xlink:href="#m33d78ab4ac" y="629.970363"/>
     <use style="fill:#ff7f0e;stroke:#ff7f0e;" x="1428.297405" xlink:href="#m33d78ab4ac" y="78.188478"/>
     <use style="fill:#ff7f0e;stroke:#ff7f0e;" x="1443.787893" xlink:href="#m33d78ab4ac" y="78.188478"/>
     <use style="fill:#ff7f0e;stroke:#ff7f0e;" x="1461.491307" xlink:href="#m33d78ab4ac" y="78.188478"/>
     <use style="fill:#ff7f0e;stroke:#ff7f0e;" x="1476.981795" xlink:href="#m33d78ab4ac" y="78.188478"/>
     <use style="fill:#ff7f0e;stroke:#ff7f0e;" x="1488.046429" xlink:href="#m33d78ab4ac" y="905.861306"/>
     <use style="fill:#ff7f0e;stroke:#ff7f0e;" x="1499.111063" xlink:href="#m33d78ab4ac" y="950.359845"/>
     <use style="fill:#ff7f0e;stroke:#ff7f0e;" x="1510.175697" xlink:href="#m33d78ab4ac" y="425.277083"/>
     <use style="fill:#ff7f0e;stroke:#ff7f0e;" x="1523.453258" xlink:href="#m33d78ab4ac" y="78.188478"/>
     <use style="fill:#ff7f0e;stroke:#ff7f0e;" x="1536.730818" xlink:href="#m33d78ab4ac" y="576.572116"/>
     <use style="fill:#ff7f0e;stroke:#ff7f0e;" x="1550.008379" xlink:href="#m33d78ab4ac" y="78.188478"/>
     <use style="fill:#ff7f0e;stroke:#ff7f0e;" x="1563.28594" xlink:href="#m33d78ab4ac" y="532.073577"/>
     <use style="fill:#ff7f0e;stroke:#ff7f0e;" x="1563.28594" xlink:href="#m33d78ab4ac" y="532.073577"/>
     <use style="fill:#ff7f0e;stroke:#ff7f0e;" x="1574.350574" xlink:href="#m33d78ab4ac" y="78.188478"/>
     <use style="fill:#ff7f0e;stroke:#ff7f0e;" x="1587.628135" xlink:href="#m33d78ab4ac" y="78.188478"/>
     <use style="fill:#ff7f0e;stroke:#ff7f0e;" x="1603.118622" xlink:href="#m33d78ab4ac" y="888.06189"/>
     <use style="fill:#ff7f0e;stroke:#ff7f0e;" x="1614.183256" xlink:href="#m33d78ab4ac" y="104.887602"/>
     <use style="fill:#ff7f0e;stroke:#ff7f0e;" x="1627.460817" xlink:href="#m33d78ab4ac" y="950.359845"/>
     <use style="fill:#ff7f0e;stroke:#ff7f0e;" x="1638.525451" xlink:href="#m33d78ab4ac" y="78.188478"/>
     <use style="fill:#ff7f0e;stroke:#ff7f0e;" x="1649.590085" xlink:href="#m33d78ab4ac" y="950.359845"/>
     <use style="fill:#ff7f0e;stroke:#ff7f0e;" x="1660.654719" xlink:href="#m33d78ab4ac" y="78.188478"/>
     <use style="fill:#ff7f0e;stroke:#ff7f0e;" x="1676.145206" xlink:href="#m33d78ab4ac" y="950.359845"/>
     <use style="fill:#ff7f0e;stroke:#ff7f0e;" x="1687.20984" xlink:href="#m33d78ab4ac" y="78.188478"/>
     <use style="fill:#ff7f0e;stroke:#ff7f0e;" x="1700.487401" xlink:href="#m33d78ab4ac" y="78.188478"/>
     <use style="fill:#ff7f0e;stroke:#ff7f0e;" x="1713.764962" xlink:href="#m33d78ab4ac" y="950.359845"/>
     <use style="fill:#ff7f0e;stroke:#ff7f0e;" x="1724.829596" xlink:href="#m33d78ab4ac" y="78.188478"/>
     <use style="fill:#ff7f0e;stroke:#ff7f0e;" x="1753.597644" xlink:href="#m33d78ab4ac" y="87.088186"/>
     <use style="fill:#ff7f0e;stroke:#ff7f0e;" x="1766.875205" xlink:href="#m33d78ab4ac" y="78.188478"/>
     <use style="fill:#ff7f0e;stroke:#ff7f0e;" x="1780.152766" xlink:href="#m33d78ab4ac" y="78.188478"/>
     <use style="fill:#ff7f0e;stroke:#ff7f0e;" x="1793.430327" xlink:href="#m33d78ab4ac" y="950.359845"/>
     <use style="fill:#ff7f0e;stroke:#ff7f0e;" x="1802.282034" xlink:href="#m33d78ab4ac" y="718.967441"/>
     <use style="fill:#ff7f0e;stroke:#ff7f0e;" x="1815.559594" xlink:href="#m33d78ab4ac" y="701.168026"/>
     <use style="fill:#ff7f0e;stroke:#ff7f0e;" x="1826.624228" xlink:href="#m33d78ab4ac" y="122.687017"/>
     <use style="fill:#ff7f0e;stroke:#ff7f0e;" x="1839.901789" xlink:href="#m33d78ab4ac" y="104.887602"/>
     <use style="fill:#ff7f0e;stroke:#ff7f0e;" x="1855.392277" xlink:href="#m33d78ab4ac" y="843.563351"/>
     <use style="fill:#ff7f0e;stroke:#ff7f0e;" x="1866.456911" xlink:href="#m33d78ab4ac" y="193.88468"/>
     <use style="fill:#ff7f0e;stroke:#ff7f0e;" x="1875.308618" xlink:href="#m33d78ab4ac" y="932.560429"/>
     <use style="fill:#ff7f0e;stroke:#ff7f0e;" x="1886.373252" xlink:href="#m33d78ab4ac" y="87.088186"/>
     <use style="fill:#ff7f0e;stroke:#ff7f0e;" x="1901.863739" xlink:href="#m33d78ab4ac" y="69.28877"/>
     <use style="fill:#ff7f0e;stroke:#ff7f0e;" x="1912.928373" xlink:href="#m33d78ab4ac" y="905.861306"/>
     <use style="fill:#ff7f0e;stroke:#ff7f0e;" x="1937.270568" xlink:href="#m33d78ab4ac" y="78.188478"/>
    </g>
   </g>
   <g id="line2d_13">
    <path clip-path="url(#pd88f8e5013)" d="M 433.91875 442.034191 
L 2008.85875 442.034191 
" style="fill:none;stroke:#ffa500;stroke-dasharray:29.6,12.8;stroke-dashoffset:0;stroke-width:8;"/>
   </g>
   <g id="line2d_14">
    <path clip-path="url(#pd88f8e5013)" d="M 433.91875 675.278695 
L 2008.85875 675.278695 
" style="fill:none;stroke:#0000ff;stroke-dasharray:29.6,12.8;stroke-dashoffset:0;stroke-width:8;"/>
   </g>
   <g id="patch_3">
    <path d="M 433.91875 994.413398 
L 433.91875 25.235217 
" style="fill:none;stroke:#000000;stroke-linecap:square;stroke-linejoin:miter;stroke-width:0.8;"/>
   </g>
   <g id="patch_4">
    <path d="M 2008.85875 994.413398 
L 2008.85875 25.235217 
" style="fill:none;stroke:#000000;stroke-linecap:square;stroke-linejoin:miter;stroke-width:0.8;"/>
   </g>
   <g id="patch_5">
    <path d="M 433.91875 994.413398 
L 2008.85875 994.413398 
" style="fill:none;stroke:#000000;stroke-linecap:square;stroke-linejoin:miter;stroke-width:0.8;"/>
   </g>
   <g id="patch_6">
    <path d="M 433.91875 25.235217 
L 2008.85875 25.235217 
" style="fill:none;stroke:#000000;stroke-linecap:square;stroke-linejoin:miter;stroke-width:0.8;"/>
   </g>
   <g id="legend_1">
    <g id="patch_7">
     <path d="M 496.4075 548.222717 
L 1946.37 548.222717 
Q 1974.37 548.222717 1974.37 520.222717 
L 1974.37 123.235217 
Q 1974.37 95.235217 1946.37 95.235217 
L 496.4075 95.235217 
Q 468.4075 95.235217 468.4075 123.235217 
L 468.4075 520.222717 
Q 468.4075 548.222717 496.4075 548.222717 
z
" style="fill:#ffffff;opacity:0.7;stroke:#cccccc;stroke-linejoin:miter;"/>
    </g>
    <g id="line2d_15">
     <path d="M 524.4075 208.613342 
L 804.4075 208.613342 
" style="fill:none;stroke:#ffa500;stroke-dasharray:29.6,12.8;stroke-dashoffset:0;stroke-width:8;"/>
    </g>
    <g id="line2d_16"/>
    <g id="text_9">
     <!-- Avg GPU: 57% -->
     <g transform="translate(916.4075 257.613342)scale(1.4 -1.4)">
      <defs>
       <path d="M 34.1875 63.1875 
L 20.796875 26.90625 
L 47.609375 26.90625 
z
M 28.609375 72.90625 
L 39.796875 72.90625 
L 67.578125 0 
L 57.328125 0 
L 50.6875 18.703125 
L 17.828125 18.703125 
L 11.1875 0 
L 0.78125 0 
z
" id="DejaVuSans-65"/>
       <path d="M 2.984375 54.6875 
L 12.5 54.6875 
L 29.59375 8.796875 
L 46.6875 54.6875 
L 56.203125 54.6875 
L 35.6875 0 
L 23.484375 0 
z
" id="DejaVuSans-118"/>
       <path d="M 59.515625 10.40625 
L 59.515625 29.984375 
L 43.40625 29.984375 
L 43.40625 38.09375 
L 69.28125 38.09375 
L 69.28125 6.78125 
Q 63.578125 2.734375 56.6875 0.65625 
Q 49.8125 -1.421875 42 -1.421875 
Q 24.90625 -1.421875 15.25 8.5625 
Q 5.609375 18.5625 5.609375 36.375 
Q 5.609375 54.25 15.25 64.234375 
Q 24.90625 74.21875 42 74.21875 
Q 49.125 74.21875 55.546875 72.453125 
Q 61.96875 70.703125 67.390625 67.28125 
L 67.390625 56.78125 
Q 61.921875 61.421875 55.765625 63.765625 
Q 49.609375 66.109375 42.828125 66.109375 
Q 29.4375 66.109375 22.71875 58.640625 
Q 16.015625 51.171875 16.015625 36.375 
Q 16.015625 21.625 22.71875 14.15625 
Q 29.4375 6.6875 42.828125 6.6875 
Q 48.046875 6.6875 52.140625 7.59375 
Q 56.25 8.5 59.515625 10.40625 
z
" id="DejaVuSans-71"/>
       <path d="M 19.671875 64.796875 
L 19.671875 37.40625 
L 32.078125 37.40625 
Q 38.96875 37.40625 42.71875 40.96875 
Q 46.484375 44.53125 46.484375 51.125 
Q 46.484375 57.671875 42.71875 61.234375 
Q 38.96875 64.796875 32.078125 64.796875 
z
M 9.8125 72.90625 
L 32.078125 72.90625 
Q 44.34375 72.90625 50.609375 67.359375 
Q 56.890625 61.8125 56.890625 51.125 
Q 56.890625 40.328125 50.609375 34.8125 
Q 44.34375 29.296875 32.078125 29.296875 
L 19.671875 29.296875 
L 19.671875 0 
L 9.8125 0 
z
" id="DejaVuSans-80"/>
       <path d="M 11.71875 12.40625 
L 22.015625 12.40625 
L 22.015625 0 
L 11.71875 0 
z
M 11.71875 51.703125 
L 22.015625 51.703125 
L 22.015625 39.3125 
L 11.71875 39.3125 
z
" id="DejaVuSans-58"/>
       <path d="M 8.203125 72.90625 
L 55.078125 72.90625 
L 55.078125 68.703125 
L 28.609375 0 
L 18.3125 0 
L 43.21875 64.59375 
L 8.203125 64.59375 
z
" id="DejaVuSans-55"/>
      </defs>
      <use xlink:href="#DejaVuSans-65"/>
      <use x="62.533203" xlink:href="#DejaVuSans-118"/>
      <use x="121.712891" xlink:href="#DejaVuSans-103"/>
      <use x="185.189453" xlink:href="#DejaVuSans-32"/>
      <use x="216.976562" xlink:href="#DejaVuSans-71"/>
      <use x="294.466797" xlink:href="#DejaVuSans-80"/>
      <use x="354.769531" xlink:href="#DejaVuSans-85"/>
      <use x="427.962891" xlink:href="#DejaVuSans-58"/>
      <use x="461.654297" xlink:href="#DejaVuSans-32"/>
      <use x="493.441406" xlink:href="#DejaVuSans-53"/>
      <use x="557.064453" xlink:href="#DejaVuSans-55"/>
      <use x="620.6875" xlink:href="#DejaVuSans-37"/>
     </g>
    </g>
    <g id="line2d_17">
     <path d="M 524.4075 414.107092 
L 804.4075 414.107092 
" style="fill:none;stroke:#0000ff;stroke-dasharray:29.6,12.8;stroke-dashoffset:0;stroke-width:8;"/>
    </g>
    <g id="line2d_18"/>
    <g id="text_10">
     <!-- Avg CPU: 30% -->
     <g transform="translate(916.4075 463.107092)scale(1.4 -1.4)">
      <defs>
       <path d="M 64.40625 67.28125 
L 64.40625 56.890625 
Q 59.421875 61.53125 53.78125 63.8125 
Q 48.140625 66.109375 41.796875 66.109375 
Q 29.296875 66.109375 22.65625 58.46875 
Q 16.015625 50.828125 16.015625 36.375 
Q 16.015625 21.96875 22.65625 14.328125 
Q 29.296875 6.6875 41.796875 6.6875 
Q 48.140625 6.6875 53.78125 8.984375 
Q 59.421875 11.28125 64.40625 15.921875 
L 64.40625 5.609375 
Q 59.234375 2.09375 53.4375 0.328125 
Q 47.65625 -1.421875 41.21875 -1.421875 
Q 24.65625 -1.421875 15.125 8.703125 
Q 5.609375 18.84375 5.609375 36.375 
Q 5.609375 53.953125 15.125 64.078125 
Q 24.65625 74.21875 41.21875 74.21875 
Q 47.75 74.21875 53.53125 72.484375 
Q 59.328125 70.75 64.40625 67.28125 
z
" id="DejaVuSans-67"/>
       <path d="M 40.578125 39.3125 
Q 47.65625 37.796875 51.625 33 
Q 55.609375 28.21875 55.609375 21.1875 
Q 55.609375 10.40625 48.1875 4.484375 
Q 40.765625 -1.421875 27.09375 -1.421875 
Q 22.515625 -1.421875 17.65625 -0.515625 
Q 12.796875 0.390625 7.625 2.203125 
L 7.625 11.71875 
Q 11.71875 9.328125 16.59375 8.109375 
Q 21.484375 6.890625 26.8125 6.890625 
Q 36.078125 6.890625 40.9375 10.546875 
Q 45.796875 14.203125 45.796875 21.1875 
Q 45.796875 27.640625 41.28125 31.265625 
Q 36.765625 34.90625 28.71875 34.90625 
L 20.21875 34.90625 
L 20.21875 43.015625 
L 29.109375 43.015625 
Q 36.375 43.015625 40.234375 45.921875 
Q 44.09375 48.828125 44.09375 54.296875 
Q 44.09375 59.90625 40.109375 62.90625 
Q 36.140625 65.921875 28.71875 65.921875 
Q 24.65625 65.921875 20.015625 65.03125 
Q 15.375 64.15625 9.8125 62.3125 
L 9.8125 71.09375 
Q 15.4375 72.65625 20.34375 73.4375 
Q 25.25 74.21875 29.59375 74.21875 
Q 40.828125 74.21875 47.359375 69.109375 
Q 53.90625 64.015625 53.90625 55.328125 
Q 53.90625 49.265625 50.4375 45.09375 
Q 46.96875 40.921875 40.578125 39.3125 
z
" id="DejaVuSans-51"/>
      </defs>
      <use xlink:href="#DejaVuSans-65"/>
      <use x="62.533203" xlink:href="#DejaVuSans-118"/>
      <use x="121.712891" xlink:href="#DejaVuSans-103"/>
      <use x="185.189453" xlink:href="#DejaVuSans-32"/>
      <use x="216.976562" xlink:href="#DejaVuSans-67"/>
      <use x="286.800781" xlink:href="#DejaVuSans-80"/>
      <use x="347.103516" xlink:href="#DejaVuSans-85"/>
      <use x="420.296875" xlink:href="#DejaVuSans-58"/>
      <use x="453.988281" xlink:href="#DejaVuSans-32"/>
      <use x="485.775391" xlink:href="#DejaVuSans-51"/>
      <use x="549.398438" xlink:href="#DejaVuSans-48"/>
      <use x="613.021484" xlink:href="#DejaVuSans-37"/>
     </g>
    </g>
   </g>
  </g>
 </g>
 <defs>
  <clipPath id="pd88f8e5013">
   <rect height="969.178182" width="1574.94" x="433.91875" y="25.235217"/>
  </clipPath>
 </defs>
</svg>
