<?xml version="1.0" encoding="utf-8" standalone="no"?>
<!DOCTYPE svg PUBLIC "-//W3C//DTD SVG 1.1//EN"
  "http://www.w3.org/Graphics/SVG/1.1/DTD/svg11.dtd">
<!-- Created with matplotlib (https://matplotlib.org/) -->
<svg height="1164.394744pt" version="1.1" viewBox="0 0 2016.05875 1164.394744" width="2016.05875pt" xmlns="http://www.w3.org/2000/svg" xmlns:xlink="http://www.w3.org/1999/xlink">
 <metadata>
  <rdf:RDF xmlns:cc="http://creativecommons.org/ns#" xmlns:dc="http://purl.org/dc/elements/1.1/" xmlns:rdf="http://www.w3.org/1999/02/22-rdf-syntax-ns#">
   <cc:Work>
    <dc:type rdf:resource="http://purl.org/dc/dcmitype/StillImage"/>
    <dc:date>2025-05-13T23:33:53.781418</dc:date>
    <dc:format>image/svg+xml</dc:format>
    <dc:creator>
     <cc:Agent>
      <dc:title>Matplotlib v3.3.2, https://matplotlib.org/</dc:title>
     </cc:Agent>
    </dc:creator>
   </cc:Work>
  </rdf:RDF>
 </metadata>
 <defs>
  <style type="text/css">*{stroke-linecap:butt;stroke-linejoin:round;}</style>
 </defs>
 <g id="figure_1">
  <g id="patch_1">
   <path d="M 0 1164.394744 
L 2016.05875 1164.394744 
L 2016.05875 0 
L 0 0 
z
" style="fill:#ffffff;"/>
  </g>
  <g id="axes_1">
   <g id="patch_2">
    <path d="M 433.91875 862.207244 
L 2008.85875 862.207244 
L 2008.85875 22.207244 
L 433.91875 22.207244 
z
" style="fill:#ffffff;"/>
   </g>
   <g id="matplotlib.axis_1">
    <g id="xtick_1">
     <g id="line2d_1">
      <defs>
       <path d="M 0 5 
L 0 -5 
" id="mb18c2ef18e" style="stroke:#000000;stroke-width:3;"/>
      </defs>
      <g>
       <use style="stroke:#000000;stroke-width:3;" x="505.506932" xlink:href="#mb18c2ef18e" y="862.207244"/>
      </g>
     </g>
     <g id="text_1">
      <!-- 0 -->
      <g transform="translate(460.969432 988.585369)scale(1.4 -1.4)">
       <defs>
        <path d="M 31.78125 66.40625 
Q 24.171875 66.40625 20.328125 58.90625 
Q 16.5 51.421875 16.5 36.375 
Q 16.5 21.390625 20.328125 13.890625 
Q 24.171875 6.390625 31.78125 6.390625 
Q 39.453125 6.390625 43.28125 13.890625 
Q 47.125 21.390625 47.125 36.375 
Q 47.125 51.421875 43.28125 58.90625 
Q 39.453125 66.40625 31.78125 66.40625 
z
M 31.78125 74.21875 
Q 44.046875 74.21875 50.515625 64.515625 
Q 56.984375 54.828125 56.984375 36.375 
Q 56.984375 17.96875 50.515625 8.265625 
Q 44.046875 -1.421875 31.78125 -1.421875 
Q 19.53125 -1.421875 13.0625 8.265625 
Q 6.59375 17.96875 6.59375 36.375 
Q 6.59375 54.828125 13.0625 64.515625 
Q 19.53125 74.21875 31.78125 74.21875 
z
" id="DejaVuSans-48"/>
       </defs>
       <use xlink:href="#DejaVuSans-48"/>
      </g>
     </g>
    </g>
    <g id="xtick_2">
     <g id="line2d_2">
      <g>
       <use style="stroke:#000000;stroke-width:3;" x="943.355139" xlink:href="#mb18c2ef18e" y="862.207244"/>
      </g>
     </g>
     <g id="text_2">
      <!-- 100 -->
      <g transform="translate(809.742639 988.585369)scale(1.4 -1.4)">
       <defs>
        <path d="M 12.40625 8.296875 
L 28.515625 8.296875 
L 28.515625 63.921875 
L 10.984375 60.40625 
L 10.984375 69.390625 
L 28.421875 72.90625 
L 38.28125 72.90625 
L 38.28125 8.296875 
L 54.390625 8.296875 
L 54.390625 0 
L 12.40625 0 
z
" id="DejaVuSans-49"/>
       </defs>
       <use xlink:href="#DejaVuSans-49"/>
       <use x="63.623047" xlink:href="#DejaVuSans-48"/>
       <use x="127.246094" xlink:href="#DejaVuSans-48"/>
      </g>
     </g>
    </g>
    <g id="xtick_3">
     <g id="line2d_3">
      <g>
       <use style="stroke:#000000;stroke-width:3;" x="1381.203345" xlink:href="#mb18c2ef18e" y="862.207244"/>
      </g>
     </g>
     <g id="text_3">
      <!-- 200 -->
      <g transform="translate(1247.590845 988.585369)scale(1.4 -1.4)">
       <defs>
        <path d="M 19.1875 8.296875 
L 53.609375 8.296875 
L 53.609375 0 
L 7.328125 0 
L 7.328125 8.296875 
Q 12.9375 14.109375 22.625 23.890625 
Q 32.328125 33.6875 34.8125 36.53125 
Q 39.546875 41.84375 41.421875 45.53125 
Q 43.3125 49.21875 43.3125 52.78125 
Q 43.3125 58.59375 39.234375 62.25 
Q 35.15625 65.921875 28.609375 65.921875 
Q 23.96875 65.921875 18.8125 64.3125 
Q 13.671875 62.703125 7.8125 59.421875 
L 7.8125 69.390625 
Q 13.765625 71.78125 18.9375 73 
Q 24.125 74.21875 28.421875 74.21875 
Q 39.75 74.21875 46.484375 68.546875 
Q 53.21875 62.890625 53.21875 53.421875 
Q 53.21875 48.921875 51.53125 44.890625 
Q 49.859375 40.875 45.40625 35.40625 
Q 44.1875 33.984375 37.640625 27.21875 
Q 31.109375 20.453125 19.1875 8.296875 
z
" id="DejaVuSans-50"/>
       </defs>
       <use xlink:href="#DejaVuSans-50"/>
       <use x="63.623047" xlink:href="#DejaVuSans-48"/>
       <use x="127.246094" xlink:href="#DejaVuSans-48"/>
      </g>
     </g>
    </g>
    <g id="xtick_4">
     <g id="line2d_4">
      <g>
       <use style="stroke:#000000;stroke-width:3;" x="1819.051552" xlink:href="#mb18c2ef18e" y="862.207244"/>
      </g>
     </g>
     <g id="text_4">
      <!-- 300 -->
      <g transform="translate(1685.439052 988.585369)scale(1.4 -1.4)">
       <defs>
        <path d="M 40.578125 39.3125 
Q 47.65625 37.796875 51.625 33 
Q 55.609375 28.21875 55.609375 21.1875 
Q 55.609375 10.40625 48.1875 4.484375 
Q 40.765625 -1.421875 27.09375 -1.421875 
Q 22.515625 -1.421875 17.65625 -0.515625 
Q 12.796875 0.390625 7.625 2.203125 
L 7.625 11.71875 
Q 11.71875 9.328125 16.59375 8.109375 
Q 21.484375 6.890625 26.8125 6.890625 
Q 36.078125 6.890625 40.9375 10.546875 
Q 45.796875 14.203125 45.796875 21.1875 
Q 45.796875 27.640625 41.28125 31.265625 
Q 36.765625 34.90625 28.71875 34.90625 
L 20.21875 34.90625 
L 20.21875 43.015625 
L 29.109375 43.015625 
Q 36.375 43.015625 40.234375 45.921875 
Q 44.09375 48.828125 44.09375 54.296875 
Q 44.09375 59.90625 40.109375 62.90625 
Q 36.140625 65.921875 28.71875 65.921875 
Q 24.65625 65.921875 20.015625 65.03125 
Q 15.375 64.15625 9.8125 62.3125 
L 9.8125 71.09375 
Q 15.4375 72.65625 20.34375 73.4375 
Q 25.25 74.21875 29.59375 74.21875 
Q 40.828125 74.21875 47.359375 69.109375 
Q 53.90625 64.015625 53.90625 55.328125 
Q 53.90625 49.265625 50.4375 45.09375 
Q 46.96875 40.921875 40.578125 39.3125 
z
" id="DejaVuSans-51"/>
       </defs>
       <use xlink:href="#DejaVuSans-51"/>
       <use x="63.623047" xlink:href="#DejaVuSans-48"/>
       <use x="127.246094" xlink:href="#DejaVuSans-48"/>
      </g>
     </g>
    </g>
    <g id="text_5">
     <!-- Time (s) -->
     <g transform="translate(936.784062 1128.079119)scale(1.4 -1.4)">
      <defs>
       <path d="M -0.296875 72.90625 
L 61.375 72.90625 
L 61.375 64.59375 
L 35.5 64.59375 
L 35.5 0 
L 25.59375 0 
L 25.59375 64.59375 
L -0.296875 64.59375 
z
" id="DejaVuSans-84"/>
       <path d="M 9.421875 54.6875 
L 18.40625 54.6875 
L 18.40625 0 
L 9.421875 0 
z
M 9.421875 75.984375 
L 18.40625 75.984375 
L 18.40625 64.59375 
L 9.421875 64.59375 
z
" id="DejaVuSans-105"/>
       <path d="M 52 44.1875 
Q 55.375 50.25 60.0625 53.125 
Q 64.75 56 71.09375 56 
Q 79.640625 56 84.28125 50.015625 
Q 88.921875 44.046875 88.921875 33.015625 
L 88.921875 0 
L 79.890625 0 
L 79.890625 32.71875 
Q 79.890625 40.578125 77.09375 44.375 
Q 74.3125 48.1875 68.609375 48.1875 
Q 61.625 48.1875 57.5625 43.546875 
Q 53.515625 38.921875 53.515625 30.90625 
L 53.515625 0 
L 44.484375 0 
L 44.484375 32.71875 
Q 44.484375 40.625 41.703125 44.40625 
Q 38.921875 48.1875 33.109375 48.1875 
Q 26.21875 48.1875 22.15625 43.53125 
Q 18.109375 38.875 18.109375 30.90625 
L 18.109375 0 
L 9.078125 0 
L 9.078125 54.6875 
L 18.109375 54.6875 
L 18.109375 46.1875 
Q 21.1875 51.21875 25.484375 53.609375 
Q 29.78125 56 35.6875 56 
Q 41.65625 56 45.828125 52.96875 
Q 50 49.953125 52 44.1875 
z
" id="DejaVuSans-109"/>
       <path d="M 56.203125 29.59375 
L 56.203125 25.203125 
L 14.890625 25.203125 
Q 15.484375 15.921875 20.484375 11.0625 
Q 25.484375 6.203125 34.421875 6.203125 
Q 39.59375 6.203125 44.453125 7.46875 
Q 49.3125 8.734375 54.109375 11.28125 
L 54.109375 2.78125 
Q 49.265625 0.734375 44.1875 -0.34375 
Q 39.109375 -1.421875 33.890625 -1.421875 
Q 20.796875 -1.421875 13.15625 6.1875 
Q 5.515625 13.8125 5.515625 26.8125 
Q 5.515625 40.234375 12.765625 48.109375 
Q 20.015625 56 32.328125 56 
Q 43.359375 56 49.78125 48.890625 
Q 56.203125 41.796875 56.203125 29.59375 
z
M 47.21875 32.234375 
Q 47.125 39.59375 43.09375 43.984375 
Q 39.0625 48.390625 32.421875 48.390625 
Q 24.90625 48.390625 20.390625 44.140625 
Q 15.875 39.890625 15.1875 32.171875 
z
" id="DejaVuSans-101"/>
       <path id="DejaVuSans-32"/>
       <path d="M 31 75.875 
Q 24.46875 64.65625 21.28125 53.65625 
Q 18.109375 42.671875 18.109375 31.390625 
Q 18.109375 20.125 21.3125 9.0625 
Q 24.515625 -2 31 -13.1875 
L 23.1875 -13.1875 
Q 15.875 -1.703125 12.234375 9.375 
Q 8.59375 20.453125 8.59375 31.390625 
Q 8.59375 42.28125 12.203125 53.3125 
Q 15.828125 64.359375 23.1875 75.875 
z
" id="DejaVuSans-40"/>
       <path d="M 44.28125 53.078125 
L 44.28125 44.578125 
Q 40.484375 46.53125 36.375 47.5 
Q 32.28125 48.484375 27.875 48.484375 
Q 21.1875 48.484375 17.84375 46.4375 
Q 14.5 44.390625 14.5 40.28125 
Q 14.5 37.15625 16.890625 35.375 
Q 19.28125 33.59375 26.515625 31.984375 
L 29.59375 31.296875 
Q 39.15625 29.25 43.1875 25.515625 
Q 47.21875 21.78125 47.21875 15.09375 
Q 47.21875 7.46875 41.1875 3.015625 
Q 35.15625 -1.421875 24.609375 -1.421875 
Q 20.21875 -1.421875 15.453125 -0.5625 
Q 10.6875 0.296875 5.421875 2 
L 5.421875 11.28125 
Q 10.40625 8.6875 15.234375 7.390625 
Q 20.0625 6.109375 24.8125 6.109375 
Q 31.15625 6.109375 34.5625 8.28125 
Q 37.984375 10.453125 37.984375 14.40625 
Q 37.984375 18.0625 35.515625 20.015625 
Q 33.0625 21.96875 24.703125 23.78125 
L 21.578125 24.515625 
Q 13.234375 26.265625 9.515625 29.90625 
Q 5.8125 33.546875 5.8125 39.890625 
Q 5.8125 47.609375 11.28125 51.796875 
Q 16.75 56 26.8125 56 
Q 31.78125 56 36.171875 55.265625 
Q 40.578125 54.546875 44.28125 53.078125 
z
" id="DejaVuSans-115"/>
       <path d="M 8.015625 75.875 
L 15.828125 75.875 
Q 23.140625 64.359375 26.78125 53.3125 
Q 30.421875 42.28125 30.421875 31.390625 
Q 30.421875 20.453125 26.78125 9.375 
Q 23.140625 -1.703125 15.828125 -13.1875 
L 8.015625 -13.1875 
Q 14.5 -2 17.703125 9.0625 
Q 20.90625 20.125 20.90625 31.390625 
Q 20.90625 42.671875 17.703125 53.65625 
Q 14.5 64.65625 8.015625 75.875 
z
" id="DejaVuSans-41"/>
      </defs>
      <use xlink:href="#DejaVuSans-84"/>
      <use x="57.958984" xlink:href="#DejaVuSans-105"/>
      <use x="85.742188" xlink:href="#DejaVuSans-109"/>
      <use x="183.154297" xlink:href="#DejaVuSans-101"/>
      <use x="244.677734" xlink:href="#DejaVuSans-32"/>
      <use x="276.464844" xlink:href="#DejaVuSans-40"/>
      <use x="315.478516" xlink:href="#DejaVuSans-115"/>
      <use x="367.578125" xlink:href="#DejaVuSans-41"/>
     </g>
    </g>
   </g>
   <g id="matplotlib.axis_2">
    <g id="ytick_1">
     <g id="line2d_5">
      <path clip-path="url(#p0876b61ca5)" d="M 433.91875 824.025426 
L 2008.85875 824.025426 
" style="fill:none;stroke:#b0b0b0;stroke-linecap:square;stroke-width:0.8;"/>
     </g>
     <g id="line2d_6">
      <defs>
       <path d="M 5 0 
L -5 -0 
" id="m710d69e601" style="stroke:#000000;stroke-width:3;"/>
      </defs>
      <g>
       <use style="stroke:#000000;stroke-width:3;" x="433.91875" xlink:href="#m710d69e601" y="824.025426"/>
      </g>
     </g>
     <g id="text_6">
      <!-- 0 -->
      <g transform="translate(324.84375 877.214489)scale(1.4 -1.4)">
       <use xlink:href="#DejaVuSans-48"/>
      </g>
     </g>
    </g>
    <g id="ytick_2">
     <g id="line2d_7">
      <path clip-path="url(#p0876b61ca5)" d="M 433.91875 442.207244 
L 2008.85875 442.207244 
" style="fill:none;stroke:#b0b0b0;stroke-linecap:square;stroke-width:0.8;"/>
     </g>
     <g id="line2d_8">
      <g>
       <use style="stroke:#000000;stroke-width:3;" x="433.91875" xlink:href="#m710d69e601" y="442.207244"/>
      </g>
     </g>
     <g id="text_7">
      <!-- 50 -->
      <g transform="translate(235.76875 495.396307)scale(1.4 -1.4)">
       <defs>
        <path d="M 10.796875 72.90625 
L 49.515625 72.90625 
L 49.515625 64.59375 
L 19.828125 64.59375 
L 19.828125 46.734375 
Q 21.96875 47.46875 24.109375 47.828125 
Q 26.265625 48.1875 28.421875 48.1875 
Q 40.625 48.1875 47.75 41.5 
Q 54.890625 34.8125 54.890625 23.390625 
Q 54.890625 11.625 47.5625 5.09375 
Q 40.234375 -1.421875 26.90625 -1.421875 
Q 22.3125 -1.421875 17.546875 -0.640625 
Q 12.796875 0.140625 7.71875 1.703125 
L 7.71875 11.625 
Q 12.109375 9.234375 16.796875 8.0625 
Q 21.484375 6.890625 26.703125 6.890625 
Q 35.15625 6.890625 40.078125 11.328125 
Q 45.015625 15.765625 45.015625 23.390625 
Q 45.015625 31 40.078125 35.4375 
Q 35.15625 39.890625 26.703125 39.890625 
Q 22.75 39.890625 18.8125 39.015625 
Q 14.890625 38.140625 10.796875 36.28125 
z
" id="DejaVuSans-53"/>
       </defs>
       <use xlink:href="#DejaVuSans-53"/>
       <use x="63.623047" xlink:href="#DejaVuSans-48"/>
      </g>
     </g>
    </g>
    <g id="ytick_3">
     <g id="line2d_9">
      <path clip-path="url(#p0876b61ca5)" d="M 433.91875 60.389063 
L 2008.85875 60.389063 
" style="fill:none;stroke:#b0b0b0;stroke-linecap:square;stroke-width:0.8;"/>
     </g>
     <g id="line2d_10">
      <g>
       <use style="stroke:#000000;stroke-width:3;" x="433.91875" xlink:href="#m710d69e601" y="60.389063"/>
      </g>
     </g>
     <g id="text_8">
      <!-- 100 -->
      <g transform="translate(146.69375 113.578125)scale(1.4 -1.4)">
       <use xlink:href="#DejaVuSans-49"/>
       <use x="63.623047" xlink:href="#DejaVuSans-48"/>
       <use x="127.246094" xlink:href="#DejaVuSans-48"/>
      </g>
     </g>
    </g>
    <g id="text_9">
     <!-- Usage (%) -->
     <g transform="translate(113.578125 803.691619)rotate(-90)scale(1.4 -1.4)">
      <defs>
       <path d="M 8.6875 72.90625 
L 18.609375 72.90625 
L 18.609375 28.609375 
Q 18.609375 16.890625 22.84375 11.734375 
Q 27.09375 6.59375 36.625 6.59375 
Q 46.09375 6.59375 50.34375 11.734375 
Q 54.59375 16.890625 54.59375 28.609375 
L 54.59375 72.90625 
L 64.5 72.90625 
L 64.5 27.390625 
Q 64.5 13.140625 57.4375 5.859375 
Q 50.390625 -1.421875 36.625 -1.421875 
Q 22.796875 -1.421875 15.734375 5.859375 
Q 8.6875 13.140625 8.6875 27.390625 
z
" id="DejaVuSans-85"/>
       <path d="M 34.28125 27.484375 
Q 23.390625 27.484375 19.1875 25 
Q 14.984375 22.515625 14.984375 16.5 
Q 14.984375 11.71875 18.140625 8.90625 
Q 21.296875 6.109375 26.703125 6.109375 
Q 34.1875 6.109375 38.703125 11.40625 
Q 43.21875 16.703125 43.21875 25.484375 
L 43.21875 27.484375 
z
M 52.203125 31.203125 
L 52.203125 0 
L 43.21875 0 
L 43.21875 8.296875 
Q 40.140625 3.328125 35.546875 0.953125 
Q 30.953125 -1.421875 24.3125 -1.421875 
Q 15.921875 -1.421875 10.953125 3.296875 
Q 6 8.015625 6 15.921875 
Q 6 25.140625 12.171875 29.828125 
Q 18.359375 34.515625 30.609375 34.515625 
L 43.21875 34.515625 
L 43.21875 35.40625 
Q 43.21875 41.609375 39.140625 45 
Q 35.0625 48.390625 27.6875 48.390625 
Q 23 48.390625 18.546875 47.265625 
Q 14.109375 46.140625 10.015625 43.890625 
L 10.015625 52.203125 
Q 14.9375 54.109375 19.578125 55.046875 
Q 24.21875 56 28.609375 56 
Q 40.484375 56 46.34375 49.84375 
Q 52.203125 43.703125 52.203125 31.203125 
z
" id="DejaVuSans-97"/>
       <path d="M 45.40625 27.984375 
Q 45.40625 37.75 41.375 43.109375 
Q 37.359375 48.484375 30.078125 48.484375 
Q 22.859375 48.484375 18.828125 43.109375 
Q 14.796875 37.75 14.796875 27.984375 
Q 14.796875 18.265625 18.828125 12.890625 
Q 22.859375 7.515625 30.078125 7.515625 
Q 37.359375 7.515625 41.375 12.890625 
Q 45.40625 18.265625 45.40625 27.984375 
z
M 54.390625 6.78125 
Q 54.390625 -7.171875 48.1875 -13.984375 
Q 42 -20.796875 29.203125 -20.796875 
Q 24.46875 -20.796875 20.265625 -20.09375 
Q 16.0625 -19.390625 12.109375 -17.921875 
L 12.109375 -9.1875 
Q 16.0625 -11.328125 19.921875 -12.34375 
Q 23.78125 -13.375 27.78125 -13.375 
Q 36.625 -13.375 41.015625 -8.765625 
Q 45.40625 -4.15625 45.40625 5.171875 
L 45.40625 9.625 
Q 42.625 4.78125 38.28125 2.390625 
Q 33.9375 0 27.875 0 
Q 17.828125 0 11.671875 7.65625 
Q 5.515625 15.328125 5.515625 27.984375 
Q 5.515625 40.671875 11.671875 48.328125 
Q 17.828125 56 27.875 56 
Q 33.9375 56 38.28125 53.609375 
Q 42.625 51.21875 45.40625 46.390625 
L 45.40625 54.6875 
L 54.390625 54.6875 
z
" id="DejaVuSans-103"/>
       <path d="M 72.703125 32.078125 
Q 68.453125 32.078125 66.03125 28.46875 
Q 63.625 24.859375 63.625 18.40625 
Q 63.625 12.0625 66.03125 8.421875 
Q 68.453125 4.78125 72.703125 4.78125 
Q 76.859375 4.78125 79.265625 8.421875 
Q 81.6875 12.0625 81.6875 18.40625 
Q 81.6875 24.8125 79.265625 28.4375 
Q 76.859375 32.078125 72.703125 32.078125 
z
M 72.703125 38.28125 
Q 80.421875 38.28125 84.953125 32.90625 
Q 89.5 27.546875 89.5 18.40625 
Q 89.5 9.28125 84.9375 3.921875 
Q 80.375 -1.421875 72.703125 -1.421875 
Q 64.890625 -1.421875 60.34375 3.921875 
Q 55.8125 9.28125 55.8125 18.40625 
Q 55.8125 27.59375 60.375 32.9375 
Q 64.9375 38.28125 72.703125 38.28125 
z
M 22.3125 68.015625 
Q 18.109375 68.015625 15.6875 64.375 
Q 13.28125 60.75 13.28125 54.390625 
Q 13.28125 47.953125 15.671875 44.328125 
Q 18.0625 40.71875 22.3125 40.71875 
Q 26.5625 40.71875 28.96875 44.328125 
Q 31.390625 47.953125 31.390625 54.390625 
Q 31.390625 60.6875 28.953125 64.34375 
Q 26.515625 68.015625 22.3125 68.015625 
z
M 66.40625 74.21875 
L 74.21875 74.21875 
L 28.609375 -1.421875 
L 20.796875 -1.421875 
z
M 22.3125 74.21875 
Q 30.03125 74.21875 34.609375 68.875 
Q 39.203125 63.53125 39.203125 54.390625 
Q 39.203125 45.171875 34.640625 39.84375 
Q 30.078125 34.515625 22.3125 34.515625 
Q 14.546875 34.515625 10.03125 39.859375 
Q 5.515625 45.21875 5.515625 54.390625 
Q 5.515625 63.484375 10.046875 68.84375 
Q 14.59375 74.21875 22.3125 74.21875 
z
" id="DejaVuSans-37"/>
      </defs>
      <use xlink:href="#DejaVuSans-85"/>
      <use x="73.193359" xlink:href="#DejaVuSans-115"/>
      <use x="125.292969" xlink:href="#DejaVuSans-97"/>
      <use x="186.572266" xlink:href="#DejaVuSans-103"/>
      <use x="250.048828" xlink:href="#DejaVuSans-101"/>
      <use x="311.572266" xlink:href="#DejaVuSans-32"/>
      <use x="343.359375" xlink:href="#DejaVuSans-40"/>
      <use x="382.373047" xlink:href="#DejaVuSans-37"/>
      <use x="477.392578" xlink:href="#DejaVuSans-41"/>
     </g>
    </g>
   </g>
   <g id="line2d_11">
    <path clip-path="url(#p0876b61ca5)" d="M 505.506932 808.752699 
L 523.02086 775.916335 
L 544.91327 800.352699 
L 562.427199 734.679972 
L 584.319609 760.643608 
L 601.833537 811.043608 
L 619.347466 812.570881 
L 641.239876 637.698153 
L 667.510768 650.679972 
L 693.781661 622.425426 
L 711.295589 696.498153 
L 733.187999 675.879972 
L 755.08041 700.316335 
L 776.97282 752.243608 
L 798.86523 696.498153 
L 816.379159 708.716335 
L 838.271569 719.407244 
L 855.785497 674.352699 
L 877.677908 694.970881 
L 899.570318 692.679972 
L 917.084246 748.425426 
L 938.976657 688.098153 
L 956.490585 691.152699 
L 978.382995 649.152699 
L 1000.275406 717.879972 
L 1017.789334 713.298153 
L 1035.303262 719.407244 
L 1057.195672 720.934517 
L 1079.088083 744.607244 
L 1096.602011 689.625426 
L 1114.115939 678.170881 
L 1136.00835 695.734517 
L 1153.522278 713.298153 
L 1175.414688 677.407244 
L 1201.685581 689.625426 
L 1223.577991 706.425426 
L 1245.470401 774.389063 
L 1262.98433 669.007244 
L 1284.87674 690.389063 
L 1311.147632 717.879972 
L 1333.040043 678.170881 
L 1350.553971 692.679972 
L 1368.067899 672.06179 
L 1389.96031 754.534517 
L 1407.474238 753.770881 
L 1424.988166 659.843608 
L 1451.259059 685.043608 
L 1468.772987 682.752699 
L 1490.665397 669.770881 
L 1512.557808 694.207244 
L 1534.450218 697.26179 
L 1551.964146 731.625426 
L 1573.856557 691.916335 
L 1591.370485 711.007244 
L 1613.262895 652.207244 
L 1630.776823 667.479972 
L 1657.047716 692.679972 
L 1674.561644 672.825426 
L 1696.454054 694.970881 
L 1713.967983 762.934517 
L 1735.860393 707.952699 
L 1757.752803 714.825426 
L 1775.266732 688.86179 
L 1797.159142 717.116335 
L 1819.051552 717.879972 
L 1840.943963 701.079972 
L 1858.457891 731.625426 
L 1880.350301 756.06179 
L 1897.86423 706.425426 
L 1919.75664 691.152699 
L 1937.270568 697.26179 
" style="fill:none;stroke:#1f77b4;stroke-linecap:square;stroke-width:10;"/>
    <defs>
     <path d="M 0 7.5 
C 1.989023 7.5 3.896849 6.709753 5.303301 5.303301 
C 6.709753 3.896849 7.5 1.989023 7.5 0 
C 7.5 -1.989023 6.709753 -3.896849 5.303301 -5.303301 
C 3.896849 -6.709753 1.989023 -7.5 0 -7.5 
C -1.989023 -7.5 -3.896849 -6.709753 -5.303301 -5.303301 
C -6.709753 -3.896849 -7.5 -1.989023 -7.5 0 
C -7.5 1.989023 -6.709753 3.896849 -5.303301 5.303301 
C -3.896849 6.709753 -1.989023 7.5 0 7.5 
z
" id="m332c3e388e" style="stroke:#1f77b4;"/>
    </defs>
    <g clip-path="url(#p0876b61ca5)">
     <use style="fill:#1f77b4;stroke:#1f77b4;" x="505.506932" xlink:href="#m332c3e388e" y="808.752699"/>
     <use style="fill:#1f77b4;stroke:#1f77b4;" x="523.02086" xlink:href="#m332c3e388e" y="775.916335"/>
     <use style="fill:#1f77b4;stroke:#1f77b4;" x="544.91327" xlink:href="#m332c3e388e" y="800.352699"/>
     <use style="fill:#1f77b4;stroke:#1f77b4;" x="562.427199" xlink:href="#m332c3e388e" y="734.679972"/>
     <use style="fill:#1f77b4;stroke:#1f77b4;" x="584.319609" xlink:href="#m332c3e388e" y="760.643608"/>
     <use style="fill:#1f77b4;stroke:#1f77b4;" x="601.833537" xlink:href="#m332c3e388e" y="811.043608"/>
     <use style="fill:#1f77b4;stroke:#1f77b4;" x="619.347466" xlink:href="#m332c3e388e" y="812.570881"/>
     <use style="fill:#1f77b4;stroke:#1f77b4;" x="641.239876" xlink:href="#m332c3e388e" y="637.698153"/>
     <use style="fill:#1f77b4;stroke:#1f77b4;" x="667.510768" xlink:href="#m332c3e388e" y="650.679972"/>
     <use style="fill:#1f77b4;stroke:#1f77b4;" x="693.781661" xlink:href="#m332c3e388e" y="622.425426"/>
     <use style="fill:#1f77b4;stroke:#1f77b4;" x="711.295589" xlink:href="#m332c3e388e" y="696.498153"/>
     <use style="fill:#1f77b4;stroke:#1f77b4;" x="733.187999" xlink:href="#m332c3e388e" y="675.879972"/>
     <use style="fill:#1f77b4;stroke:#1f77b4;" x="755.08041" xlink:href="#m332c3e388e" y="700.316335"/>
     <use style="fill:#1f77b4;stroke:#1f77b4;" x="776.97282" xlink:href="#m332c3e388e" y="752.243608"/>
     <use style="fill:#1f77b4;stroke:#1f77b4;" x="798.86523" xlink:href="#m332c3e388e" y="696.498153"/>
     <use style="fill:#1f77b4;stroke:#1f77b4;" x="816.379159" xlink:href="#m332c3e388e" y="708.716335"/>
     <use style="fill:#1f77b4;stroke:#1f77b4;" x="838.271569" xlink:href="#m332c3e388e" y="719.407244"/>
     <use style="fill:#1f77b4;stroke:#1f77b4;" x="855.785497" xlink:href="#m332c3e388e" y="674.352699"/>
     <use style="fill:#1f77b4;stroke:#1f77b4;" x="877.677908" xlink:href="#m332c3e388e" y="694.970881"/>
     <use style="fill:#1f77b4;stroke:#1f77b4;" x="899.570318" xlink:href="#m332c3e388e" y="692.679972"/>
     <use style="fill:#1f77b4;stroke:#1f77b4;" x="917.084246" xlink:href="#m332c3e388e" y="748.425426"/>
     <use style="fill:#1f77b4;stroke:#1f77b4;" x="938.976657" xlink:href="#m332c3e388e" y="688.098153"/>
     <use style="fill:#1f77b4;stroke:#1f77b4;" x="956.490585" xlink:href="#m332c3e388e" y="691.152699"/>
     <use style="fill:#1f77b4;stroke:#1f77b4;" x="978.382995" xlink:href="#m332c3e388e" y="649.152699"/>
     <use style="fill:#1f77b4;stroke:#1f77b4;" x="1000.275406" xlink:href="#m332c3e388e" y="717.879972"/>
     <use style="fill:#1f77b4;stroke:#1f77b4;" x="1017.789334" xlink:href="#m332c3e388e" y="713.298153"/>
     <use style="fill:#1f77b4;stroke:#1f77b4;" x="1035.303262" xlink:href="#m332c3e388e" y="719.407244"/>
     <use style="fill:#1f77b4;stroke:#1f77b4;" x="1057.195672" xlink:href="#m332c3e388e" y="720.934517"/>
     <use style="fill:#1f77b4;stroke:#1f77b4;" x="1079.088083" xlink:href="#m332c3e388e" y="744.607244"/>
     <use style="fill:#1f77b4;stroke:#1f77b4;" x="1096.602011" xlink:href="#m332c3e388e" y="689.625426"/>
     <use style="fill:#1f77b4;stroke:#1f77b4;" x="1114.115939" xlink:href="#m332c3e388e" y="678.170881"/>
     <use style="fill:#1f77b4;stroke:#1f77b4;" x="1136.00835" xlink:href="#m332c3e388e" y="695.734517"/>
     <use style="fill:#1f77b4;stroke:#1f77b4;" x="1153.522278" xlink:href="#m332c3e388e" y="713.298153"/>
     <use style="fill:#1f77b4;stroke:#1f77b4;" x="1175.414688" xlink:href="#m332c3e388e" y="677.407244"/>
     <use style="fill:#1f77b4;stroke:#1f77b4;" x="1201.685581" xlink:href="#m332c3e388e" y="689.625426"/>
     <use style="fill:#1f77b4;stroke:#1f77b4;" x="1223.577991" xlink:href="#m332c3e388e" y="706.425426"/>
     <use style="fill:#1f77b4;stroke:#1f77b4;" x="1245.470401" xlink:href="#m332c3e388e" y="774.389063"/>
     <use style="fill:#1f77b4;stroke:#1f77b4;" x="1262.98433" xlink:href="#m332c3e388e" y="669.007244"/>
     <use style="fill:#1f77b4;stroke:#1f77b4;" x="1284.87674" xlink:href="#m332c3e388e" y="690.389063"/>
     <use style="fill:#1f77b4;stroke:#1f77b4;" x="1311.147632" xlink:href="#m332c3e388e" y="717.879972"/>
     <use style="fill:#1f77b4;stroke:#1f77b4;" x="1333.040043" xlink:href="#m332c3e388e" y="678.170881"/>
     <use style="fill:#1f77b4;stroke:#1f77b4;" x="1350.553971" xlink:href="#m332c3e388e" y="692.679972"/>
     <use style="fill:#1f77b4;stroke:#1f77b4;" x="1368.067899" xlink:href="#m332c3e388e" y="672.06179"/>
     <use style="fill:#1f77b4;stroke:#1f77b4;" x="1389.96031" xlink:href="#m332c3e388e" y="754.534517"/>
     <use style="fill:#1f77b4;stroke:#1f77b4;" x="1407.474238" xlink:href="#m332c3e388e" y="753.770881"/>
     <use style="fill:#1f77b4;stroke:#1f77b4;" x="1424.988166" xlink:href="#m332c3e388e" y="659.843608"/>
     <use style="fill:#1f77b4;stroke:#1f77b4;" x="1451.259059" xlink:href="#m332c3e388e" y="685.043608"/>
     <use style="fill:#1f77b4;stroke:#1f77b4;" x="1468.772987" xlink:href="#m332c3e388e" y="682.752699"/>
     <use style="fill:#1f77b4;stroke:#1f77b4;" x="1490.665397" xlink:href="#m332c3e388e" y="669.770881"/>
     <use style="fill:#1f77b4;stroke:#1f77b4;" x="1512.557808" xlink:href="#m332c3e388e" y="694.207244"/>
     <use style="fill:#1f77b4;stroke:#1f77b4;" x="1534.450218" xlink:href="#m332c3e388e" y="697.26179"/>
     <use style="fill:#1f77b4;stroke:#1f77b4;" x="1551.964146" xlink:href="#m332c3e388e" y="731.625426"/>
     <use style="fill:#1f77b4;stroke:#1f77b4;" x="1573.856557" xlink:href="#m332c3e388e" y="691.916335"/>
     <use style="fill:#1f77b4;stroke:#1f77b4;" x="1591.370485" xlink:href="#m332c3e388e" y="711.007244"/>
     <use style="fill:#1f77b4;stroke:#1f77b4;" x="1613.262895" xlink:href="#m332c3e388e" y="652.207244"/>
     <use style="fill:#1f77b4;stroke:#1f77b4;" x="1630.776823" xlink:href="#m332c3e388e" y="667.479972"/>
     <use style="fill:#1f77b4;stroke:#1f77b4;" x="1657.047716" xlink:href="#m332c3e388e" y="692.679972"/>
     <use style="fill:#1f77b4;stroke:#1f77b4;" x="1674.561644" xlink:href="#m332c3e388e" y="672.825426"/>
     <use style="fill:#1f77b4;stroke:#1f77b4;" x="1696.454054" xlink:href="#m332c3e388e" y="694.970881"/>
     <use style="fill:#1f77b4;stroke:#1f77b4;" x="1713.967983" xlink:href="#m332c3e388e" y="762.934517"/>
     <use style="fill:#1f77b4;stroke:#1f77b4;" x="1735.860393" xlink:href="#m332c3e388e" y="707.952699"/>
     <use style="fill:#1f77b4;stroke:#1f77b4;" x="1757.752803" xlink:href="#m332c3e388e" y="714.825426"/>
     <use style="fill:#1f77b4;stroke:#1f77b4;" x="1775.266732" xlink:href="#m332c3e388e" y="688.86179"/>
     <use style="fill:#1f77b4;stroke:#1f77b4;" x="1797.159142" xlink:href="#m332c3e388e" y="717.116335"/>
     <use style="fill:#1f77b4;stroke:#1f77b4;" x="1819.051552" xlink:href="#m332c3e388e" y="717.879972"/>
     <use style="fill:#1f77b4;stroke:#1f77b4;" x="1840.943963" xlink:href="#m332c3e388e" y="701.079972"/>
     <use style="fill:#1f77b4;stroke:#1f77b4;" x="1858.457891" xlink:href="#m332c3e388e" y="731.625426"/>
     <use style="fill:#1f77b4;stroke:#1f77b4;" x="1880.350301" xlink:href="#m332c3e388e" y="756.06179"/>
     <use style="fill:#1f77b4;stroke:#1f77b4;" x="1897.86423" xlink:href="#m332c3e388e" y="706.425426"/>
     <use style="fill:#1f77b4;stroke:#1f77b4;" x="1919.75664" xlink:href="#m332c3e388e" y="691.152699"/>
     <use style="fill:#1f77b4;stroke:#1f77b4;" x="1937.270568" xlink:href="#m332c3e388e" y="697.26179"/>
    </g>
   </g>
   <g id="line2d_12">
    <path clip-path="url(#p0876b61ca5)" d="M 505.506932 824.025426 
L 523.02086 824.025426 
L 544.91327 824.025426 
L 562.427199 824.025426 
L 584.319609 778.207244 
L 601.833537 824.025426 
L 619.347466 816.389063 
L 641.239876 75.66179 
L 667.510768 90.934517 
L 693.781661 68.025426 
L 711.295589 174.934517 
L 733.187999 60.389063 
L 755.08041 68.025426 
L 776.97282 159.66179 
L 798.86523 68.025426 
L 816.379159 182.570881 
L 838.271569 251.298153 
L 855.785497 68.025426 
L 877.677908 60.389063 
L 899.570318 60.389063 
L 917.084246 251.298153 
L 938.976657 251.298153 
L 956.490585 60.389063 
L 978.382995 90.934517 
L 1000.275406 68.025426 
L 1017.789334 60.389063 
L 1035.303262 174.934517 
L 1057.195672 159.66179 
L 1079.088083 159.66179 
L 1096.602011 159.66179 
L 1114.115939 60.389063 
L 1136.00835 159.66179 
L 1153.522278 60.389063 
L 1175.414688 167.298153 
L 1201.685581 68.025426 
L 1223.577991 159.66179 
L 1245.470401 350.570881 
L 1262.98433 251.298153 
L 1284.87674 60.389063 
L 1311.147632 159.66179 
L 1333.040043 60.389063 
L 1350.553971 90.934517 
L 1368.067899 60.389063 
L 1389.96031 159.66179 
L 1407.474238 159.66179 
L 1424.988166 60.389063 
L 1451.259059 60.389063 
L 1468.772987 90.934517 
L 1490.665397 159.66179 
L 1512.557808 68.025426 
L 1534.450218 60.389063 
L 1551.964146 251.298153 
L 1573.856557 159.66179 
L 1591.370485 113.843608 
L 1613.262895 60.389063 
L 1630.776823 258.934517 
L 1657.047716 60.389063 
L 1674.561644 68.025426 
L 1696.454054 159.66179 
L 1713.967983 251.298153 
L 1735.860393 60.389063 
L 1757.752803 159.66179 
L 1775.266732 129.116335 
L 1797.159142 159.66179 
L 1819.051552 83.298153 
L 1840.943963 60.389063 
L 1858.457891 60.389063 
L 1880.350301 350.570881 
L 1897.86423 159.66179 
L 1919.75664 152.025426 
L 1937.270568 159.66179 
" style="fill:none;stroke:#ff7f0e;stroke-linecap:square;stroke-width:10;"/>
    <defs>
     <path d="M 0 7.5 
C 1.989023 7.5 3.896849 6.709753 5.303301 5.303301 
C 6.709753 3.896849 7.5 1.989023 7.5 0 
C 7.5 -1.989023 6.709753 -3.896849 5.303301 -5.303301 
C 3.896849 -6.709753 1.989023 -7.5 0 -7.5 
C -1.989023 -7.5 -3.896849 -6.709753 -5.303301 -5.303301 
C -6.709753 -3.896849 -7.5 -1.989023 -7.5 0 
C -7.5 1.989023 -6.709753 3.896849 -5.303301 5.303301 
C -3.896849 6.709753 -1.989023 7.5 0 7.5 
z
" id="m05a0db8983" style="stroke:#ff7f0e;"/>
    </defs>
    <g clip-path="url(#p0876b61ca5)">
     <use style="fill:#ff7f0e;stroke:#ff7f0e;" x="505.506932" xlink:href="#m05a0db8983" y="824.025426"/>
     <use style="fill:#ff7f0e;stroke:#ff7f0e;" x="523.02086" xlink:href="#m05a0db8983" y="824.025426"/>
     <use style="fill:#ff7f0e;stroke:#ff7f0e;" x="544.91327" xlink:href="#m05a0db8983" y="824.025426"/>
     <use style="fill:#ff7f0e;stroke:#ff7f0e;" x="562.427199" xlink:href="#m05a0db8983" y="824.025426"/>
     <use style="fill:#ff7f0e;stroke:#ff7f0e;" x="584.319609" xlink:href="#m05a0db8983" y="778.207244"/>
     <use style="fill:#ff7f0e;stroke:#ff7f0e;" x="601.833537" xlink:href="#m05a0db8983" y="824.025426"/>
     <use style="fill:#ff7f0e;stroke:#ff7f0e;" x="619.347466" xlink:href="#m05a0db8983" y="816.389063"/>
     <use style="fill:#ff7f0e;stroke:#ff7f0e;" x="641.239876" xlink:href="#m05a0db8983" y="75.66179"/>
     <use style="fill:#ff7f0e;stroke:#ff7f0e;" x="667.510768" xlink:href="#m05a0db8983" y="90.934517"/>
     <use style="fill:#ff7f0e;stroke:#ff7f0e;" x="693.781661" xlink:href="#m05a0db8983" y="68.025426"/>
     <use style="fill:#ff7f0e;stroke:#ff7f0e;" x="711.295589" xlink:href="#m05a0db8983" y="174.934517"/>
     <use style="fill:#ff7f0e;stroke:#ff7f0e;" x="733.187999" xlink:href="#m05a0db8983" y="60.389063"/>
     <use style="fill:#ff7f0e;stroke:#ff7f0e;" x="755.08041" xlink:href="#m05a0db8983" y="68.025426"/>
     <use style="fill:#ff7f0e;stroke:#ff7f0e;" x="776.97282" xlink:href="#m05a0db8983" y="159.66179"/>
     <use style="fill:#ff7f0e;stroke:#ff7f0e;" x="798.86523" xlink:href="#m05a0db8983" y="68.025426"/>
     <use style="fill:#ff7f0e;stroke:#ff7f0e;" x="816.379159" xlink:href="#m05a0db8983" y="182.570881"/>
     <use style="fill:#ff7f0e;stroke:#ff7f0e;" x="838.271569" xlink:href="#m05a0db8983" y="251.298153"/>
     <use style="fill:#ff7f0e;stroke:#ff7f0e;" x="855.785497" xlink:href="#m05a0db8983" y="68.025426"/>
     <use style="fill:#ff7f0e;stroke:#ff7f0e;" x="877.677908" xlink:href="#m05a0db8983" y="60.389063"/>
     <use style="fill:#ff7f0e;stroke:#ff7f0e;" x="899.570318" xlink:href="#m05a0db8983" y="60.389063"/>
     <use style="fill:#ff7f0e;stroke:#ff7f0e;" x="917.084246" xlink:href="#m05a0db8983" y="251.298153"/>
     <use style="fill:#ff7f0e;stroke:#ff7f0e;" x="938.976657" xlink:href="#m05a0db8983" y="251.298153"/>
     <use style="fill:#ff7f0e;stroke:#ff7f0e;" x="956.490585" xlink:href="#m05a0db8983" y="60.389063"/>
     <use style="fill:#ff7f0e;stroke:#ff7f0e;" x="978.382995" xlink:href="#m05a0db8983" y="90.934517"/>
     <use style="fill:#ff7f0e;stroke:#ff7f0e;" x="1000.275406" xlink:href="#m05a0db8983" y="68.025426"/>
     <use style="fill:#ff7f0e;stroke:#ff7f0e;" x="1017.789334" xlink:href="#m05a0db8983" y="60.389063"/>
     <use style="fill:#ff7f0e;stroke:#ff7f0e;" x="1035.303262" xlink:href="#m05a0db8983" y="174.934517"/>
     <use style="fill:#ff7f0e;stroke:#ff7f0e;" x="1057.195672" xlink:href="#m05a0db8983" y="159.66179"/>
     <use style="fill:#ff7f0e;stroke:#ff7f0e;" x="1079.088083" xlink:href="#m05a0db8983" y="159.66179"/>
     <use style="fill:#ff7f0e;stroke:#ff7f0e;" x="1096.602011" xlink:href="#m05a0db8983" y="159.66179"/>
     <use style="fill:#ff7f0e;stroke:#ff7f0e;" x="1114.115939" xlink:href="#m05a0db8983" y="60.389063"/>
     <use style="fill:#ff7f0e;stroke:#ff7f0e;" x="1136.00835" xlink:href="#m05a0db8983" y="159.66179"/>
     <use style="fill:#ff7f0e;stroke:#ff7f0e;" x="1153.522278" xlink:href="#m05a0db8983" y="60.389063"/>
     <use style="fill:#ff7f0e;stroke:#ff7f0e;" x="1175.414688" xlink:href="#m05a0db8983" y="167.298153"/>
     <use style="fill:#ff7f0e;stroke:#ff7f0e;" x="1201.685581" xlink:href="#m05a0db8983" y="68.025426"/>
     <use style="fill:#ff7f0e;stroke:#ff7f0e;" x="1223.577991" xlink:href="#m05a0db8983" y="159.66179"/>
     <use style="fill:#ff7f0e;stroke:#ff7f0e;" x="1245.470401" xlink:href="#m05a0db8983" y="350.570881"/>
     <use style="fill:#ff7f0e;stroke:#ff7f0e;" x="1262.98433" xlink:href="#m05a0db8983" y="251.298153"/>
     <use style="fill:#ff7f0e;stroke:#ff7f0e;" x="1284.87674" xlink:href="#m05a0db8983" y="60.389063"/>
     <use style="fill:#ff7f0e;stroke:#ff7f0e;" x="1311.147632" xlink:href="#m05a0db8983" y="159.66179"/>
     <use style="fill:#ff7f0e;stroke:#ff7f0e;" x="1333.040043" xlink:href="#m05a0db8983" y="60.389063"/>
     <use style="fill:#ff7f0e;stroke:#ff7f0e;" x="1350.553971" xlink:href="#m05a0db8983" y="90.934517"/>
     <use style="fill:#ff7f0e;stroke:#ff7f0e;" x="1368.067899" xlink:href="#m05a0db8983" y="60.389063"/>
     <use style="fill:#ff7f0e;stroke:#ff7f0e;" x="1389.96031" xlink:href="#m05a0db8983" y="159.66179"/>
     <use style="fill:#ff7f0e;stroke:#ff7f0e;" x="1407.474238" xlink:href="#m05a0db8983" y="159.66179"/>
     <use style="fill:#ff7f0e;stroke:#ff7f0e;" x="1424.988166" xlink:href="#m05a0db8983" y="60.389063"/>
     <use style="fill:#ff7f0e;stroke:#ff7f0e;" x="1451.259059" xlink:href="#m05a0db8983" y="60.389063"/>
     <use style="fill:#ff7f0e;stroke:#ff7f0e;" x="1468.772987" xlink:href="#m05a0db8983" y="90.934517"/>
     <use style="fill:#ff7f0e;stroke:#ff7f0e;" x="1490.665397" xlink:href="#m05a0db8983" y="159.66179"/>
     <use style="fill:#ff7f0e;stroke:#ff7f0e;" x="1512.557808" xlink:href="#m05a0db8983" y="68.025426"/>
     <use style="fill:#ff7f0e;stroke:#ff7f0e;" x="1534.450218" xlink:href="#m05a0db8983" y="60.389063"/>
     <use style="fill:#ff7f0e;stroke:#ff7f0e;" x="1551.964146" xlink:href="#m05a0db8983" y="251.298153"/>
     <use style="fill:#ff7f0e;stroke:#ff7f0e;" x="1573.856557" xlink:href="#m05a0db8983" y="159.66179"/>
     <use style="fill:#ff7f0e;stroke:#ff7f0e;" x="1591.370485" xlink:href="#m05a0db8983" y="113.843608"/>
     <use style="fill:#ff7f0e;stroke:#ff7f0e;" x="1613.262895" xlink:href="#m05a0db8983" y="60.389063"/>
     <use style="fill:#ff7f0e;stroke:#ff7f0e;" x="1630.776823" xlink:href="#m05a0db8983" y="258.934517"/>
     <use style="fill:#ff7f0e;stroke:#ff7f0e;" x="1657.047716" xlink:href="#m05a0db8983" y="60.389063"/>
     <use style="fill:#ff7f0e;stroke:#ff7f0e;" x="1674.561644" xlink:href="#m05a0db8983" y="68.025426"/>
     <use style="fill:#ff7f0e;stroke:#ff7f0e;" x="1696.454054" xlink:href="#m05a0db8983" y="159.66179"/>
     <use style="fill:#ff7f0e;stroke:#ff7f0e;" x="1713.967983" xlink:href="#m05a0db8983" y="251.298153"/>
     <use style="fill:#ff7f0e;stroke:#ff7f0e;" x="1735.860393" xlink:href="#m05a0db8983" y="60.389063"/>
     <use style="fill:#ff7f0e;stroke:#ff7f0e;" x="1757.752803" xlink:href="#m05a0db8983" y="159.66179"/>
     <use style="fill:#ff7f0e;stroke:#ff7f0e;" x="1775.266732" xlink:href="#m05a0db8983" y="129.116335"/>
     <use style="fill:#ff7f0e;stroke:#ff7f0e;" x="1797.159142" xlink:href="#m05a0db8983" y="159.66179"/>
     <use style="fill:#ff7f0e;stroke:#ff7f0e;" x="1819.051552" xlink:href="#m05a0db8983" y="83.298153"/>
     <use style="fill:#ff7f0e;stroke:#ff7f0e;" x="1840.943963" xlink:href="#m05a0db8983" y="60.389063"/>
     <use style="fill:#ff7f0e;stroke:#ff7f0e;" x="1858.457891" xlink:href="#m05a0db8983" y="60.389063"/>
     <use style="fill:#ff7f0e;stroke:#ff7f0e;" x="1880.350301" xlink:href="#m05a0db8983" y="350.570881"/>
     <use style="fill:#ff7f0e;stroke:#ff7f0e;" x="1897.86423" xlink:href="#m05a0db8983" y="159.66179"/>
     <use style="fill:#ff7f0e;stroke:#ff7f0e;" x="1919.75664" xlink:href="#m05a0db8983" y="152.025426"/>
     <use style="fill:#ff7f0e;stroke:#ff7f0e;" x="1937.270568" xlink:href="#m05a0db8983" y="159.66179"/>
    </g>
   </g>
   <g id="line2d_13">
    <path clip-path="url(#p0876b61ca5)" d="M 433.91875 196.983173 
L 2008.85875 196.983173 
" style="fill:none;stroke:#ffa500;stroke-dasharray:29.6,12.8;stroke-dashoffset:0;stroke-width:8;"/>
   </g>
   <g id="line2d_14">
    <path clip-path="url(#p0876b61ca5)" d="M 433.91875 708.017232 
L 2008.85875 708.017232 
" style="fill:none;stroke:#0000ff;stroke-dasharray:29.6,12.8;stroke-dashoffset:0;stroke-width:8;"/>
   </g>
   <g id="patch_3">
    <path d="M 433.91875 862.207244 
L 433.91875 22.207244 
" style="fill:none;stroke:#000000;stroke-linecap:square;stroke-linejoin:miter;stroke-width:0.8;"/>
   </g>
   <g id="patch_4">
    <path d="M 2008.85875 862.207244 
L 2008.85875 22.207244 
" style="fill:none;stroke:#000000;stroke-linecap:square;stroke-linejoin:miter;stroke-width:0.8;"/>
   </g>
   <g id="patch_5">
    <path d="M 433.91875 862.207244 
L 2008.85875 862.207244 
" style="fill:none;stroke:#000000;stroke-linecap:square;stroke-linejoin:miter;stroke-width:0.8;"/>
   </g>
   <g id="patch_6">
    <path d="M 433.91875 22.207244 
L 2008.85875 22.207244 
" style="fill:none;stroke:#000000;stroke-linecap:square;stroke-linejoin:miter;stroke-width:0.8;"/>
   </g>
   <g id="legend_1">
    <g id="patch_7">
     <path d="M 496.4075 668.700994 
L 1946.37 668.700994 
Q 1974.37 668.700994 1974.37 640.700994 
L 1974.37 243.713494 
Q 1974.37 215.713494 1946.37 215.713494 
L 496.4075 215.713494 
Q 468.4075 215.713494 468.4075 243.713494 
L 468.4075 640.700994 
Q 468.4075 668.700994 496.4075 668.700994 
z
" style="fill:#ffffff;opacity:0.5;stroke:#cccccc;stroke-linejoin:miter;"/>
    </g>
    <g id="line2d_15">
     <path d="M 524.4075 329.091619 
L 804.4075 329.091619 
" style="fill:none;stroke:#ffa500;stroke-dasharray:29.6,12.8;stroke-dashoffset:0;stroke-width:8;"/>
    </g>
    <g id="line2d_16"/>
    <g id="text_10">
     <!-- Avg GPU: 82% -->
     <g transform="translate(916.4075 378.091619)scale(1.4 -1.4)">
      <defs>
       <path d="M 34.1875 63.1875 
L 20.796875 26.90625 
L 47.609375 26.90625 
z
M 28.609375 72.90625 
L 39.796875 72.90625 
L 67.578125 0 
L 57.328125 0 
L 50.6875 18.703125 
L 17.828125 18.703125 
L 11.1875 0 
L 0.78125 0 
z
" id="DejaVuSans-65"/>
       <path d="M 2.984375 54.6875 
L 12.5 54.6875 
L 29.59375 8.796875 
L 46.6875 54.6875 
L 56.203125 54.6875 
L 35.6875 0 
L 23.484375 0 
z
" id="DejaVuSans-118"/>
       <path d="M 59.515625 10.40625 
L 59.515625 29.984375 
L 43.40625 29.984375 
L 43.40625 38.09375 
L 69.28125 38.09375 
L 69.28125 6.78125 
Q 63.578125 2.734375 56.6875 0.65625 
Q 49.8125 -1.421875 42 -1.421875 
Q 24.90625 -1.421875 15.25 8.5625 
Q 5.609375 18.5625 5.609375 36.375 
Q 5.609375 54.25 15.25 64.234375 
Q 24.90625 74.21875 42 74.21875 
Q 49.125 74.21875 55.546875 72.453125 
Q 61.96875 70.703125 67.390625 67.28125 
L 67.390625 56.78125 
Q 61.921875 61.421875 55.765625 63.765625 
Q 49.609375 66.109375 42.828125 66.109375 
Q 29.4375 66.109375 22.71875 58.640625 
Q 16.015625 51.171875 16.015625 36.375 
Q 16.015625 21.625 22.71875 14.15625 
Q 29.4375 6.6875 42.828125 6.6875 
Q 48.046875 6.6875 52.140625 7.59375 
Q 56.25 8.5 59.515625 10.40625 
z
" id="DejaVuSans-71"/>
       <path d="M 19.671875 64.796875 
L 19.671875 37.40625 
L 32.078125 37.40625 
Q 38.96875 37.40625 42.71875 40.96875 
Q 46.484375 44.53125 46.484375 51.125 
Q 46.484375 57.671875 42.71875 61.234375 
Q 38.96875 64.796875 32.078125 64.796875 
z
M 9.8125 72.90625 
L 32.078125 72.90625 
Q 44.34375 72.90625 50.609375 67.359375 
Q 56.890625 61.8125 56.890625 51.125 
Q 56.890625 40.328125 50.609375 34.8125 
Q 44.34375 29.296875 32.078125 29.296875 
L 19.671875 29.296875 
L 19.671875 0 
L 9.8125 0 
z
" id="DejaVuSans-80"/>
       <path d="M 11.71875 12.40625 
L 22.015625 12.40625 
L 22.015625 0 
L 11.71875 0 
z
M 11.71875 51.703125 
L 22.015625 51.703125 
L 22.015625 39.3125 
L 11.71875 39.3125 
z
" id="DejaVuSans-58"/>
       <path d="M 31.78125 34.625 
Q 24.75 34.625 20.71875 30.859375 
Q 16.703125 27.09375 16.703125 20.515625 
Q 16.703125 13.921875 20.71875 10.15625 
Q 24.75 6.390625 31.78125 6.390625 
Q 38.8125 6.390625 42.859375 10.171875 
Q 46.921875 13.96875 46.921875 20.515625 
Q 46.921875 27.09375 42.890625 30.859375 
Q 38.875 34.625 31.78125 34.625 
z
M 21.921875 38.8125 
Q 15.578125 40.375 12.03125 44.71875 
Q 8.5 49.078125 8.5 55.328125 
Q 8.5 64.0625 14.71875 69.140625 
Q 20.953125 74.21875 31.78125 74.21875 
Q 42.671875 74.21875 48.875 69.140625 
Q 55.078125 64.0625 55.078125 55.328125 
Q 55.078125 49.078125 51.53125 44.71875 
Q 48 40.375 41.703125 38.8125 
Q 48.828125 37.15625 52.796875 32.3125 
Q 56.78125 27.484375 56.78125 20.515625 
Q 56.78125 9.90625 50.3125 4.234375 
Q 43.84375 -1.421875 31.78125 -1.421875 
Q 19.734375 -1.421875 13.25 4.234375 
Q 6.78125 9.90625 6.78125 20.515625 
Q 6.78125 27.484375 10.78125 32.3125 
Q 14.796875 37.15625 21.921875 38.8125 
z
M 18.3125 54.390625 
Q 18.3125 48.734375 21.84375 45.5625 
Q 25.390625 42.390625 31.78125 42.390625 
Q 38.140625 42.390625 41.71875 45.5625 
Q 45.3125 48.734375 45.3125 54.390625 
Q 45.3125 60.0625 41.71875 63.234375 
Q 38.140625 66.40625 31.78125 66.40625 
Q 25.390625 66.40625 21.84375 63.234375 
Q 18.3125 60.0625 18.3125 54.390625 
z
" id="DejaVuSans-56"/>
      </defs>
      <use xlink:href="#DejaVuSans-65"/>
      <use x="62.533203" xlink:href="#DejaVuSans-118"/>
      <use x="121.712891" xlink:href="#DejaVuSans-103"/>
      <use x="185.189453" xlink:href="#DejaVuSans-32"/>
      <use x="216.976562" xlink:href="#DejaVuSans-71"/>
      <use x="294.466797" xlink:href="#DejaVuSans-80"/>
      <use x="354.769531" xlink:href="#DejaVuSans-85"/>
      <use x="427.962891" xlink:href="#DejaVuSans-58"/>
      <use x="461.654297" xlink:href="#DejaVuSans-32"/>
      <use x="493.441406" xlink:href="#DejaVuSans-56"/>
      <use x="557.064453" xlink:href="#DejaVuSans-50"/>
      <use x="620.6875" xlink:href="#DejaVuSans-37"/>
     </g>
    </g>
    <g id="line2d_17">
     <path d="M 524.4075 534.585369 
L 804.4075 534.585369 
" style="fill:none;stroke:#0000ff;stroke-dasharray:29.6,12.8;stroke-dashoffset:0;stroke-width:8;"/>
    </g>
    <g id="line2d_18"/>
    <g id="text_11">
     <!-- Avg CPU: 15% -->
     <g transform="translate(916.4075 583.585369)scale(1.4 -1.4)">
      <defs>
       <path d="M 64.40625 67.28125 
L 64.40625 56.890625 
Q 59.421875 61.53125 53.78125 63.8125 
Q 48.140625 66.109375 41.796875 66.109375 
Q 29.296875 66.109375 22.65625 58.46875 
Q 16.015625 50.828125 16.015625 36.375 
Q 16.015625 21.96875 22.65625 14.328125 
Q 29.296875 6.6875 41.796875 6.6875 
Q 48.140625 6.6875 53.78125 8.984375 
Q 59.421875 11.28125 64.40625 15.921875 
L 64.40625 5.609375 
Q 59.234375 2.09375 53.4375 0.328125 
Q 47.65625 -1.421875 41.21875 -1.421875 
Q 24.65625 -1.421875 15.125 8.703125 
Q 5.609375 18.84375 5.609375 36.375 
Q 5.609375 53.953125 15.125 64.078125 
Q 24.65625 74.21875 41.21875 74.21875 
Q 47.75 74.21875 53.53125 72.484375 
Q 59.328125 70.75 64.40625 67.28125 
z
" id="DejaVuSans-67"/>
      </defs>
      <use xlink:href="#DejaVuSans-65"/>
      <use x="62.533203" xlink:href="#DejaVuSans-118"/>
      <use x="121.712891" xlink:href="#DejaVuSans-103"/>
      <use x="185.189453" xlink:href="#DejaVuSans-32"/>
      <use x="216.976562" xlink:href="#DejaVuSans-67"/>
      <use x="286.800781" xlink:href="#DejaVuSans-80"/>
      <use x="347.103516" xlink:href="#DejaVuSans-85"/>
      <use x="420.296875" xlink:href="#DejaVuSans-58"/>
      <use x="453.988281" xlink:href="#DejaVuSans-32"/>
      <use x="485.775391" xlink:href="#DejaVuSans-49"/>
      <use x="549.398438" xlink:href="#DejaVuSans-53"/>
      <use x="613.021484" xlink:href="#DejaVuSans-37"/>
     </g>
    </g>
   </g>
  </g>
 </g>
 <defs>
  <clipPath id="p0876b61ca5">
   <rect height="840" width="1574.94" x="433.91875" y="22.207244"/>
  </clipPath>
 </defs>
</svg>
