<?xml version="1.0" encoding="utf-8" standalone="no"?>
<!DOCTYPE svg PUBLIC "-//W3C//DTD SVG 1.1//EN"
  "http://www.w3.org/Graphics/SVG/1.1/DTD/svg11.dtd">
<!-- Created with matplotlib (https://matplotlib.org/) -->
<svg height="1157.107148pt" version="1.1" viewBox="0 0 2015.975 1157.107148" width="2015.975pt" xmlns="http://www.w3.org/2000/svg" xmlns:xlink="http://www.w3.org/1999/xlink">
 <metadata>
  <rdf:RDF xmlns:cc="http://creativecommons.org/ns#" xmlns:dc="http://purl.org/dc/elements/1.1/" xmlns:rdf="http://www.w3.org/1999/02/22-rdf-syntax-ns#">
   <cc:Work>
    <dc:type rdf:resource="http://purl.org/dc/dcmitype/StillImage"/>
    <dc:date>2025-05-13T23:40:04.192470</dc:date>
    <dc:format>image/svg+xml</dc:format>
    <dc:creator>
     <cc:Agent>
      <dc:title>Matplotlib v3.3.2, https://matplotlib.org/</dc:title>
     </cc:Agent>
    </dc:creator>
   </cc:Work>
  </rdf:RDF>
 </metadata>
 <defs>
  <style type="text/css">*{stroke-linecap:butt;stroke-linejoin:round;}</style>
 </defs>
 <g id="figure_1">
  <g id="patch_1">
   <path d="M 0 1157.107148 
L 2015.975 1157.107148 
L 2015.975 0 
L 0 0 
z
" style="fill:#ffffff;"/>
  </g>
  <g id="axes_1">
   <g id="patch_2">
    <path d="M 116.275 994.413398 
L 2008.775 994.413398 
L 2008.775 25.235217 
L 116.275 25.235217 
z
" style="fill:#ffffff;"/>
   </g>
   <g id="matplotlib.axis_1">
    <g id="xtick_1">
     <g id="line2d_1">
      <defs>
       <path d="M 0 5 
L 0 -5 
" id="mc0ce94bfe2" style="stroke:#000000;stroke-width:3;"/>
      </defs>
      <g>
       <use style="stroke:#000000;stroke-width:3;" x="202.297727" xlink:href="#mc0ce94bfe2" y="994.413398"/>
      </g>
     </g>
     <g id="text_1">
      <!-- 0 -->
      <g transform="translate(157.760227 1120.791523)scale(1.4 -1.4)">
       <defs>
        <path d="M 31.78125 66.40625 
Q 24.171875 66.40625 20.328125 58.90625 
Q 16.5 51.421875 16.5 36.375 
Q 16.5 21.390625 20.328125 13.890625 
Q 24.171875 6.390625 31.78125 6.390625 
Q 39.453125 6.390625 43.28125 13.890625 
Q 47.125 21.390625 47.125 36.375 
Q 47.125 51.421875 43.28125 58.90625 
Q 39.453125 66.40625 31.78125 66.40625 
z
M 31.78125 74.21875 
Q 44.046875 74.21875 50.515625 64.515625 
Q 56.984375 54.828125 56.984375 36.375 
Q 56.984375 17.96875 50.515625 8.265625 
Q 44.046875 -1.421875 31.78125 -1.421875 
Q 19.53125 -1.421875 13.0625 8.265625 
Q 6.59375 17.96875 6.59375 36.375 
Q 6.59375 54.828125 13.0625 64.515625 
Q 19.53125 74.21875 31.78125 74.21875 
z
" id="DejaVuSans-48"/>
       </defs>
       <use xlink:href="#DejaVuSans-48"/>
      </g>
     </g>
    </g>
    <g id="xtick_2">
     <g id="line2d_2">
      <g>
       <use style="stroke:#000000;stroke-width:3;" x="874.350284" xlink:href="#mc0ce94bfe2" y="994.413398"/>
      </g>
     </g>
     <g id="text_2">
      <!-- 200 -->
      <g transform="translate(740.737784 1120.791523)scale(1.4 -1.4)">
       <defs>
        <path d="M 19.1875 8.296875 
L 53.609375 8.296875 
L 53.609375 0 
L 7.328125 0 
L 7.328125 8.296875 
Q 12.9375 14.109375 22.625 23.890625 
Q 32.328125 33.6875 34.8125 36.53125 
Q 39.546875 41.84375 41.421875 45.53125 
Q 43.3125 49.21875 43.3125 52.78125 
Q 43.3125 58.59375 39.234375 62.25 
Q 35.15625 65.921875 28.609375 65.921875 
Q 23.96875 65.921875 18.8125 64.3125 
Q 13.671875 62.703125 7.8125 59.421875 
L 7.8125 69.390625 
Q 13.765625 71.78125 18.9375 73 
Q 24.125 74.21875 28.421875 74.21875 
Q 39.75 74.21875 46.484375 68.546875 
Q 53.21875 62.890625 53.21875 53.421875 
Q 53.21875 48.921875 51.53125 44.890625 
Q 49.859375 40.875 45.40625 35.40625 
Q 44.1875 33.984375 37.640625 27.21875 
Q 31.109375 20.453125 19.1875 8.296875 
z
" id="DejaVuSans-50"/>
       </defs>
       <use xlink:href="#DejaVuSans-50"/>
       <use x="63.623047" xlink:href="#DejaVuSans-48"/>
       <use x="127.246094" xlink:href="#DejaVuSans-48"/>
      </g>
     </g>
    </g>
    <g id="xtick_3">
     <g id="line2d_3">
      <g>
       <use style="stroke:#000000;stroke-width:3;" x="1546.402841" xlink:href="#mc0ce94bfe2" y="994.413398"/>
      </g>
     </g>
     <g id="text_3">
      <!-- 400 -->
      <g transform="translate(1412.790341 1120.791523)scale(1.4 -1.4)">
       <defs>
        <path d="M 37.796875 64.3125 
L 12.890625 25.390625 
L 37.796875 25.390625 
z
M 35.203125 72.90625 
L 47.609375 72.90625 
L 47.609375 25.390625 
L 58.015625 25.390625 
L 58.015625 17.1875 
L 47.609375 17.1875 
L 47.609375 0 
L 37.796875 0 
L 37.796875 17.1875 
L 4.890625 17.1875 
L 4.890625 26.703125 
z
" id="DejaVuSans-52"/>
       </defs>
       <use xlink:href="#DejaVuSans-52"/>
       <use x="63.623047" xlink:href="#DejaVuSans-48"/>
       <use x="127.246094" xlink:href="#DejaVuSans-48"/>
      </g>
     </g>
    </g>
   </g>
   <g id="matplotlib.axis_2">
    <g id="ytick_1">
     <g id="line2d_4">
      <path clip-path="url(#p77ae1c4fb1)" d="M 116.275 950.359845 
L 2008.775 950.359845 
" style="fill:none;stroke:#b0b0b0;stroke-linecap:square;stroke-width:0.8;"/>
     </g>
     <g id="line2d_5">
      <defs>
       <path d="M 5 0 
L -5 -0 
" id="m5818d69173" style="stroke:#000000;stroke-width:3;"/>
      </defs>
      <g>
       <use style="stroke:#000000;stroke-width:3;" x="116.275" xlink:href="#m5818d69173" y="950.359845"/>
      </g>
     </g>
     <g id="text_4">
      <!-- 0 -->
      <g transform="translate(7.2 1003.548907)scale(1.4 -1.4)">
       <use xlink:href="#DejaVuSans-48"/>
      </g>
     </g>
    </g>
    <g id="ytick_2">
     <g id="line2d_6">
      <path clip-path="url(#p77ae1c4fb1)" d="M 116.275 505.374454 
L 2008.775 505.374454 
" style="fill:none;stroke:#b0b0b0;stroke-linecap:square;stroke-width:0.8;"/>
     </g>
     <g id="line2d_7">
      <g>
       <use style="stroke:#000000;stroke-width:3;" x="116.275" xlink:href="#m5818d69173" y="505.374454"/>
      </g>
     </g>
     <g id="text_5">
      <!-- 1 -->
      <g transform="translate(7.2 558.563516)scale(1.4 -1.4)">
       <defs>
        <path d="M 12.40625 8.296875 
L 28.515625 8.296875 
L 28.515625 63.921875 
L 10.984375 60.40625 
L 10.984375 69.390625 
L 28.421875 72.90625 
L 38.28125 72.90625 
L 38.28125 8.296875 
L 54.390625 8.296875 
L 54.390625 0 
L 12.40625 0 
z
" id="DejaVuSans-49"/>
       </defs>
       <use xlink:href="#DejaVuSans-49"/>
      </g>
     </g>
    </g>
    <g id="ytick_3">
     <g id="line2d_8">
      <path clip-path="url(#p77ae1c4fb1)" d="M 116.275 60.389063 
L 2008.775 60.389063 
" style="fill:none;stroke:#b0b0b0;stroke-linecap:square;stroke-width:0.8;"/>
     </g>
     <g id="line2d_9">
      <g>
       <use style="stroke:#000000;stroke-width:3;" x="116.275" xlink:href="#m5818d69173" y="60.389063"/>
      </g>
     </g>
     <g id="text_6">
      <!-- 2 -->
      <g transform="translate(7.2 113.578125)scale(1.4 -1.4)">
       <use xlink:href="#DejaVuSans-50"/>
      </g>
     </g>
    </g>
   </g>
   <g id="line2d_10">
    <path clip-path="url(#p77ae1c4fb1)" d="M 202.297727 950.359845 
L 219.099041 950.359845 
L 232.540092 950.359845 
L 245.981143 950.359845 
L 262.782457 950.359845 
L 276.223509 950.359845 
L 289.66456 950.359845 
L 306.465874 950.359845 
L 319.906925 901.411452 
L 333.347976 941.460137 
L 350.14929 950.359845 
L 366.950604 874.712328 
L 380.391655 87.088186 
L 397.192969 87.088186 
L 410.63402 180.535118 
L 427.435334 687.818464 
L 440.876385 647.769779 
L 454.317436 91.53804 
L 471.11875 95.987894 
L 487.920064 91.53804 
L 501.361115 91.53804 
L 518.162429 723.417295 
L 531.60348 202.784388 
L 548.404794 710.067734 
L 561.845845 91.53804 
L 578.647159 91.53804 
L 595.448473 216.133949 
L 608.889524 91.53804 
L 625.690838 91.53804 
L 642.492152 91.53804 
L 659.293466 928.110575 
L 672.734517 176.085264 
L 689.535831 95.987894 
L 702.976882 282.881758 
L 719.778196 91.53804 
L 736.57951 118.237163 
L 753.380824 87.088186 
L 766.821875 202.784388 
L 783.623189 696.718172 
L 797.06424 91.53804 
L 810.505291 91.53804 
L 827.306605 91.53804 
L 844.107919 91.53804 
L 857.54897 91.53804 
L 874.350284 91.53804 
L 887.791335 91.53804 
L 904.592649 945.909991 
L 918.0337 331.830151 
L 934.835014 91.53804 
L 948.276065 848.013205 
L 965.077379 91.53804 
L 981.878693 95.987894 
L 998.680007 95.987894 
L 1015.481321 741.216711 
L 1032.282635 825.763935 
L 1045.723686 91.53804 
L 1062.525 91.53804 
L 1075.966051 91.53804 
L 1092.767365 91.53804 
L 1109.568679 91.53804 
L 1123.00973 220.583803 
L 1139.811044 607.721094 
L 1156.612358 87.088186 
L 1173.413672 180.535118 
L 1186.854723 91.53804 
L 1203.656037 91.53804 
L 1217.097088 91.53804 
L 1233.898402 100.437748 
L 1250.699716 91.53804 
L 1264.140767 696.718172 
L 1280.942081 95.987894 
L 1294.383132 91.53804 
L 1307.824183 167.185556 
L 1324.625497 91.53804 
L 1341.426811 91.53804 
L 1358.228125 91.53804 
L 1371.669176 91.53804 
L 1388.47049 941.460137 
L 1401.911541 91.53804 
L 1415.352592 91.53804 
L 1432.153906 91.53804 
L 1448.95522 82.638332 
L 1462.396271 91.53804 
L 1479.197585 95.987894 
L 1492.638636 91.53804 
L 1509.43995 945.909991 
L 1522.881001 91.53804 
L 1536.322053 91.53804 
L 1553.123366 505.374454 
L 1569.92468 91.53804 
L 1583.365732 171.63541 
L 1600.167045 91.53804 
L 1613.608097 87.088186 
L 1630.409411 830.213789 
L 1643.850462 91.53804 
L 1657.291513 95.987894 
L 1674.092827 91.53804 
L 1690.894141 69.28877 
L 1704.335192 95.987894 
L 1721.136506 91.53804 
L 1734.577557 91.53804 
L 1751.378871 839.113497 
L 1764.819922 91.53804 
L 1781.621236 95.987894 
L 1795.062287 91.53804 
L 1811.863601 91.53804 
L 1825.304652 109.337456 
L 1842.105966 91.53804 
L 1858.90728 540.973285 
L 1875.708594 825.763935 
L 1889.149645 91.53804 
L 1905.950959 91.53804 
L 1919.39201 91.53804 
L 1922.752273 950.359845 
" style="fill:none;stroke:#008000;stroke-linecap:square;stroke-width:10;"/>
   </g>
   <g id="line2d_11">
    <path clip-path="url(#p77ae1c4fb1)" d="M 116.275 312.118079 
L 2008.775 312.118079 
" style="fill:none;stroke:#ff0000;stroke-dasharray:29.6,12.8;stroke-dashoffset:0;stroke-width:8;"/>
   </g>
   <g id="patch_3">
    <path d="M 116.275 994.413398 
L 116.275 25.235217 
" style="fill:none;stroke:#000000;stroke-linecap:square;stroke-linejoin:miter;stroke-width:0.8;"/>
   </g>
   <g id="patch_4">
    <path d="M 2008.775 994.413398 
L 2008.775 25.235217 
" style="fill:none;stroke:#000000;stroke-linecap:square;stroke-linejoin:miter;stroke-width:0.8;"/>
   </g>
   <g id="patch_5">
    <path d="M 116.275 994.413398 
L 2008.775 994.413398 
" style="fill:none;stroke:#000000;stroke-linecap:square;stroke-linejoin:miter;stroke-width:0.8;"/>
   </g>
   <g id="patch_6">
    <path d="M 116.275 25.235217 
L 2008.775 25.235217 
" style="fill:none;stroke:#000000;stroke-linecap:square;stroke-linejoin:miter;stroke-width:0.8;"/>
   </g>
   <g id="legend_1">
    <g id="patch_7">
     <path d="M 389.420312 633.571183 
L 1735.629687 633.571183 
Q 1763.629687 633.571183 1763.629687 605.571183 
L 1763.629687 414.077433 
Q 1763.629687 386.077433 1735.629687 386.077433 
L 389.420312 386.077433 
Q 361.420312 386.077433 361.420312 414.077433 
L 361.420312 605.571183 
Q 361.420312 633.571183 389.420312 633.571183 
z
" style="fill:#ffffff;opacity:0.5;stroke:#cccccc;stroke-linejoin:miter;"/>
    </g>
    <g id="line2d_12">
     <path d="M 417.420312 499.455558 
L 697.420312 499.455558 
" style="fill:none;stroke:#ff0000;stroke-dasharray:29.6,12.8;stroke-dashoffset:0;stroke-width:8;"/>
    </g>
    <g id="line2d_13"/>
    <g id="text_7">
     <!-- Avg: 1.4GB/s -->
     <g transform="translate(809.420312 548.455558)scale(1.4 -1.4)">
      <defs>
       <path d="M 34.1875 63.1875 
L 20.796875 26.90625 
L 47.609375 26.90625 
z
M 28.609375 72.90625 
L 39.796875 72.90625 
L 67.578125 0 
L 57.328125 0 
L 50.6875 18.703125 
L 17.828125 18.703125 
L 11.1875 0 
L 0.78125 0 
z
" id="DejaVuSans-65"/>
       <path d="M 2.984375 54.6875 
L 12.5 54.6875 
L 29.59375 8.796875 
L 46.6875 54.6875 
L 56.203125 54.6875 
L 35.6875 0 
L 23.484375 0 
z
" id="DejaVuSans-118"/>
       <path d="M 45.40625 27.984375 
Q 45.40625 37.75 41.375 43.109375 
Q 37.359375 48.484375 30.078125 48.484375 
Q 22.859375 48.484375 18.828125 43.109375 
Q 14.796875 37.75 14.796875 27.984375 
Q 14.796875 18.265625 18.828125 12.890625 
Q 22.859375 7.515625 30.078125 7.515625 
Q 37.359375 7.515625 41.375 12.890625 
Q 45.40625 18.265625 45.40625 27.984375 
z
M 54.390625 6.78125 
Q 54.390625 -7.171875 48.1875 -13.984375 
Q 42 -20.796875 29.203125 -20.796875 
Q 24.46875 -20.796875 20.265625 -20.09375 
Q 16.0625 -19.390625 12.109375 -17.921875 
L 12.109375 -9.1875 
Q 16.0625 -11.328125 19.921875 -12.34375 
Q 23.78125 -13.375 27.78125 -13.375 
Q 36.625 -13.375 41.015625 -8.765625 
Q 45.40625 -4.15625 45.40625 5.171875 
L 45.40625 9.625 
Q 42.625 4.78125 38.28125 2.390625 
Q 33.9375 0 27.875 0 
Q 17.828125 0 11.671875 7.65625 
Q 5.515625 15.328125 5.515625 27.984375 
Q 5.515625 40.671875 11.671875 48.328125 
Q 17.828125 56 27.875 56 
Q 33.9375 56 38.28125 53.609375 
Q 42.625 51.21875 45.40625 46.390625 
L 45.40625 54.6875 
L 54.390625 54.6875 
z
" id="DejaVuSans-103"/>
       <path d="M 11.71875 12.40625 
L 22.015625 12.40625 
L 22.015625 0 
L 11.71875 0 
z
M 11.71875 51.703125 
L 22.015625 51.703125 
L 22.015625 39.3125 
L 11.71875 39.3125 
z
" id="DejaVuSans-58"/>
       <path id="DejaVuSans-32"/>
       <path d="M 10.6875 12.40625 
L 21 12.40625 
L 21 0 
L 10.6875 0 
z
" id="DejaVuSans-46"/>
       <path d="M 59.515625 10.40625 
L 59.515625 29.984375 
L 43.40625 29.984375 
L 43.40625 38.09375 
L 69.28125 38.09375 
L 69.28125 6.78125 
Q 63.578125 2.734375 56.6875 0.65625 
Q 49.8125 -1.421875 42 -1.421875 
Q 24.90625 -1.421875 15.25 8.5625 
Q 5.609375 18.5625 5.609375 36.375 
Q 5.609375 54.25 15.25 64.234375 
Q 24.90625 74.21875 42 74.21875 
Q 49.125 74.21875 55.546875 72.453125 
Q 61.96875 70.703125 67.390625 67.28125 
L 67.390625 56.78125 
Q 61.921875 61.421875 55.765625 63.765625 
Q 49.609375 66.109375 42.828125 66.109375 
Q 29.4375 66.109375 22.71875 58.640625 
Q 16.015625 51.171875 16.015625 36.375 
Q 16.015625 21.625 22.71875 14.15625 
Q 29.4375 6.6875 42.828125 6.6875 
Q 48.046875 6.6875 52.140625 7.59375 
Q 56.25 8.5 59.515625 10.40625 
z
" id="DejaVuSans-71"/>
       <path d="M 19.671875 34.8125 
L 19.671875 8.109375 
L 35.5 8.109375 
Q 43.453125 8.109375 47.28125 11.40625 
Q 51.125 14.703125 51.125 21.484375 
Q 51.125 28.328125 47.28125 31.5625 
Q 43.453125 34.8125 35.5 34.8125 
z
M 19.671875 64.796875 
L 19.671875 42.828125 
L 34.28125 42.828125 
Q 41.5 42.828125 45.03125 45.53125 
Q 48.578125 48.25 48.578125 53.8125 
Q 48.578125 59.328125 45.03125 62.0625 
Q 41.5 64.796875 34.28125 64.796875 
z
M 9.8125 72.90625 
L 35.015625 72.90625 
Q 46.296875 72.90625 52.390625 68.21875 
Q 58.5 63.53125 58.5 54.890625 
Q 58.5 48.1875 55.375 44.234375 
Q 52.25 40.28125 46.1875 39.3125 
Q 53.46875 37.75 57.5 32.78125 
Q 61.53125 27.828125 61.53125 20.40625 
Q 61.53125 10.640625 54.890625 5.3125 
Q 48.25 0 35.984375 0 
L 9.8125 0 
z
" id="DejaVuSans-66"/>
       <path d="M 25.390625 72.90625 
L 33.6875 72.90625 
L 8.296875 -9.28125 
L 0 -9.28125 
z
" id="DejaVuSans-47"/>
       <path d="M 44.28125 53.078125 
L 44.28125 44.578125 
Q 40.484375 46.53125 36.375 47.5 
Q 32.28125 48.484375 27.875 48.484375 
Q 21.1875 48.484375 17.84375 46.4375 
Q 14.5 44.390625 14.5 40.28125 
Q 14.5 37.15625 16.890625 35.375 
Q 19.28125 33.59375 26.515625 31.984375 
L 29.59375 31.296875 
Q 39.15625 29.25 43.1875 25.515625 
Q 47.21875 21.78125 47.21875 15.09375 
Q 47.21875 7.46875 41.1875 3.015625 
Q 35.15625 -1.421875 24.609375 -1.421875 
Q 20.21875 -1.421875 15.453125 -0.5625 
Q 10.6875 0.296875 5.421875 2 
L 5.421875 11.28125 
Q 10.40625 8.6875 15.234375 7.390625 
Q 20.0625 6.109375 24.8125 6.109375 
Q 31.15625 6.109375 34.5625 8.28125 
Q 37.984375 10.453125 37.984375 14.40625 
Q 37.984375 18.0625 35.515625 20.015625 
Q 33.0625 21.96875 24.703125 23.78125 
L 21.578125 24.515625 
Q 13.234375 26.265625 9.515625 29.90625 
Q 5.8125 33.546875 5.8125 39.890625 
Q 5.8125 47.609375 11.28125 51.796875 
Q 16.75 56 26.8125 56 
Q 31.78125 56 36.171875 55.265625 
Q 40.578125 54.546875 44.28125 53.078125 
z
" id="DejaVuSans-115"/>
      </defs>
      <use xlink:href="#DejaVuSans-65"/>
      <use x="62.533203" xlink:href="#DejaVuSans-118"/>
      <use x="121.712891" xlink:href="#DejaVuSans-103"/>
      <use x="185.189453" xlink:href="#DejaVuSans-58"/>
      <use x="218.880859" xlink:href="#DejaVuSans-32"/>
      <use x="250.667969" xlink:href="#DejaVuSans-49"/>
      <use x="314.291016" xlink:href="#DejaVuSans-46"/>
      <use x="346.078125" xlink:href="#DejaVuSans-52"/>
      <use x="409.701172" xlink:href="#DejaVuSans-71"/>
      <use x="487.191406" xlink:href="#DejaVuSans-66"/>
      <use x="555.794922" xlink:href="#DejaVuSans-47"/>
      <use x="589.486328" xlink:href="#DejaVuSans-115"/>
     </g>
    </g>
   </g>
  </g>
 </g>
 <defs>
  <clipPath id="p77ae1c4fb1">
   <rect height="969.178182" width="1892.5" x="116.275" y="25.235217"/>
  </clipPath>
 </defs>
</svg>
