<?xml version="1.0" encoding="utf-8" standalone="no"?>
<!DOCTYPE svg PUBLIC "-//W3C//DTD SVG 1.1//EN"
  "http://www.w3.org/Graphics/SVG/1.1/DTD/svg11.dtd">
<!-- Created with matplotlib (https://matplotlib.org/) -->
<svg height="425.175pt" version="1.1" viewBox="0 0 803.216364 425.175" width="803.216364pt" xmlns="http://www.w3.org/2000/svg" xmlns:xlink="http://www.w3.org/1999/xlink">
 <metadata>
  <rdf:RDF xmlns:cc="http://creativecommons.org/ns#" xmlns:dc="http://purl.org/dc/elements/1.1/" xmlns:rdf="http://www.w3.org/1999/02/22-rdf-syntax-ns#">
   <cc:Work>
    <dc:type rdf:resource="http://purl.org/dc/dcmitype/StillImage"/>
    <dc:date>2025-05-02T09:51:38.146348</dc:date>
    <dc:format>image/svg+xml</dc:format>
    <dc:creator>
     <cc:Agent>
      <dc:title>Matplotlib v3.3.2, https://matplotlib.org/</dc:title>
     </cc:Agent>
    </dc:creator>
   </cc:Work>
  </rdf:RDF>
 </metadata>
 <defs>
  <style type="text/css">*{stroke-linecap:butt;stroke-linejoin:round;}</style>
 </defs>
 <g id="figure_1">
  <g id="patch_1">
   <path d="M 0 425.175 
L 803.216364 425.175 
L 803.216364 0 
L 0 0 
z
" style="fill:#ffffff;"/>
  </g>
  <g id="axes_1">
   <g id="patch_2">
    <path d="M 202.3 349.035 
L 760.3 349.035 
L 760.3 16.395 
L 202.3 16.395 
z
" style="fill:#ffffff;"/>
   </g>
   <g id="matplotlib.axis_1">
    <g id="xtick_1">
     <g id="line2d_1">
      <path clip-path="url(#p53df451b15)" d="M 221.242463 349.035 
L 221.242463 16.395 
" style="fill:none;stroke:#b0b0b0;stroke-linecap:square;stroke-width:0.8;"/>
     </g>
     <g id="line2d_2">
      <defs>
       <path d="M 0 0 
L 0 3.5 
" id="mc63ccd4c0e" style="stroke:#000000;stroke-width:0.8;"/>
      </defs>
      <g>
       <use style="stroke:#000000;stroke-width:0.8;" x="221.242463" xlink:href="#mc63ccd4c0e" y="349.035"/>
      </g>
     </g>
     <g id="text_1">
      <!-- 0 -->
      <g transform="translate(200.882463 404.665)scale(0.64 -0.64)">
       <defs>
        <path d="M 31.78125 66.40625 
Q 24.171875 66.40625 20.328125 58.90625 
Q 16.5 51.421875 16.5 36.375 
Q 16.5 21.390625 20.328125 13.890625 
Q 24.171875 6.390625 31.78125 6.390625 
Q 39.453125 6.390625 43.28125 13.890625 
Q 47.125 21.390625 47.125 36.375 
Q 47.125 51.421875 43.28125 58.90625 
Q 39.453125 66.40625 31.78125 66.40625 
z
M 31.78125 74.21875 
Q 44.046875 74.21875 50.515625 64.515625 
Q 56.984375 54.828125 56.984375 36.375 
Q 56.984375 17.96875 50.515625 8.265625 
Q 44.046875 -1.421875 31.78125 -1.421875 
Q 19.53125 -1.421875 13.0625 8.265625 
Q 6.59375 17.96875 6.59375 36.375 
Q 6.59375 54.828125 13.0625 64.515625 
Q 19.53125 74.21875 31.78125 74.21875 
z
" id="DejaVuSans-48"/>
       </defs>
       <use xlink:href="#DejaVuSans-48"/>
      </g>
     </g>
    </g>
    <g id="xtick_2">
     <g id="line2d_3">
      <path clip-path="url(#p53df451b15)" d="M 478.089413 349.035 
L 478.089413 16.395 
" style="fill:none;stroke:#b0b0b0;stroke-linecap:square;stroke-width:0.8;"/>
     </g>
     <g id="line2d_4">
      <g>
       <use style="stroke:#000000;stroke-width:0.8;" x="478.089413" xlink:href="#mc63ccd4c0e" y="349.035"/>
      </g>
     </g>
     <g id="text_2">
      <!-- 200 -->
      <g transform="translate(417.009413 404.665)scale(0.64 -0.64)">
       <defs>
        <path d="M 19.1875 8.296875 
L 53.609375 8.296875 
L 53.609375 0 
L 7.328125 0 
L 7.328125 8.296875 
Q 12.9375 14.109375 22.625 23.890625 
Q 32.328125 33.6875 34.8125 36.53125 
Q 39.546875 41.84375 41.421875 45.53125 
Q 43.3125 49.21875 43.3125 52.78125 
Q 43.3125 58.59375 39.234375 62.25 
Q 35.15625 65.921875 28.609375 65.921875 
Q 23.96875 65.921875 18.8125 64.3125 
Q 13.671875 62.703125 7.8125 59.421875 
L 7.8125 69.390625 
Q 13.765625 71.78125 18.9375 73 
Q 24.125 74.21875 28.421875 74.21875 
Q 39.75 74.21875 46.484375 68.546875 
Q 53.21875 62.890625 53.21875 53.421875 
Q 53.21875 48.921875 51.53125 44.890625 
Q 49.859375 40.875 45.40625 35.40625 
Q 44.1875 33.984375 37.640625 27.21875 
Q 31.109375 20.453125 19.1875 8.296875 
z
" id="DejaVuSans-50"/>
       </defs>
       <use xlink:href="#DejaVuSans-50"/>
       <use x="63.623047" xlink:href="#DejaVuSans-48"/>
       <use x="127.246094" xlink:href="#DejaVuSans-48"/>
      </g>
     </g>
    </g>
    <g id="xtick_3">
     <g id="line2d_5">
      <path clip-path="url(#p53df451b15)" d="M 734.936364 349.035 
L 734.936364 16.395 
" style="fill:none;stroke:#b0b0b0;stroke-linecap:square;stroke-width:0.8;"/>
     </g>
     <g id="line2d_6">
      <g>
       <use style="stroke:#000000;stroke-width:0.8;" x="734.936364" xlink:href="#mc63ccd4c0e" y="349.035"/>
      </g>
     </g>
     <g id="text_3">
      <!-- 400 -->
      <g transform="translate(673.856364 404.665)scale(0.64 -0.64)">
       <defs>
        <path d="M 37.796875 64.3125 
L 12.890625 25.390625 
L 37.796875 25.390625 
z
M 35.203125 72.90625 
L 47.609375 72.90625 
L 47.609375 25.390625 
L 58.015625 25.390625 
L 58.015625 17.1875 
L 47.609375 17.1875 
L 47.609375 0 
L 37.796875 0 
L 37.796875 17.1875 
L 4.890625 17.1875 
L 4.890625 26.703125 
z
" id="DejaVuSans-52"/>
       </defs>
       <use xlink:href="#DejaVuSans-52"/>
       <use x="63.623047" xlink:href="#DejaVuSans-48"/>
       <use x="127.246094" xlink:href="#DejaVuSans-48"/>
      </g>
     </g>
    </g>
   </g>
   <g id="matplotlib.axis_2">
    <g id="ytick_1">
     <g id="line2d_7">
      <path clip-path="url(#p53df451b15)" d="M 202.3 336.35371 
L 760.3 336.35371 
" style="fill:none;stroke:#b0b0b0;stroke-linecap:square;stroke-width:0.8;"/>
     </g>
     <g id="line2d_8">
      <defs>
       <path d="M 0 0 
L -3.5 0 
" id="m404f6b59e4" style="stroke:#000000;stroke-width:0.8;"/>
      </defs>
      <g>
       <use style="stroke:#000000;stroke-width:0.8;" x="202.3" xlink:href="#m404f6b59e4" y="336.35371"/>
      </g>
     </g>
     <g id="text_4">
      <!-- 0 -->
      <g transform="translate(154.58 360.66871)scale(0.64 -0.64)">
       <use xlink:href="#DejaVuSans-48"/>
      </g>
     </g>
    </g>
    <g id="ytick_2">
     <g id="line2d_9">
      <path clip-path="url(#p53df451b15)" d="M 202.3 31.515 
L 760.3 31.515 
" style="fill:none;stroke:#b0b0b0;stroke-linecap:square;stroke-width:0.8;"/>
     </g>
     <g id="line2d_10">
      <g>
       <use style="stroke:#000000;stroke-width:0.8;" x="202.3" xlink:href="#m404f6b59e4" y="31.515"/>
      </g>
     </g>
     <g id="text_5">
      <!-- 100 -->
      <g transform="translate(73.14 55.83)scale(0.64 -0.64)">
       <defs>
        <path d="M 12.40625 8.296875 
L 28.515625 8.296875 
L 28.515625 63.921875 
L 10.984375 60.40625 
L 10.984375 69.390625 
L 28.421875 72.90625 
L 38.28125 72.90625 
L 38.28125 8.296875 
L 54.390625 8.296875 
L 54.390625 0 
L 12.40625 0 
z
" id="DejaVuSans-49"/>
       </defs>
       <use xlink:href="#DejaVuSans-49"/>
       <use x="63.623047" xlink:href="#DejaVuSans-48"/>
       <use x="127.246094" xlink:href="#DejaVuSans-48"/>
      </g>
     </g>
    </g>
    <g id="text_6">
     <!-- Usage (%) -->
     <g transform="translate(55.83 347.965)rotate(-90)scale(0.64 -0.64)">
      <defs>
       <path d="M 8.6875 72.90625 
L 18.609375 72.90625 
L 18.609375 28.609375 
Q 18.609375 16.890625 22.84375 11.734375 
Q 27.09375 6.59375 36.625 6.59375 
Q 46.09375 6.59375 50.34375 11.734375 
Q 54.59375 16.890625 54.59375 28.609375 
L 54.59375 72.90625 
L 64.5 72.90625 
L 64.5 27.390625 
Q 64.5 13.140625 57.4375 5.859375 
Q 50.390625 -1.421875 36.625 -1.421875 
Q 22.796875 -1.421875 15.734375 5.859375 
Q 8.6875 13.140625 8.6875 27.390625 
z
" id="DejaVuSans-85"/>
       <path d="M 44.28125 53.078125 
L 44.28125 44.578125 
Q 40.484375 46.53125 36.375 47.5 
Q 32.28125 48.484375 27.875 48.484375 
Q 21.1875 48.484375 17.84375 46.4375 
Q 14.5 44.390625 14.5 40.28125 
Q 14.5 37.15625 16.890625 35.375 
Q 19.28125 33.59375 26.515625 31.984375 
L 29.59375 31.296875 
Q 39.15625 29.25 43.1875 25.515625 
Q 47.21875 21.78125 47.21875 15.09375 
Q 47.21875 7.46875 41.1875 3.015625 
Q 35.15625 -1.421875 24.609375 -1.421875 
Q 20.21875 -1.421875 15.453125 -0.5625 
Q 10.6875 0.296875 5.421875 2 
L 5.421875 11.28125 
Q 10.40625 8.6875 15.234375 7.390625 
Q 20.0625 6.109375 24.8125 6.109375 
Q 31.15625 6.109375 34.5625 8.28125 
Q 37.984375 10.453125 37.984375 14.40625 
Q 37.984375 18.0625 35.515625 20.015625 
Q 33.0625 21.96875 24.703125 23.78125 
L 21.578125 24.515625 
Q 13.234375 26.265625 9.515625 29.90625 
Q 5.8125 33.546875 5.8125 39.890625 
Q 5.8125 47.609375 11.28125 51.796875 
Q 16.75 56 26.8125 56 
Q 31.78125 56 36.171875 55.265625 
Q 40.578125 54.546875 44.28125 53.078125 
z
" id="DejaVuSans-115"/>
       <path d="M 34.28125 27.484375 
Q 23.390625 27.484375 19.1875 25 
Q 14.984375 22.515625 14.984375 16.5 
Q 14.984375 11.71875 18.140625 8.90625 
Q 21.296875 6.109375 26.703125 6.109375 
Q 34.1875 6.109375 38.703125 11.40625 
Q 43.21875 16.703125 43.21875 25.484375 
L 43.21875 27.484375 
z
M 52.203125 31.203125 
L 52.203125 0 
L 43.21875 0 
L 43.21875 8.296875 
Q 40.140625 3.328125 35.546875 0.953125 
Q 30.953125 -1.421875 24.3125 -1.421875 
Q 15.921875 -1.421875 10.953125 3.296875 
Q 6 8.015625 6 15.921875 
Q 6 25.140625 12.171875 29.828125 
Q 18.359375 34.515625 30.609375 34.515625 
L 43.21875 34.515625 
L 43.21875 35.40625 
Q 43.21875 41.609375 39.140625 45 
Q 35.0625 48.390625 27.6875 48.390625 
Q 23 48.390625 18.546875 47.265625 
Q 14.109375 46.140625 10.015625 43.890625 
L 10.015625 52.203125 
Q 14.9375 54.109375 19.578125 55.046875 
Q 24.21875 56 28.609375 56 
Q 40.484375 56 46.34375 49.84375 
Q 52.203125 43.703125 52.203125 31.203125 
z
" id="DejaVuSans-97"/>
       <path d="M 45.40625 27.984375 
Q 45.40625 37.75 41.375 43.109375 
Q 37.359375 48.484375 30.078125 48.484375 
Q 22.859375 48.484375 18.828125 43.109375 
Q 14.796875 37.75 14.796875 27.984375 
Q 14.796875 18.265625 18.828125 12.890625 
Q 22.859375 7.515625 30.078125 7.515625 
Q 37.359375 7.515625 41.375 12.890625 
Q 45.40625 18.265625 45.40625 27.984375 
z
M 54.390625 6.78125 
Q 54.390625 -7.171875 48.1875 -13.984375 
Q 42 -20.796875 29.203125 -20.796875 
Q 24.46875 -20.796875 20.265625 -20.09375 
Q 16.0625 -19.390625 12.109375 -17.921875 
L 12.109375 -9.1875 
Q 16.0625 -11.328125 19.921875 -12.34375 
Q 23.78125 -13.375 27.78125 -13.375 
Q 36.625 -13.375 41.015625 -8.765625 
Q 45.40625 -4.15625 45.40625 5.171875 
L 45.40625 9.625 
Q 42.625 4.78125 38.28125 2.390625 
Q 33.9375 0 27.875 0 
Q 17.828125 0 11.671875 7.65625 
Q 5.515625 15.328125 5.515625 27.984375 
Q 5.515625 40.671875 11.671875 48.328125 
Q 17.828125 56 27.875 56 
Q 33.9375 56 38.28125 53.609375 
Q 42.625 51.21875 45.40625 46.390625 
L 45.40625 54.6875 
L 54.390625 54.6875 
z
" id="DejaVuSans-103"/>
       <path d="M 56.203125 29.59375 
L 56.203125 25.203125 
L 14.890625 25.203125 
Q 15.484375 15.921875 20.484375 11.0625 
Q 25.484375 6.203125 34.421875 6.203125 
Q 39.59375 6.203125 44.453125 7.46875 
Q 49.3125 8.734375 54.109375 11.28125 
L 54.109375 2.78125 
Q 49.265625 0.734375 44.1875 -0.34375 
Q 39.109375 -1.421875 33.890625 -1.421875 
Q 20.796875 -1.421875 13.15625 6.1875 
Q 5.515625 13.8125 5.515625 26.8125 
Q 5.515625 40.234375 12.765625 48.109375 
Q 20.015625 56 32.328125 56 
Q 43.359375 56 49.78125 48.890625 
Q 56.203125 41.796875 56.203125 29.59375 
z
M 47.21875 32.234375 
Q 47.125 39.59375 43.09375 43.984375 
Q 39.0625 48.390625 32.421875 48.390625 
Q 24.90625 48.390625 20.390625 44.140625 
Q 15.875 39.890625 15.1875 32.171875 
z
" id="DejaVuSans-101"/>
       <path id="DejaVuSans-32"/>
       <path d="M 31 75.875 
Q 24.46875 64.65625 21.28125 53.65625 
Q 18.109375 42.671875 18.109375 31.390625 
Q 18.109375 20.125 21.3125 9.0625 
Q 24.515625 -2 31 -13.1875 
L 23.1875 -13.1875 
Q 15.875 -1.703125 12.234375 9.375 
Q 8.59375 20.453125 8.59375 31.390625 
Q 8.59375 42.28125 12.203125 53.3125 
Q 15.828125 64.359375 23.1875 75.875 
z
" id="DejaVuSans-40"/>
       <path d="M 72.703125 32.078125 
Q 68.453125 32.078125 66.03125 28.46875 
Q 63.625 24.859375 63.625 18.40625 
Q 63.625 12.0625 66.03125 8.421875 
Q 68.453125 4.78125 72.703125 4.78125 
Q 76.859375 4.78125 79.265625 8.421875 
Q 81.6875 12.0625 81.6875 18.40625 
Q 81.6875 24.8125 79.265625 28.4375 
Q 76.859375 32.078125 72.703125 32.078125 
z
M 72.703125 38.28125 
Q 80.421875 38.28125 84.953125 32.90625 
Q 89.5 27.546875 89.5 18.40625 
Q 89.5 9.28125 84.9375 3.921875 
Q 80.375 -1.421875 72.703125 -1.421875 
Q 64.890625 -1.421875 60.34375 3.921875 
Q 55.8125 9.28125 55.8125 18.40625 
Q 55.8125 27.59375 60.375 32.9375 
Q 64.9375 38.28125 72.703125 38.28125 
z
M 22.3125 68.015625 
Q 18.109375 68.015625 15.6875 64.375 
Q 13.28125 60.75 13.28125 54.390625 
Q 13.28125 47.953125 15.671875 44.328125 
Q 18.0625 40.71875 22.3125 40.71875 
Q 26.5625 40.71875 28.96875 44.328125 
Q 31.390625 47.953125 31.390625 54.390625 
Q 31.390625 60.6875 28.953125 64.34375 
Q 26.515625 68.015625 22.3125 68.015625 
z
M 66.40625 74.21875 
L 74.21875 74.21875 
L 28.609375 -1.421875 
L 20.796875 -1.421875 
z
M 22.3125 74.21875 
Q 30.03125 74.21875 34.609375 68.875 
Q 39.203125 63.53125 39.203125 54.390625 
Q 39.203125 45.171875 34.640625 39.84375 
Q 30.078125 34.515625 22.3125 34.515625 
Q 14.546875 34.515625 10.03125 39.859375 
Q 5.515625 45.21875 5.515625 54.390625 
Q 5.515625 63.484375 10.046875 68.84375 
Q 14.59375 74.21875 22.3125 74.21875 
z
" id="DejaVuSans-37"/>
       <path d="M 8.015625 75.875 
L 15.828125 75.875 
Q 23.140625 64.359375 26.78125 53.3125 
Q 30.421875 42.28125 30.421875 31.390625 
Q 30.421875 20.453125 26.78125 9.375 
Q 23.140625 -1.703125 15.828125 -13.1875 
L 8.015625 -13.1875 
Q 14.5 -2 17.703125 9.0625 
Q 20.90625 20.125 20.90625 31.390625 
Q 20.90625 42.671875 17.703125 53.65625 
Q 14.5 64.65625 8.015625 75.875 
z
" id="DejaVuSans-41"/>
      </defs>
      <use xlink:href="#DejaVuSans-85"/>
      <use x="73.193359" xlink:href="#DejaVuSans-115"/>
      <use x="125.292969" xlink:href="#DejaVuSans-97"/>
      <use x="186.572266" xlink:href="#DejaVuSans-103"/>
      <use x="250.048828" xlink:href="#DejaVuSans-101"/>
      <use x="311.572266" xlink:href="#DejaVuSans-32"/>
      <use x="343.359375" xlink:href="#DejaVuSans-40"/>
      <use x="382.373047" xlink:href="#DejaVuSans-37"/>
      <use x="477.392578" xlink:href="#DejaVuSans-41"/>
     </g>
    </g>
   </g>
   <g id="line2d_11">
    <path clip-path="url(#p53df451b15)" d="M 227.663636 333.915 
L 227.663636 333.610161 
L 228.947871 333.915 
L 230.232106 333.915 
L 231.516341 333.000484 
L 232.800575 331.171452 
L 234.08481 328.732742 
L 235.369045 331.171452 
L 236.65328 331.47629 
L 237.937514 331.171452 
L 239.221749 331.47629 
L 240.505984 329.952097 
L 240.505984 329.037581 
L 243.074453 329.037581 
L 244.358688 326.598871 
L 245.642923 329.037581 
L 248.211392 329.037581 
L 249.495627 328.732742 
L 250.779862 329.037581 
L 252.064097 329.647258 
L 253.348331 329.037581 
L 253.348331 329.037581 
L 254.632566 318.063387 
L 255.916801 329.037581 
L 257.201036 328.732742 
L 258.48527 329.037581 
L 259.769505 329.037581 
L 261.05374 331.47629 
L 262.337975 329.037581 
L 263.622209 333.610161 
L 264.906444 331.47629 
L 266.190679 331.47629 
L 267.474914 331.171452 
L 267.474914 331.47629 
L 268.759148 331.171452 
L 270.043383 329.037581 
L 273.896087 329.037581 
L 275.180322 328.732742 
L 276.464557 328.123065 
L 277.748792 331.47629 
L 280.317261 331.47629 
L 280.317261 330.256935 
L 281.601496 328.732742 
L 282.885731 326.294032 
L 284.169965 329.037581 
L 285.4542 329.037581 
L 286.738435 328.427903 
L 288.02267 328.427903 
L 290.591139 329.037581 
L 291.875374 331.47629 
L 293.159609 331.47629 
L 293.159609 329.037581 
L 294.443843 330.866613 
L 295.728078 331.47629 
L 298.296548 331.47629 
L 299.580783 329.037581 
L 300.865017 329.342419 
L 302.149252 331.47629 
L 303.433487 328.123065 
L 304.717722 331.47629 
L 306.001956 331.47629 
L 307.286191 329.342419 
L 307.286191 327.818226 
L 308.570426 331.171452 
L 309.854661 328.732742 
L 311.138895 333.915 
L 313.707365 333.915 
L 314.9916 333.000484 
L 316.275834 331.47629 
L 317.560069 331.47629 
L 318.844304 329.037581 
L 320.128539 331.47629 
L 320.128539 331.47629 
L 321.412773 329.037581 
L 322.697008 329.037581 
L 323.981243 331.47629 
L 325.265478 331.47629 
L 326.549712 329.037581 
L 330.402417 329.037581 
L 331.686651 329.342419 
L 332.970886 326.598871 
L 334.255121 329.037581 
L 334.255121 329.037581 
L 336.82359 324.160161 
L 338.107825 324.160161 
L 339.39206 328.427903 
L 340.676295 329.037581 
L 341.960529 323.855323 
L 344.528999 324.465 
L 345.813234 324.465 
L 347.097468 324.160161 
L 347.097468 324.465 
L 348.381703 324.769839 
L 349.665938 323.855323 
L 352.234407 324.465 
L 353.518642 323.855323 
L 354.802877 324.160161 
L 356.087112 324.769839 
L 357.371346 324.465 
L 358.655581 324.465 
L 359.939816 324.769839 
L 359.939816 323.550484 
L 361.224051 324.465 
L 362.508285 325.074677 
L 363.79252 323.245645 
L 365.076755 324.769839 
L 366.36099 324.769839 
L 367.645224 323.550484 
L 368.929459 324.465 
L 370.213694 324.465 
L 371.497929 323.855323 
L 374.066398 325.074677 
L 374.066398 323.550484 
L 375.350633 324.465 
L 376.634868 325.074677 
L 377.919102 323.855323 
L 379.203337 324.769839 
L 381.771807 324.160161 
L 383.056041 324.769839 
L 384.340276 324.769839 
L 385.624511 323.855323 
L 386.908746 324.465 
L 386.908746 324.769839 
L 388.19298 323.855323 
L 389.477215 324.465 
L 390.76145 324.465 
L 392.045685 323.550484 
L 393.329919 324.465 
L 394.614154 324.465 
L 395.898389 323.855323 
L 397.182624 324.160161 
L 398.466858 324.769839 
L 399.751093 323.855323 
L 401.035328 324.769839 
L 401.035328 325.074677 
L 402.319563 323.855323 
L 403.603797 324.465 
L 404.888032 324.769839 
L 406.172267 323.550484 
L 407.456502 324.465 
L 408.740736 324.465 
L 410.024971 323.855323 
L 411.309206 324.465 
L 412.593441 324.769839 
L 413.877675 324.465 
L 413.877675 324.465 
L 415.16191 324.769839 
L 416.446145 324.160161 
L 417.73038 324.769839 
L 419.014614 324.465 
L 420.298849 323.550484 
L 421.583084 324.769839 
L 422.867319 324.769839 
L 424.151554 323.855323 
L 425.435788 324.465 
L 426.720023 324.769839 
L 426.720023 323.550484 
L 428.004258 324.160161 
L 429.288493 325.379516 
L 430.572727 324.160161 
L 431.856962 324.465 
L 433.141197 324.465 
L 434.425432 324.160161 
L 435.709666 324.465 
L 436.993901 324.465 
L 438.278136 323.855323 
L 439.562371 324.769839 
L 440.846605 324.769839 
L 440.846605 324.160161 
L 442.13084 324.465 
L 443.415075 324.465 
L 444.69931 323.550484 
L 445.983544 324.465 
L 447.267779 324.769839 
L 448.552014 323.245645 
L 449.836249 324.160161 
L 451.120483 324.769839 
L 452.404718 323.550484 
L 453.688953 324.465 
L 453.688953 324.465 
L 454.973188 324.160161 
L 456.257422 324.465 
L 457.541657 324.465 
L 458.825892 323.855323 
L 460.110127 324.769839 
L 461.394361 324.465 
L 462.678596 323.855323 
L 463.962831 324.465 
L 465.247066 324.465 
L 466.5313 323.550484 
L 467.815535 324.465 
L 467.815535 324.769839 
L 469.09977 324.160161 
L 470.384005 324.465 
L 471.668239 325.074677 
L 472.952474 323.855323 
L 474.236709 324.160161 
L 475.520944 325.379516 
L 476.805178 323.550484 
L 478.089413 324.465 
L 479.373648 324.465 
L 480.657883 323.550484 
L 480.657883 323.855323 
L 481.942117 324.769839 
L 483.226352 323.855323 
L 484.510587 324.769839 
L 485.794822 324.769839 
L 487.079056 323.855323 
L 488.363291 324.465 
L 489.647526 324.769839 
L 490.931761 323.855323 
L 493.50023 324.465 
L 493.50023 323.550484 
L 494.784465 324.769839 
L 496.0687 324.769839 
L 497.352934 323.855323 
L 498.637169 324.465 
L 499.921404 323.855323 
L 501.205639 323.550484 
L 502.489873 324.465 
L 503.774108 325.074677 
L 505.058343 323.550484 
L 506.342578 324.465 
L 507.626812 325.074677 
L 507.626812 323.855323 
L 510.195282 325.074677 
L 511.479517 323.550484 
L 512.763751 323.855323 
L 514.047986 324.769839 
L 515.332221 323.855323 
L 517.90069 325.074677 
L 519.184925 323.550484 
L 520.46916 324.465 
L 520.46916 324.160161 
L 521.753395 323.245645 
L 523.037629 324.160161 
L 524.321864 324.465 
L 525.606099 323.550484 
L 526.890334 324.465 
L 528.174568 324.769839 
L 529.458803 323.550484 
L 530.743038 324.465 
L 532.027273 324.769839 
L 533.311507 323.855323 
L 534.595742 324.465 
L 534.595742 324.769839 
L 535.879977 323.855323 
L 537.164212 324.769839 
L 538.448446 324.769839 
L 539.732681 324.160161 
L 542.301151 324.769839 
L 543.585386 324.160161 
L 544.86962 324.769839 
L 546.153855 324.465 
L 547.43809 323.550484 
L 547.43809 324.465 
L 548.722325 324.769839 
L 550.006559 323.550484 
L 551.290794 324.465 
L 552.575029 324.769839 
L 553.859264 323.855323 
L 555.143498 324.465 
L 556.427733 324.769839 
L 557.711968 324.160161 
L 558.996203 324.465 
L 560.280437 325.074677 
L 560.280437 316.844032 
L 561.564672 324.465 
L 562.848907 324.769839 
L 564.133142 323.550484 
L 565.417376 324.160161 
L 566.701611 324.465 
L 567.985846 324.160161 
L 570.554315 324.769839 
L 571.83855 323.550484 
L 573.122785 325.074677 
L 574.40702 324.465 
L 574.40702 323.245645 
L 575.691254 324.465 
L 576.975489 324.465 
L 578.259724 323.550484 
L 579.543959 324.465 
L 580.828193 324.769839 
L 582.112428 323.550484 
L 583.396663 324.465 
L 584.680898 324.465 
L 585.965132 324.160161 
L 587.249367 324.465 
L 587.249367 324.465 
L 588.533602 324.160161 
L 589.817837 324.465 
L 591.102071 324.465 
L 592.386306 324.160161 
L 593.670541 324.769839 
L 594.954776 324.769839 
L 596.23901 324.465 
L 597.523245 324.769839 
L 598.80748 324.769839 
L 600.091715 324.160161 
L 601.375949 312.881129 
L 601.375949 324.465 
L 602.660184 323.855323 
L 603.944419 324.769839 
L 605.228654 324.769839 
L 606.512888 323.550484 
L 607.797123 324.465 
L 609.081358 324.465 
L 610.365593 323.855323 
L 611.649827 324.769839 
L 612.934062 325.379516 
L 614.218297 324.160161 
L 614.218297 324.465 
L 615.502532 325.074677 
L 616.786766 324.465 
L 619.355236 324.465 
L 620.639471 323.855323 
L 621.923705 324.160161 
L 623.20794 323.855323 
L 625.77641 324.465 
L 627.060644 324.465 
L 627.060644 323.855323 
L 628.344879 324.465 
L 629.629114 323.855323 
L 632.197583 324.465 
L 633.481818 324.465 
L 634.766053 324.160161 
L 636.050288 324.769839 
L 638.618757 324.160161 
L 639.902992 324.769839 
L 641.187227 321.721452 
L 641.187227 324.160161 
L 642.471461 324.769839 
L 643.755696 324.160161 
L 645.039931 324.160161 
L 646.324166 324.465 
L 647.6084 324.465 
L 648.892635 323.855323 
L 650.17687 324.769839 
L 651.461105 324.769839 
L 652.745339 324.160161 
L 654.029574 324.465 
L 654.029574 324.465 
L 657.882278 324.465 
L 659.166513 323.855323 
L 660.450748 324.160161 
L 661.734983 324.769839 
L 663.019217 324.465 
L 664.303452 324.465 
L 665.587687 324.769839 
L 668.156157 324.160161 
L 668.156157 323.855323 
L 669.440391 324.769839 
L 670.724626 324.465 
L 672.008861 323.855323 
L 673.293096 325.074677 
L 674.57733 323.855323 
L 677.1458 324.465 
L 678.430035 324.160161 
L 679.714269 324.160161 
L 680.998504 324.465 
L 680.998504 324.160161 
L 682.282739 323.855323 
L 683.566974 324.769839 
L 684.851208 324.160161 
L 686.135443 324.160161 
L 687.419678 324.769839 
L 688.703913 323.855323 
L 689.988147 323.855323 
L 691.272382 324.465 
L 692.556617 324.465 
L 693.840852 324.160161 
L 693.840852 324.465 
L 695.125086 324.465 
L 696.409321 323.855323 
L 697.693556 324.769839 
L 698.977791 324.160161 
L 701.54626 324.769839 
L 702.830495 324.160161 
L 704.11473 323.855323 
L 705.398964 324.465 
L 706.683199 324.160161 
L 707.967434 324.160161 
L 707.967434 324.465 
L 709.251669 324.769839 
L 710.535903 324.160161 
L 711.820138 324.769839 
L 713.104373 324.160161 
L 714.388608 324.160161 
L 715.672842 325.074677 
L 716.957077 324.160161 
L 718.241312 324.465 
L 719.525547 324.465 
L 720.809781 324.769839 
L 720.809781 324.465 
L 722.094016 324.160161 
L 723.378251 324.465 
L 724.662486 324.160161 
L 725.94672 325.074677 
L 727.230955 324.160161 
L 728.51519 324.465 
L 729.799425 323.550484 
L 731.083659 323.550484 
L 732.367894 324.465 
L 733.652129 324.160161 
L 734.936364 324.160161 
L 734.936364 324.160161 
" style="fill:none;stroke:#1f77b4;stroke-linecap:square;stroke-width:6;"/>
   </g>
   <g id="line2d_12">
    <path clip-path="url(#p53df451b15)" d="M 227.663636 235.756935 
L 230.232106 235.756935 
L 231.516341 232.708548 
L 234.08481 31.515 
L 235.369045 135.160161 
L 239.221749 135.160161 
L 240.505984 104.67629 
L 240.505984 31.515 
L 259.769505 31.515 
L 261.05374 135.160161 
L 262.337975 34.563387 
L 263.622209 235.756935 
L 264.906444 135.160161 
L 268.759148 135.160161 
L 270.043383 31.515 
L 273.896087 31.515 
L 275.180322 34.563387 
L 276.464557 68.095645 
L 277.748792 135.160161 
L 280.317261 135.160161 
L 280.317261 80.289194 
L 281.601496 31.515 
L 290.591139 31.515 
L 291.875374 135.160161 
L 293.159609 135.160161 
L 293.159609 31.515 
L 294.443843 126.015 
L 295.728078 135.160161 
L 298.296548 135.160161 
L 299.580783 31.515 
L 300.865017 31.515 
L 302.149252 135.160161 
L 303.433487 31.515 
L 304.717722 135.160161 
L 306.001956 135.160161 
L 307.286191 71.144032 
L 307.286191 34.563387 
L 308.570426 135.160161 
L 309.854661 31.515 
L 311.138895 235.756935 
L 313.707365 235.756935 
L 316.275834 135.160161 
L 317.560069 135.160161 
L 318.844304 31.515 
L 320.128539 135.160161 
L 320.128539 135.160161 
L 321.412773 31.515 
L 322.697008 31.515 
L 323.981243 135.160161 
L 325.265478 135.160161 
L 326.549712 31.515 
L 335.539356 31.515 
L 336.82359 34.563387 
L 338.107825 34.563387 
L 339.39206 31.515 
L 340.676295 31.515 
L 341.960529 37.611774 
L 343.244764 34.563387 
L 344.528999 34.563387 
L 345.813234 37.611774 
L 347.097468 34.563387 
L 347.097468 34.563387 
L 350.950173 34.563387 
L 352.234407 37.611774 
L 353.518642 34.563387 
L 354.802877 34.563387 
L 356.087112 37.611774 
L 357.371346 34.563387 
L 361.224051 34.563387 
L 362.508285 37.611774 
L 363.79252 34.563387 
L 368.929459 34.563387 
L 370.213694 37.611774 
L 371.497929 34.563387 
L 372.782163 34.563387 
L 374.066398 37.611774 
L 374.066398 34.563387 
L 383.056041 34.563387 
L 384.340276 37.611774 
L 385.624511 34.563387 
L 407.456502 34.563387 
L 408.740736 37.611774 
L 410.024971 34.563387 
L 416.446145 34.563387 
L 417.73038 37.611774 
L 420.298849 31.515 
L 422.867319 37.611774 
L 424.151554 34.563387 
L 425.435788 34.563387 
L 426.720023 37.611774 
L 426.720023 34.563387 
L 428.004258 34.563387 
L 429.288493 37.611774 
L 430.572727 34.563387 
L 438.278136 34.563387 
L 439.562371 37.611774 
L 440.846605 37.611774 
L 440.846605 34.563387 
L 442.13084 34.563387 
L 443.415075 37.611774 
L 444.69931 34.563387 
L 449.836249 34.563387 
L 451.120483 37.611774 
L 452.404718 34.563387 
L 463.962831 34.563387 
L 465.247066 37.611774 
L 466.5313 34.563387 
L 478.089413 34.563387 
L 479.373648 37.611774 
L 480.657883 34.563387 
L 481.942117 37.611774 
L 483.226352 34.563387 
L 484.510587 34.563387 
L 485.794822 37.611774 
L 487.079056 34.563387 
L 492.215995 34.563387 
L 493.50023 37.611774 
L 493.50023 34.563387 
L 494.784465 34.563387 
L 496.0687 37.611774 
L 497.352934 34.563387 
L 498.637169 34.563387 
L 499.921404 37.611774 
L 501.205639 34.563387 
L 502.489873 34.563387 
L 503.774108 37.611774 
L 505.058343 34.563387 
L 506.342578 37.611774 
L 507.626812 34.563387 
L 507.626812 34.563387 
L 512.763751 34.563387 
L 514.047986 37.611774 
L 515.332221 34.563387 
L 520.46916 34.563387 
L 520.46916 37.611774 
L 521.753395 34.563387 
L 523.037629 34.563387 
L 524.321864 37.611774 
L 525.606099 34.563387 
L 534.595742 34.563387 
L 534.595742 37.611774 
L 535.879977 34.563387 
L 537.164212 34.563387 
L 538.448446 37.611774 
L 539.732681 34.563387 
L 541.016916 34.563387 
L 542.301151 37.611774 
L 543.585386 34.563387 
L 547.43809 34.563387 
L 547.43809 34.563387 
L 548.722325 37.611774 
L 550.006559 34.563387 
L 556.427733 34.563387 
L 557.711968 31.515 
L 558.996203 34.563387 
L 561.564672 34.563387 
L 562.848907 37.611774 
L 564.133142 34.563387 
L 565.417376 34.563387 
L 566.701611 37.611774 
L 567.985846 34.563387 
L 569.270081 34.563387 
L 570.554315 37.611774 
L 571.83855 34.563387 
L 579.543959 34.563387 
L 580.828193 37.611774 
L 582.112428 34.563387 
L 587.249367 34.563387 
L 587.249367 37.611774 
L 588.533602 34.563387 
L 589.817837 34.563387 
L 591.102071 37.611774 
L 592.386306 34.563387 
L 593.670541 34.563387 
L 594.954776 37.611774 
L 596.23901 34.563387 
L 614.218297 34.563387 
L 614.218297 34.563387 
L 615.502532 37.611774 
L 619.355236 37.611774 
L 620.639471 34.563387 
L 621.923705 34.563387 
L 623.20794 37.611774 
L 624.492175 34.563387 
L 629.629114 34.563387 
L 630.913349 37.611774 
L 632.197583 34.563387 
L 643.755696 34.563387 
L 645.039931 37.611774 
L 646.324166 34.563387 
L 657.882278 34.563387 
L 659.166513 40.660161 
L 660.450748 34.563387 
L 670.724626 34.563387 
L 672.008861 37.611774 
L 673.293096 37.611774 
L 674.57733 34.563387 
L 702.830495 34.563387 
L 704.11473 37.611774 
L 705.398964 34.563387 
L 714.388608 34.563387 
L 715.672842 31.515 
L 716.957077 34.563387 
L 720.809781 34.563387 
L 720.809781 37.611774 
L 722.094016 34.563387 
L 727.230955 34.563387 
L 728.51519 37.611774 
L 729.799425 34.563387 
L 734.936364 34.563387 
L 734.936364 34.563387 
" style="fill:none;stroke:#ff7f0e;stroke-linecap:square;stroke-width:6;"/>
   </g>
   <g id="patch_3">
    <path d="M 202.3 349.035 
L 202.3 16.395 
" style="fill:none;stroke:#000000;stroke-linecap:square;stroke-linejoin:miter;stroke-width:0.8;"/>
   </g>
   <g id="patch_4">
    <path d="M 760.3 349.035 
L 760.3 16.395 
" style="fill:none;stroke:#000000;stroke-linecap:square;stroke-linejoin:miter;stroke-width:0.8;"/>
   </g>
   <g id="patch_5">
    <path d="M 202.3 349.035 
L 760.3 349.035 
" style="fill:none;stroke:#000000;stroke-linecap:square;stroke-linejoin:miter;stroke-width:0.8;"/>
   </g>
   <g id="patch_6">
    <path d="M 202.3 16.395 
L 760.3 16.395 
" style="fill:none;stroke:#000000;stroke-linecap:square;stroke-linejoin:miter;stroke-width:0.8;"/>
   </g>
   <g id="text_7">
    <!-- Avg CPU: 3.5% -->
    <g transform="translate(157.030725 319.441483)scale(0.64 -0.64)">
     <defs>
      <path d="M 53.421875 13.28125 
L 24.03125 13.28125 
L 19.390625 0 
L 0.484375 0 
L 27.484375 72.90625 
L 49.90625 72.90625 
L 76.90625 0 
L 58.015625 0 
z
M 28.71875 26.8125 
L 48.6875 26.8125 
L 38.71875 55.8125 
z
" id="DejaVuSans-Bold-65"/>
      <path d="M 1.515625 54.6875 
L 19 54.6875 
L 32.625 16.890625 
L 46.1875 54.6875 
L 63.71875 54.6875 
L 42.1875 0 
L 23 0 
z
" id="DejaVuSans-Bold-118"/>
      <path d="M 45.609375 9.28125 
Q 42 4.5 37.640625 2.25 
Q 33.296875 0 27.59375 0 
Q 17.578125 0 11.03125 7.875 
Q 4.5 15.765625 4.5 27.984375 
Q 4.5 40.234375 11.03125 48.0625 
Q 17.578125 55.90625 27.59375 55.90625 
Q 33.296875 55.90625 37.640625 53.65625 
Q 42 51.421875 45.609375 46.578125 
L 45.609375 54.6875 
L 63.1875 54.6875 
L 63.1875 5.515625 
Q 63.1875 -7.671875 54.859375 -14.625 
Q 46.53125 -21.578125 30.71875 -21.578125 
Q 25.59375 -21.578125 20.796875 -20.796875 
Q 16.015625 -20.015625 11.1875 -18.40625 
L 11.1875 -4.78125 
Q 15.765625 -7.421875 20.15625 -8.71875 
Q 24.5625 -10.015625 29 -10.015625 
Q 37.59375 -10.015625 41.59375 -6.25 
Q 45.609375 -2.484375 45.609375 5.515625 
z
M 34.078125 43.3125 
Q 28.65625 43.3125 25.625 39.296875 
Q 22.609375 35.296875 22.609375 27.984375 
Q 22.609375 20.453125 25.53125 16.578125 
Q 28.46875 12.703125 34.078125 12.703125 
Q 39.546875 12.703125 42.578125 16.703125 
Q 45.609375 20.703125 45.609375 27.984375 
Q 45.609375 35.296875 42.578125 39.296875 
Q 39.546875 43.3125 34.078125 43.3125 
z
" id="DejaVuSans-Bold-103"/>
      <path id="DejaVuSans-Bold-32"/>
      <path d="M 67 4 
Q 61.8125 1.3125 56.203125 -0.046875 
Q 50.59375 -1.421875 44.484375 -1.421875 
Q 26.265625 -1.421875 15.625 8.765625 
Q 4.984375 18.953125 4.984375 36.375 
Q 4.984375 53.859375 15.625 64.03125 
Q 26.265625 74.21875 44.484375 74.21875 
Q 50.59375 74.21875 56.203125 72.84375 
Q 61.8125 71.484375 67 68.796875 
L 67 53.71875 
Q 61.765625 57.28125 56.6875 58.9375 
Q 51.609375 60.59375 46 60.59375 
Q 35.9375 60.59375 30.171875 54.140625 
Q 24.421875 47.703125 24.421875 36.375 
Q 24.421875 25.09375 30.171875 18.640625 
Q 35.9375 12.203125 46 12.203125 
Q 51.609375 12.203125 56.6875 13.859375 
Q 61.765625 15.53125 67 19.09375 
z
" id="DejaVuSans-Bold-67"/>
      <path d="M 9.1875 72.90625 
L 40.375 72.90625 
Q 54.296875 72.90625 61.734375 66.71875 
Q 69.1875 60.546875 69.1875 49.125 
Q 69.1875 37.640625 61.734375 31.46875 
Q 54.296875 25.296875 40.375 25.296875 
L 27.984375 25.296875 
L 27.984375 0 
L 9.1875 0 
z
M 27.984375 59.28125 
L 27.984375 38.921875 
L 38.375 38.921875 
Q 43.84375 38.921875 46.828125 41.578125 
Q 49.8125 44.234375 49.8125 49.125 
Q 49.8125 54 46.828125 56.640625 
Q 43.84375 59.28125 38.375 59.28125 
z
" id="DejaVuSans-Bold-80"/>
      <path d="M 9.1875 72.90625 
L 27.984375 72.90625 
L 27.984375 29.203125 
Q 27.984375 20.171875 30.9375 16.28125 
Q 33.890625 12.40625 40.578125 12.40625 
Q 47.3125 12.40625 50.265625 16.28125 
Q 53.21875 20.171875 53.21875 29.203125 
L 53.21875 72.90625 
L 72.015625 72.90625 
L 72.015625 29.203125 
Q 72.015625 13.71875 64.25 6.140625 
Q 56.5 -1.421875 40.578125 -1.421875 
Q 24.703125 -1.421875 16.9375 6.140625 
Q 9.1875 13.71875 9.1875 29.203125 
z
" id="DejaVuSans-Bold-85"/>
      <path d="M 11.1875 54.6875 
L 28.8125 54.6875 
L 28.8125 35.796875 
L 11.1875 35.796875 
z
M 11.1875 18.890625 
L 28.8125 18.890625 
L 28.8125 0 
L 11.1875 0 
z
" id="DejaVuSans-Bold-58"/>
      <path d="M 46.578125 39.3125 
Q 53.953125 37.40625 57.78125 32.6875 
Q 61.625 27.984375 61.625 20.703125 
Q 61.625 9.859375 53.3125 4.21875 
Q 45.015625 -1.421875 29.109375 -1.421875 
Q 23.484375 -1.421875 17.84375 -0.515625 
Q 12.203125 0.390625 6.6875 2.203125 
L 6.6875 16.703125 
Q 11.96875 14.0625 17.15625 12.71875 
Q 22.359375 11.375 27.390625 11.375 
Q 34.859375 11.375 38.84375 13.953125 
Q 42.828125 16.546875 42.828125 21.390625 
Q 42.828125 26.375 38.75 28.9375 
Q 34.671875 31.5 26.703125 31.5 
L 19.1875 31.5 
L 19.1875 43.609375 
L 27.09375 43.609375 
Q 34.1875 43.609375 37.640625 45.828125 
Q 41.109375 48.046875 41.109375 52.59375 
Q 41.109375 56.78125 37.734375 59.078125 
Q 34.375 61.375 28.21875 61.375 
Q 23.6875 61.375 19.046875 60.34375 
Q 14.40625 59.328125 9.8125 57.328125 
L 9.8125 71.09375 
Q 15.375 72.65625 20.84375 73.4375 
Q 26.3125 74.21875 31.59375 74.21875 
Q 45.796875 74.21875 52.84375 69.546875 
Q 59.90625 64.890625 59.90625 55.515625 
Q 59.90625 49.125 56.53125 45.046875 
Q 53.171875 40.96875 46.578125 39.3125 
z
" id="DejaVuSans-Bold-51"/>
      <path d="M 10.203125 18.890625 
L 27.78125 18.890625 
L 27.78125 0 
L 10.203125 0 
z
" id="DejaVuSans-Bold-46"/>
      <path d="M 10.59375 72.90625 
L 57.328125 72.90625 
L 57.328125 59.078125 
L 25.59375 59.078125 
L 25.59375 47.796875 
Q 27.734375 48.390625 29.90625 48.703125 
Q 32.078125 49.03125 34.421875 49.03125 
Q 47.75 49.03125 55.171875 42.359375 
Q 62.59375 35.6875 62.59375 23.78125 
Q 62.59375 11.96875 54.515625 5.265625 
Q 46.4375 -1.421875 32.078125 -1.421875 
Q 25.875 -1.421875 19.796875 -0.21875 
Q 13.71875 0.984375 7.71875 3.421875 
L 7.71875 18.21875 
Q 13.671875 14.796875 19.015625 13.078125 
Q 24.359375 11.375 29.109375 11.375 
Q 35.9375 11.375 39.859375 14.71875 
Q 43.796875 18.0625 43.796875 23.78125 
Q 43.796875 29.546875 39.859375 32.859375 
Q 35.9375 36.1875 29.109375 36.1875 
Q 25.046875 36.1875 20.453125 35.125 
Q 15.875 34.078125 10.59375 31.890625 
z
" id="DejaVuSans-Bold-53"/>
      <path d="M 77.484375 30.078125 
Q 74.03125 30.078125 72.125 27.078125 
Q 70.21875 24.078125 70.21875 18.5 
Q 70.21875 12.890625 72.09375 9.890625 
Q 73.96875 6.890625 77.484375 6.890625 
Q 81 6.890625 82.859375 9.890625 
Q 84.71875 12.890625 84.71875 18.5 
Q 84.71875 24.078125 82.828125 27.078125 
Q 80.953125 30.078125 77.484375 30.078125 
z
M 77.484375 38.28125 
Q 86.578125 38.28125 91.796875 33 
Q 97.015625 27.734375 97.015625 18.5 
Q 97.015625 9.28125 91.796875 3.921875 
Q 86.578125 -1.421875 77.484375 -1.421875 
Q 68.40625 -1.421875 63.15625 3.921875 
Q 57.90625 9.28125 57.90625 18.5 
Q 57.90625 27.6875 63.15625 32.984375 
Q 68.40625 38.28125 77.484375 38.28125 
z
M 32.71875 -1.421875 
L 21.921875 -1.421875 
L 67.484375 74.21875 
L 78.328125 74.21875 
z
M 22.703125 74.21875 
Q 31.78125 74.21875 36.984375 68.921875 
Q 42.1875 63.625 42.1875 54.390625 
Q 42.1875 45.171875 36.984375 39.84375 
Q 31.78125 34.515625 22.703125 34.515625 
Q 13.625 34.515625 8.421875 39.84375 
Q 3.21875 45.171875 3.21875 54.390625 
Q 3.21875 63.625 8.421875 68.921875 
Q 13.625 74.21875 22.703125 74.21875 
z
M 22.703125 66.015625 
Q 19.1875 66.015625 17.28125 62.984375 
Q 15.375 59.96875 15.375 54.390625 
Q 15.375 48.78125 17.28125 45.71875 
Q 19.1875 42.671875 22.703125 42.671875 
Q 26.21875 42.671875 28.09375 45.71875 
Q 29.984375 48.78125 29.984375 54.390625 
Q 29.984375 59.96875 28.078125 62.984375 
Q 26.171875 66.015625 22.703125 66.015625 
z
" id="DejaVuSans-Bold-37"/>
     </defs>
     <use xlink:href="#DejaVuSans-Bold-65"/>
     <use x="73.767578" xlink:href="#DejaVuSans-Bold-118"/>
     <use x="138.953125" xlink:href="#DejaVuSans-Bold-103"/>
     <use x="210.535156" xlink:href="#DejaVuSans-Bold-32"/>
     <use x="245.349609" xlink:href="#DejaVuSans-Bold-67"/>
     <use x="318.738281" xlink:href="#DejaVuSans-Bold-80"/>
     <use x="392.029297" xlink:href="#DejaVuSans-Bold-85"/>
     <use x="473.230469" xlink:href="#DejaVuSans-Bold-58"/>
     <use x="513.220703" xlink:href="#DejaVuSans-Bold-32"/>
     <use x="548.035156" xlink:href="#DejaVuSans-Bold-51"/>
     <use x="617.615234" xlink:href="#DejaVuSans-Bold-46"/>
     <use x="655.603516" xlink:href="#DejaVuSans-Bold-53"/>
     <use x="725.183594" xlink:href="#DejaVuSans-Bold-37"/>
    </g>
   </g>
   <g id="text_8">
    <!-- Avg GPU: 95.1% -->
    <g transform="translate(157.030725 107.4086)scale(0.64 -0.64)">
     <defs>
      <path d="M 74.703125 5.421875 
Q 67.671875 2 60.109375 0.28125 
Q 52.546875 -1.421875 44.484375 -1.421875 
Q 26.265625 -1.421875 15.625 8.765625 
Q 4.984375 18.953125 4.984375 36.375 
Q 4.984375 54 15.8125 64.109375 
Q 26.65625 74.21875 45.515625 74.21875 
Q 52.78125 74.21875 59.4375 72.84375 
Q 66.109375 71.484375 72.015625 68.796875 
L 72.015625 53.71875 
Q 65.921875 57.171875 59.890625 58.875 
Q 53.859375 60.59375 47.796875 60.59375 
Q 36.578125 60.59375 30.5 54.3125 
Q 24.421875 48.046875 24.421875 36.375 
Q 24.421875 24.8125 30.28125 18.5 
Q 36.140625 12.203125 46.921875 12.203125 
Q 49.859375 12.203125 52.375 12.5625 
Q 54.890625 12.9375 56.890625 13.71875 
L 56.890625 27.875 
L 45.40625 27.875 
L 45.40625 40.484375 
L 74.703125 40.484375 
z
" id="DejaVuSans-Bold-71"/>
      <path d="M 10.015625 1.609375 
L 10.015625 15.09375 
Q 14.5 12.984375 18.59375 11.9375 
Q 22.703125 10.890625 26.703125 10.890625 
Q 35.109375 10.890625 39.796875 15.546875 
Q 44.484375 20.21875 45.3125 29.390625 
Q 42 26.953125 38.234375 25.734375 
Q 34.46875 24.515625 30.078125 24.515625 
Q 18.890625 24.515625 12.03125 31.03125 
Q 5.171875 37.546875 5.171875 48.1875 
Q 5.171875 59.96875 12.8125 67.046875 
Q 20.453125 74.125 33.296875 74.125 
Q 47.5625 74.125 55.375 64.5 
Q 63.1875 54.890625 63.1875 37.3125 
Q 63.1875 19.234375 54.046875 8.90625 
Q 44.921875 -1.421875 29 -1.421875 
Q 23.875 -1.421875 19.1875 -0.65625 
Q 14.5 0.09375 10.015625 1.609375 
z
M 33.203125 36.71875 
Q 38.140625 36.71875 40.625 39.90625 
Q 43.109375 43.109375 43.109375 49.515625 
Q 43.109375 55.859375 40.625 59.078125 
Q 38.140625 62.3125 33.203125 62.3125 
Q 28.265625 62.3125 25.78125 59.078125 
Q 23.296875 55.859375 23.296875 49.515625 
Q 23.296875 43.109375 25.78125 39.90625 
Q 28.265625 36.71875 33.203125 36.71875 
z
" id="DejaVuSans-Bold-57"/>
      <path d="M 11.71875 12.984375 
L 28.328125 12.984375 
L 28.328125 60.109375 
L 11.28125 56.59375 
L 11.28125 69.390625 
L 28.21875 72.90625 
L 46.09375 72.90625 
L 46.09375 12.984375 
L 62.703125 12.984375 
L 62.703125 0 
L 11.71875 0 
z
" id="DejaVuSans-Bold-49"/>
     </defs>
     <use xlink:href="#DejaVuSans-Bold-65"/>
     <use x="73.767578" xlink:href="#DejaVuSans-Bold-118"/>
     <use x="138.953125" xlink:href="#DejaVuSans-Bold-103"/>
     <use x="210.535156" xlink:href="#DejaVuSans-Bold-32"/>
     <use x="245.349609" xlink:href="#DejaVuSans-Bold-71"/>
     <use x="327.429688" xlink:href="#DejaVuSans-Bold-80"/>
     <use x="400.720703" xlink:href="#DejaVuSans-Bold-85"/>
     <use x="481.921875" xlink:href="#DejaVuSans-Bold-58"/>
     <use x="521.912109" xlink:href="#DejaVuSans-Bold-32"/>
     <use x="556.726562" xlink:href="#DejaVuSans-Bold-57"/>
     <use x="626.306641" xlink:href="#DejaVuSans-Bold-53"/>
     <use x="695.886719" xlink:href="#DejaVuSans-Bold-46"/>
     <use x="733.875" xlink:href="#DejaVuSans-Bold-49"/>
     <use x="803.455078" xlink:href="#DejaVuSans-Bold-37"/>
    </g>
   </g>
  </g>
 </g>
 <defs>
  <clipPath id="p53df451b15">
   <rect height="332.64" width="558" x="202.3" y="16.395"/>
  </clipPath>
 </defs>
</svg>
